<svg version="1.2" baseProfile="tiny-ps" xmlns="http://www.w3.org/2000/svg" viewBox="0 0 2193 1527" width="2193" height="1527">
	<title>Novo Projeto</title>
	<style>
		tspan { white-space:pre }
		.shp0 { fill: #8b5dd0 } 
		.shp1 { fill: #45258f } 
		.shp2 { fill: #ffb3c5 } 
		.shp3 { fill: #31dae7 } 
		.shp4 { fill: #472a6a } 
		.shp5 { fill: #5c407b } 
		.shp6 { fill: #34bed1 } 
		.shp7 { fill: #f36b80 } 
		.shp8 { fill: #ea94ad } 
		.shp9 { fill: #e4c4ff } 
		.shp10 { fill: #e25a74 } 
		.shp11 { fill: #f2f2f2 } 
		.shp12 { fill: #466eb6 } 
		.shp13 { fill: #e1dde7 } 
		.shp14 { fill: #fe875e } 
		.shp15 { fill: #ffffff } 
		.shp16 { fill: #efefef } 
	</style>
	<g id="Layer 1">
		<g id="&lt;Group&gt;">
			<path id="&lt;Path&gt;" class="shp0" d="M1906.57 1296.32C1906.57 1352.78 1494.48 1398.55 986.16 1398.55C477.83 1398.55 65.75 1352.78 65.75 1296.32C65.75 1239.86 477.83 1194.1 986.16 1194.1C1494.48 1194.1 1906.57 1239.86 1906.57 1296.32Z" />
			<g id="&lt;Group&gt;">
				<path id="&lt;Path&gt;" class="shp1" d="M424.42 923.62L339.01 923.62C331.96 923.62 326.24 929.34 326.24 936.39L326.24 984.33L340.52 984.33L340.52 938.88L424.42 938.88L424.42 923.62Z" />
				<path id="&lt;Path&gt;" class="shp2" d="M440.74 891.24L414.27 863.31C395.38 873.7 374.92 883.86 352.9 893.79C343.82 877.98 328.99 825.99 328.2 823.51C327.4 821.02 345.56 789.79 341.5 789C337.43 788.22 332.16 805.68 327.87 803.91C323.57 802.14 312.53 761.63 309.95 763.84C305.11 767.98 315.75 789.04 313.21 790.57C310.66 792.11 304.19 767.23 299.27 768.29C294.35 769.35 307.58 790.94 306.13 793.01C304.68 795.09 290.85 774.84 287.99 779.53C286.44 782.07 300.75 797.16 297.8 798.85C294.86 800.54 281.96 791.04 280.42 794.12C278.88 797.19 292.46 800.4 296.23 808.19C299.99 815.98 306.85 819.02 309.12 833.75C311.39 848.46 317.61 927.21 333.66 933.53C343 937.21 378.7 923.11 440.74 891.24Z" />
				<g id="&lt;Group&gt;">
					<path id="&lt;Path&gt;" class="shp2" d="M684.94 1254.26C687.03 1239.4 686.87 1211.98 685.81 1183.05C698.76 1182.4 709.73 1181.58 722.67 1180.72C719.08 1205.35 716.07 1230.35 713.65 1255.71L714.54 1263.02L715.02 1284.66L641.7 1285.2C652 1280.64 664.36 1273.84 678.77 1264.81C680.36 1263.81 684.05 1260.62 684.94 1254.26Z" />
					<path id="&lt;Path&gt;" class="shp3" d="M716.99 1289.31L639.68 1290.22C636.88 1289.97 636.2 1287.71 637.17 1286.31C639.17 1283.44 648 1281.33 657.92 1276.75C675.33 1278.57 711.75 1266.67 714.5 1262.68C716.08 1270.68 718.55 1288.97 716.99 1289.31Z" />
				</g>
				<g id="&lt;Group&gt;">
					<path id="&lt;Path&gt;" class="shp2" d="M816.31 1238.96C810.26 1225.23 795.67 1202.02 779.52 1177.99C790.18 1170.6 800.75 1163.08 811.3 1155.53C821.23 1178.36 831.29 1201.53 841.48 1225.06L846.08 1230.8L857.89 1248.94L795.87 1288.05C802.22 1278.74 809.14 1266.45 816.63 1251.18C817.46 1249.49 818.9 1244.84 816.31 1238.96Z" />
					<path id="&lt;Path&gt;" class="shp3" d="M861.12 1253.48L796.8 1293.38C794.29 1294.64 792.52 1293.07 792.61 1291.38C792.79 1287.88 799.18 1281.44 805.2 1272.31C820.96 1264.68 845.49 1235.19 845.72 1230.35C851.28 1236.31 862.26 1252.37 861.12 1253.48Z" />
				</g>
				<path id="&lt;Compound Path&gt;" class="shp4" d="M786.15 635.06C791.89 607.1 773.9 579.39 748.69 568.98C748.86 553.07 743.7 532.92 732.84 522.03C711.41 500.54 670.52 493.01 654.76 520.4C633.94 532.18 617.57 557.68 623.77 580.91C603.6 601.81 611.26 639.61 640.68 657.46C640.21 680.91 652.61 704.21 673.1 714.22C678.02 716.63 685.72 719.98 686.7 721.02C685.41 719.81 701.88 765.66 753.04 744.67C805.23 723.26 820.17 662.99 786.15 635.06Z" />
				<path id="&lt;Path&gt;" class="shp4" d="M683.59 1233.28C689.95 1198.06 667.89 1110.74 654.43 1072.35C645.11 1045.73 637.48 976.09 631.54 863.43L647.41 844.88L712.15 841.01C693.78 897.43 684.6 935.34 684.6 954.72C684.6 983.81 698 1058.88 713.74 1097.94C728.26 1133.97 722.23 1209.53 717.84 1234.38C706.13 1236.27 695.03 1235.58 683.59 1233.28Z" />
				<path id="&lt;Path&gt;" class="shp5" d="M728.51 848.86C731.48 851.83 748.88 872.43 748.88 886.84C748.88 901.24 716.08 1030.87 723.95 1038.72C731.82 1046.58 760.94 1066.25 779.52 1093.65C795.17 1116.74 831.06 1183.5 837.91 1199.38C824.39 1208.79 812.64 1213.08 799.09 1217.62C796.92 1205.8 690.9 1088.92 678.79 1064.47C666.68 1040.03 660.12 928.3 654 913.46C649.91 903.57 642.43 886.05 631.54 860.92L728.51 848.86Z" />
				<path id="&lt;Path&gt;" class="shp2" d="M634.06 753.33C607.42 783.74 579.35 804.67 549.86 816.11C545.25 817.9 540.96 820.54 537 824.04C537 827.15 540.11 826.85 546.32 823.17C543.79 827.63 543 831.7 543.98 835.39C545.43 840.91 555.08 837.24 560.32 837.24C562.73 837.24 575.06 823.44 591.71 815.33C611.42 805.73 634.68 796.33 637.52 793.49C642.77 788.25 635.62 751.66 634.06 753.33Z" />
				<path id="&lt;Path&gt;" class="shp6" d="M462.23 810.13C452.08 799.98 436 799.02 413.98 807.24C391.96 815.47 371.6 844.32 352.9 893.79L360.52 927.74L422.08 906.61L462.23 810.13Z" />
				<path id="&lt;Path&gt;" class="shp7" d="M715.35 624.96C688.54 622.24 668.13 625.35 654.14 634.27C633.15 647.66 619.75 695.37 619.75 715.74C619.75 736.11 634.88 843.19 629.06 863.56C673.38 861.62 703.11 860.65 718.27 860.65C733.43 860.65 742.56 857.74 745.67 851.92C714.19 820.88 698.45 798.57 698.45 784.99C698.45 771.42 704.08 718.07 715.35 624.96Z" />
				<g id="&lt;Group&gt;">
					<path id="&lt;Compound Path&gt;" fill-rule="evenodd" class="shp5" d="M198.32 1138.28L223.64 1138.28L223.64 1058.09L231.19 1058.09L231.19 1097.94L281.09 1097.94L281.09 1026.9C281.09 998.88 305.44 974.3 333.19 974.3L398.19 974.3L398.19 986.7L333.19 986.7C309.85 986.7 292.41 1007.93 292.41 1026.9L292.41 1097.94L368 1097.94L368 1110.34L231.19 1110.34L231.19 1138.28L241.56 1138.28L241.56 1146.55L231.19 1146.55L231.19 1171.67L241.56 1171.67L241.56 1179.94L231.19 1179.94L231.19 1201.71C250.52 1203.79 265.63 1221.64 265.63 1243.36C265.63 1266.48 248.52 1285.22 227.41 1285.22C206.31 1285.22 189.2 1266.48 189.2 1243.36C189.2 1221.64 204.3 1203.79 223.64 1201.71L223.64 1179.94L173.63 1179.94L173.63 1243.36L166.08 1243.36L166.08 1173.6C166.08 1154.13 180.54 1138.28 198.32 1138.28ZM223.64 1146.55L198.32 1146.55C185.3 1146.55 174.6 1157.65 173.69 1171.67L223.64 1171.67L223.64 1146.55Z" />
					<path id="&lt;Path&gt;" class="shp8" d="M195.71 1184.55C196.73 1202.49 197.24 1211.47 197.24 1211.51C197.8 1214.93 200.01 1223.37 200.01 1226.47C200.01 1238.13 148.11 1216.57 159.74 1211.4C160.79 1210.93 166.78 1204.47 168.29 1200.78C170.08 1196.4 171.36 1189.92 172.14 1181.33L195.71 1184.55Z" />
					<path id="&lt;Path&gt;" class="shp6" d="M159.87 1211.29C167.99 1213.67 174.13 1215.15 178.29 1215.75C184.53 1216.64 192.76 1209.13 197.18 1211.16C200.41 1212.65 202.13 1220.23 202.31 1233.9C158.82 1235.35 130.76 1235.15 118.13 1233.3C110.56 1232.19 134.96 1219.6 159.87 1211.29Z" />
					<g id="&lt;Group&gt;">
						<path id="&lt;Path&gt;" class="shp5" d="M455.52 1127.09L469.86 1127.09L469.86 853.95C469.86 844.74 478.88 837.24 489.97 837.24L618.94 837.24C622.38 837.24 625.17 834.57 625.17 831.28C625.17 827.99 622.38 825.33 618.94 825.33L489.97 825.33C470.98 825.33 455.52 838.17 455.52 853.95L455.52 1127.09Z" />
					</g>
					<g id="&lt;Group&gt;">
						<path id="&lt;Path&gt;" class="shp5" d="M388.31 1069.79C436.09 1069.79 474.82 1108.87 474.82 1157.08C474.82 1205.29 436.09 1244.37 388.31 1244.37C340.53 1244.37 301.79 1205.29 301.79 1157.08C301.79 1108.87 340.53 1069.79 388.31 1069.79Z" />
						<path id="&lt;Compound Path&gt;" fill-rule="evenodd" class="shp5" d="M388.31 1050.79C446.49 1050.79 493.66 1098.38 493.66 1157.08C493.66 1215.79 446.49 1263.38 388.31 1263.38C330.13 1263.38 282.96 1215.79 282.96 1157.08C282.96 1098.38 330.13 1050.79 388.31 1050.79ZM388.31 1253.3C440.98 1253.3 483.68 1210.22 483.68 1157.08C483.68 1103.94 440.98 1060.86 388.31 1060.86C335.64 1060.86 292.94 1103.94 292.94 1157.08C292.94 1210.22 335.64 1253.3 388.31 1253.3Z" />
					</g>
					<path id="&lt;Path&gt;" class="shp5" d="M457.48 1035.97L499.8 1035.97L499.8 871.98L457.48 871.98L457.48 1035.97Z" />
					<g id="&lt;Group&gt;">
						<path id="&lt;Path&gt;" class="shp9" d="M247.81 1243.36L256.01 1243.36L256.01 1173.6C256.01 1158.69 268.03 1146.55 282.81 1146.55L329.76 1146.55L329.76 1138.28L282.81 1138.28C263.52 1138.28 247.81 1154.13 247.81 1173.6L247.81 1243.36Z" />
					</g>
					<path id="&lt;Path&gt;" class="shp5" d="M303.81 1046.52L192.5 1046.52L192.5 1065.62L303.81 1065.62L303.81 1046.52Z" />
					<g id="&lt;Group&gt;">
						<path id="&lt;Path&gt;" class="shp9" d="M251.91 1179.94L329.76 1179.94L329.76 1171.67L251.91 1171.67L251.91 1179.94Z" />
					</g>
					<g id="&lt;Group&gt;">
						<path id="&lt;Path&gt;" class="shp9" d="M314.4 1110.34L467.02 1110.34L467.02 1097.94L314.4 1097.94L314.4 1110.34Z" />
					</g>
					<path id="&lt;Path&gt;" class="shp5" d="M499.8 1046.23L301.08 1046.23L301.08 1065.62L499.8 1065.62L499.8 1046.23Z" />
					<g id="&lt;Group&gt;">
						<path id="&lt;Path&gt;" class="shp9" d="M493.66 1141.71L505.95 1141.71L505.95 868.57C505.95 859.35 513.69 851.86 523.19 851.86L639.12 851.86L639.12 839.94L523.19 839.94C506.91 839.94 493.66 852.78 493.66 868.57L493.66 1141.71Z" />
					</g>
					<path id="&lt;Path&gt;" class="shp5" d="M268.27 1243.36C268.27 1266.48 288.92 1285.22 314.4 1285.22C339.87 1285.22 360.52 1266.48 360.52 1243.36C360.52 1220.25 339.87 1201.51 314.4 1201.51C288.92 1201.51 268.27 1220.25 268.27 1243.36Z" />
					<path id="&lt;Path&gt;" class="shp9" d="M286.31 1243.36C286.31 1257.44 298.88 1268.85 314.4 1268.85C329.91 1268.85 342.48 1257.44 342.48 1243.36C342.48 1229.29 329.91 1217.88 314.4 1217.88C298.88 1217.88 286.31 1229.29 286.31 1243.36Z" />
					<path id="&lt;Path&gt;" class="shp5" d="M314.65 1265.24L314.65 1265.24C320.59 1265.24 325.41 1260.43 325.41 1254.48L325.41 1225.45L303.9 1225.45L303.9 1254.48C303.9 1260.43 308.71 1265.24 314.65 1265.24Z" />
					<path id="&lt;Path&gt;" class="shp4" d="M201.91 974.3C210.8 965.41 277.21 963.11 401.15 967.39C296.15 993.02 240.59 1007.5 234.46 1010.84C225.26 1015.85 191.04 1184.99 191 1187.2C181.5 1184.94 175.75 1186.65 166.08 1184.67C167.63 1155.28 180.41 995.79 201.91 974.3Z" />
					<path id="&lt;Path&gt;" class="shp2" d="M220.02 1185.37C221.04 1203.31 221.55 1212.29 221.56 1212.33C222.12 1215.75 224.32 1224.19 224.32 1227.29C224.32 1238.95 172.42 1217.39 184.05 1212.22C185.11 1211.75 192.26 1205.57 192.6 1201.6C192.96 1197.52 193.04 1192.24 192.85 1185.75L220.02 1185.37Z" />
					<path id="&lt;Path&gt;" class="shp3" d="M184.18 1212.11C192.3 1214.49 198.45 1215.97 202.61 1216.57C208.85 1217.46 217.07 1209.95 221.49 1211.98C224.73 1213.47 226.44 1221.05 226.63 1234.72C183.14 1236.17 155.08 1235.97 142.44 1234.11C134.88 1233.01 159.27 1220.42 184.18 1212.11Z" />
					<path id="&lt;Path&gt;" class="shp4" d="M430.13 1005.57C429.06 1033.7 423.84 1047.94 414.48 1048.27C400.43 1048.78 310.3 1050.79 259.53 1046.23L225.37 1197.2L185.26 1193.34C193.32 1126.12 198.78 1079.73 201.64 1054.16C205.87 1016.43 218.05 984.78 239.38 984.01C253.6 983.5 307.45 976.01 400.94 961.55L430.13 1005.57Z" />
					<path id="&lt;Path&gt;" class="shp3" d="M467.94 808.57C483.11 812.41 489.67 829.15 487.61 858.79C484.52 903.23 459.94 1037.71 414.48 1048.27C384.17 1055.31 359.15 1026.92 339.41 963.1C358.53 956.82 372.07 938.84 380.03 909.18C388.31 878.36 410.49 808.79 416.04 805.45C425.24 799.91 442.54 800.95 467.94 808.57Z" />
					<path id="&lt;Path&gt;" class="shp9" d="M372.67 1107.49L384.96 1107.49L384.96 1026.9C384.96 1007.93 403.89 986.7 429.24 986.7L499.8 986.7L499.8 974.3L429.24 974.3C399.1 974.3 372.67 998.88 372.67 1026.9L372.67 1107.49Z" />
					<path id="&lt;Path&gt;" class="shp9" d="M400.44 1168.6C400.44 1223.97 444.93 1268.85 499.8 1268.85C554.68 1268.85 599.17 1223.97 599.17 1168.6C599.17 1113.23 554.68 1068.35 499.8 1068.35C444.93 1068.35 400.44 1113.23 400.44 1168.6Z" />
					<path id="&lt;Compound Path&gt;" fill-rule="evenodd" class="shp9" d="M499.8 1046.52C566.63 1046.52 620.8 1101.18 620.8 1168.6C620.8 1236.02 566.63 1290.68 499.8 1290.68C432.98 1290.68 378.81 1236.02 378.81 1168.6C378.81 1101.18 432.98 1046.52 499.8 1046.52ZM499.8 1279.11C560.29 1279.11 609.33 1229.63 609.33 1168.6C609.33 1107.57 560.29 1058.09 499.8 1058.09C439.31 1058.09 390.28 1107.57 390.28 1168.6C390.28 1229.63 439.31 1279.11 499.8 1279.11Z" />
					<path id="&lt;Path&gt;" class="shp5" d="M417.86 1168.6C417.86 1214.26 454.54 1251.28 499.8 1251.28C545.06 1251.28 581.75 1214.26 581.75 1168.6C581.75 1122.93 545.06 1085.92 499.8 1085.92C454.54 1085.92 417.86 1122.93 417.86 1168.6Z" />
					<path id="&lt;Path&gt;" class="shp5" d="M481.37 1168.6C481.37 1178.87 489.62 1187.2 499.8 1187.2C509.99 1187.2 518.24 1178.87 518.24 1168.6C518.24 1158.32 509.99 1150 499.8 1150C489.62 1150 481.37 1158.32 481.37 1168.6Z" />
					<path id="&lt;Path&gt;" class="shp5" d="M134.31 1256.08L259.42 1256.08L259.42 1234.41L134.31 1234.41L134.31 1256.08Z" />
					<path id="&lt;Path&gt;" class="shp9" d="M188.4 1256.08L259.42 1256.08L259.42 1234.41L188.4 1234.41L188.4 1256.08Z" />
					<g id="&lt;Group&gt;">
						<path id="&lt;Path&gt;" class="shp9" d="M310.3 1256.08L318.49 1256.08L318.49 1065.39L310.3 1065.39L310.3 1256.08Z" />
					</g>
					<path id="&lt;Path&gt;" class="shp5" d="M309.53 1245.8C309.53 1248.62 311.8 1250.9 314.59 1250.9C317.38 1250.9 319.65 1248.62 319.65 1245.8C319.65 1242.98 317.38 1240.69 314.59 1240.69C311.8 1240.69 309.53 1242.98 309.53 1245.8Z" />
					<g id="&lt;Group&gt;">
						<path id="&lt;Path&gt;" class="shp7" d="M454.2 689.57C464.83 682.38 472.39 685.08 476.88 697.67C476.83 697.52 482.51 697.57 483.28 697.83C486.56 698.94 489.72 702.36 492.65 704.23C503.06 710.89 507.86 723.84 508.42 735.73C509.11 750.16 503.15 760.72 493.66 771.14C490.86 774.21 487.87 777.2 484.21 779.17C479.79 781.53 476.3 779.66 472.15 780.66C468.65 781.51 467.42 785.2 463.3 783.87C457.52 782 451.45 774.76 444.29 775.83C437.13 776.9 420.6 770.46 420.56 770.45C399.33 762.17 413.66 721.08 417.73 706.49C421.56 692.78 441.06 684.6 454.2 689.57Z" />
						<path id="&lt;Path&gt;" class="shp2" d="M435.02 782.93L429.5 797.98L426.53 806.39C426.39 816.43 427.49 822.75 429.83 825.35C433.86 829.82 444.16 823.77 460.72 807.18L468.59 759.85L435.02 782.93Z" />
						<path id="&lt;Path&gt;" class="shp8" d="M466.04 775.19C456.59 789.84 440.31 796.53 429.45 798.12L435.02 782.93L468.59 759.85L466.04 775.19Z" />
						<path id="&lt;Path&gt;" class="shp2" d="M462.14 711.23C449.48 703.49 432.88 709.36 427.67 723.01C425.41 728.95 422.89 736.48 420.87 744.88C416.02 765.09 422.16 787.15 431.37 789.18C440.59 791.22 468.94 783.71 476.23 755.11C480.72 737.46 475.41 719.35 462.14 711.23Z" />
						<path id="&lt;Path&gt;" class="shp2" d="M468.94 755.89C467.95 760.37 470.11 764.65 473.77 765.46C477.43 766.26 481.2 763.29 482.19 758.82C483.18 754.34 481.01 750.06 477.35 749.25C473.69 748.44 469.92 751.41 468.94 755.89Z" />
						<path id="&lt;Path&gt;" class="shp7" d="M440.49 764.27C448.58 766.92 452.96 769.72 453.62 772.7C454.61 777.16 453.12 783.6 447.18 788.55C441.23 793.51 428.51 790.45 425.04 787.73C421.57 785 418.93 773.44 422.4 767C424.71 762.7 430.74 761.8 440.49 764.27Z" />
						<path id="&lt;Path&gt;" class="shp2" d="M444.45 773.61C444.4 776.92 443.82 778.87 442.72 779.47C441.11 780.34 439.07 781.07 437.18 781.24C434.13 781.53 431.37 780.23 429.76 777.88C429.6 777.64 429.46 777.4 429.34 777.16C428.51 775.5 428.02 773.22 427.85 770.3C431.26 769.48 433.96 769.23 435.94 769.56C437.93 769.89 440.76 771.24 444.45 773.61Z" />
					</g>
				</g>
				<path id="&lt;Path&gt;" class="shp2" d="M575.73 831.55C580.54 826.75 602.84 819.33 619.75 807.11C627.22 801.7 641.6 794.59 655.58 786.85C665.8 792.52 675.04 799.62 681.94 808.13C656.63 819.76 629.17 831.46 624.99 835.62C617.12 843.48 603.42 861.23 600.22 861.23C597.01 861.23 572.67 854.1 569.03 850.46C565.38 846.83 570.92 836.35 575.73 831.55Z" />
				<path id="&lt;Path&gt;" class="shp10" d="M655.58 786.85C673.22 777.1 690.25 766.35 692.04 756.77C695.24 739.6 680.67 665.4 688.83 651.15C694.27 641.64 703.11 632.91 715.35 624.96C718.27 624.96 728.76 631.36 731.68 644.16C734.59 656.97 729.35 772.19 726.43 782.67C725.06 787.59 705.11 807.17 682.71 817.46C675.81 808.96 665.8 792.52 655.58 786.85Z" />
				<path id="&lt;Path&gt;" class="shp2" d="M473.86 942.25L403.52 960.68C389.74 970.62 379.74 976.58 373.54 978.56C364.24 981.51 352.88 991.76 355.11 994.9C357.33 998.05 369.02 987.37 370.92 987.69C372.81 988.02 364.05 1000.66 362.63 1008.95C361.2 1017.24 358.36 1025.28 363.11 1024.63C366.28 1024.2 369.01 1017.76 371.31 1005.32C376.18 995.91 379.01 991.76 379.8 992.87C380.58 993.98 378.96 997.77 374.92 1004.23C373.96 1011.21 373.27 1015.93 372.85 1018.38C372.37 1021.13 374.9 1029.38 377.06 1026.35C378.33 1024.57 377.73 1017.76 379.2 1013.87C381.22 1008.56 383.87 1003.79 387.16 999.58C383.63 1015.5 382.98 1023.65 385.19 1024.02C387.41 1024.4 389.66 1018 391.95 1004.81C397.36 993.83 401.25 987.85 403.61 986.87C407.15 985.4 416.89 979.13 424.42 976.52C431.95 973.9 463.09 982.51 476.98 982.7C490.86 982.88 513.4 974.28 515.27 963.39C515.85 960.06 513.77 956.38 510.61 952.88C501.42 942.7 487.13 938.77 473.86 942.25Z" />
				<path id="&lt;Path&gt;" class="shp6" d="M467.94 808.57C482.12 806.04 495.64 816.33 508.48 839.43C521.32 862.53 523.59 903.85 515.27 963.39L473.86 942.25L467.94 808.57Z" />
				<path id="&lt;Path&gt;" class="shp2" d="M573.58 826.54C567.99 834.5 564.37 838.47 562.7 838.47C560.21 838.47 547.1 839.29 545.04 837.24C542.99 835.19 552.45 819.69 555.84 819.69C559.23 819.69 551.82 829.93 552.72 830.82C553.61 831.71 560.92 814.61 564.66 816.22C568.41 817.82 557.35 829.75 558.6 830.99C559.85 832.24 567.7 817.46 570.73 817.46C573.76 817.46 563.6 830.82 564.66 831.88C565.73 832.95 572.16 825.12 573.58 826.54Z" />
				<path id="&lt;Path&gt;" class="shp2" d="M694.47 589.05C691.48 605.47 690.29 616.91 690.88 623.39C691.78 633.1 687.47 664.41 668.12 664.51C648.78 664.62 661.92 632.01 663.75 622.49C664.96 616.14 666.55 600.72 668.52 576.21L694.47 589.05Z" />
				<path id="&lt;Path&gt;" class="shp8" d="M667.33 590.15C667.53 584.77 668.12 579.95 669.09 575.68L694.47 589.05C693.86 592.41 693.24 596.22 692.63 600.5C681.27 602.93 672.25 597.62 667.33 590.15Z" />
				<path id="&lt;Path&gt;" class="shp2" d="M695.02 517.51C702.29 520.1 707.9 525.35 711.85 533.25C717.78 545.1 719.74 578.28 695.83 591.02C671.92 603.76 656.14 580.26 657.63 559.2C659.11 538.13 665.74 510.54 695.02 517.51Z" />
				<path id="&lt;Path&gt;" class="shp2" d="M650.52 553.33C649.89 558.79 651.82 563.45 654.84 563.73C657.85 564.02 660.8 559.82 661.43 554.36C662.06 548.9 660.13 544.25 657.12 543.96C654.11 543.67 651.15 547.87 650.52 553.33Z" />
				<path id="&lt;Path&gt;" class="shp2" d="M709.74 562.52C707.64 567.81 708.69 573.35 712.08 574.91C715.47 576.47 719.93 573.45 722.03 568.17C724.13 562.88 723.08 557.33 719.69 555.77C716.3 554.21 711.85 557.23 709.74 562.52Z" />
			</g>
			<path id="&lt;Path&gt;" class="shp11" d="M496.19 253.83L489.42 242.98L476.49 244.6L469.77 231.89L456.52 237.88L448.28 223.85L435.41 227.85L425.28 215.65L429.89 211.8L437.47 220.92L451.05 216.7L458.97 230.18L472.44 224.1L479.86 238.12L492.48 236.54L498.75 246.6L506.83 243.82L508.77 249.51L496.19 253.83Z" />
			<path id="&lt;Path&gt;" class="shp3" d="M1742.69 403.83L1728.12 400.46L1724.26 410.84L1709.78 408.02L1704.52 417.48L1693.37 416.76L1693.32 421.24L1708.23 422.21L1713.21 413.24L1728.29 416.17L1732.08 405.96L1745.28 409.01L1742.69 403.83Z" />
			<g id="&lt;Group&gt;">
				<path id="&lt;Path&gt;" class="shp8" d="M881.96 1245.16C874.98 1252.15 871.41 1256.92 871.25 1259.49C871.02 1263.33 870.33 1304.53 874.6 1308.38C878.87 1312.23 891.42 1314.95 887.38 1319.28C884.34 1322.55 860.88 1321.85 845.33 1320.97C840.8 1320.72 835.11 1283.55 833.31 1278.09C830.7 1270.16 821.3 1252.9 823.67 1247.37C824.82 1244.67 833.41 1238.53 841.21 1233.37C846.67 1229.74 852.02 1223.9 857.25 1215.83L881.96 1245.16Z" />
				<path id="&lt;Path&gt;" class="shp2" d="M1021.93 1270.9C1015.69 1289 1012.57 1298.08 1012.56 1298.12C1011.86 1302.43 1009.12 1313.05 1009.12 1316.96C1009.12 1331.65 1073.67 1304.49 1059.2 1297.98C1057.89 1297.39 1053.78 1292.69 1053.35 1287.69C1052.91 1282.55 1054.72 1276.76 1058.79 1270.32L1021.93 1270.9Z" />
				<g id="&lt;Group&gt;">
					<path id="&lt;Path&gt;" class="shp4" d="M1129.7 757.52C1132.94 787.47 1134.56 802.69 1134.56 803.17C1134.56 881.91 1143.64 1035.7 1140.75 1050.51C1136.04 1074.58 1108.01 1152.12 1056.65 1283.13L1016.72 1277.35L1070.2 1045.24L1050.52 956.48L1022.68 781.03L1129.7 757.52Z" />
					<path id="&lt;Path&gt;" class="shp5" d="M979.23 796.82L971.45 842.96L950.38 1032.81L847.26 1225.48C857.6 1241.55 868.31 1250.85 879.41 1253.38L1025.78 1058.65L1105.1 814.88L1102.32 760.72L979.23 796.82Z" />
				</g>
				<path id="&lt;Path&gt;" class="shp12" d="M1133.33 637.88L1076.43 643.84C1074.69 611.92 1073.82 588.35 1073.82 573.12C1073.82 545.41 1076.87 510.13 1080.13 510.9C1089.28 513.05 1100.85 517.83 1108.19 528.17C1125.11 552.04 1133.49 588.61 1133.33 637.88Z" />
				<path id="&lt;Path&gt;" class="shp2" d="M922.89 867.87C914.21 853.46 912.26 855.5 911.19 853.63C910.35 852.14 910.4 839.97 911.33 817.1C913.65 749.66 914.94 714.13 915.19 710.49L959.64 617.11L921.21 580.45C890.71 649.09 874.96 685.36 873.97 689.24C872.49 695.07 883.07 832.54 883.62 844.67C880.65 854.45 878.33 862.44 876.66 868.64C874.16 877.95 875.77 887.99 875.45 890.73C875.4 891.13 874.85 900.32 877.07 911.85C878.35 918.48 879.83 918.36 881.53 911.5C881.28 898.81 881.63 892.54 882.6 892.7C883.71 892.89 883.33 903.3 885.33 914.31C885.85 917.15 886.37 919.94 886.87 922.5C888.17 929.23 892.49 930.36 892.2 923.11C892.1 920.55 891.83 916.29 891.23 913.29C890.58 910.04 890.98 906.84 890.84 904.03C890.54 898.44 890.26 894.37 890.49 894.49C890.78 894.64 891.47 893.5 892.11 896.49C892.88 900.08 892.89 908.08 894.4 913.28C894.98 915.24 895.75 918.32 896.71 922.5C899.29 928.55 900.77 931.56 901.16 931.52C904.32 931.24 903.34 924.28 901.67 920.43C901.77 918.43 901.25 915.24 900.12 910.87C899.73 901.51 900.17 896.81 901.44 896.74C902.25 896.7 903.59 905.27 906.17 913.47C908.57 921.09 912.18 928.39 913.69 928.14C915.4 927.86 915.66 924.8 914.46 918.97C913.41 914.94 912.76 912.23 912.51 910.87C912.22 909.26 911.81 906.03 911.28 901.16C910.2 884.14 910.27 875.65 911.47 875.7C913.28 875.77 917.88 877.88 918.5 879.43C919.13 880.99 918.85 884.44 919.48 885.99C920.1 887.54 922.19 889.03 924.07 888.39C925.33 887.97 925.86 884.86 925.67 879.08C925.49 874.38 924.56 870.64 922.89 867.87Z" />
				<path id="&lt;Path&gt;" class="shp11" d="M1105.38 568.23C1106.17 573.87 1115.92 652.19 1134.62 803.2C1065.55 837.44 1008.49 849.43 963.44 839.16C968.51 715.87 969.69 646.91 966.98 632.28C964.29 617.75 960.94 521.24 970.11 518.53C981.88 515.06 995.37 511.38 1010.08 509.81C1022.63 508.48 1071.4 507.7 1080.13 510.71C1093.62 525.37 1102.03 544.55 1105.38 568.23Z" />
				<path id="&lt;Path&gt;" class="shp13" d="M896.15 615.98L945.45 649.95C963.97 621.66 978.2 602.48 988.15 592.41C1006.83 573.48 981.34 515.51 969.3 518.79C951.35 523.68 926.97 556.08 896.15 615.98Z" />
				<path id="&lt;Path&gt;" class="shp4" d="M841.71 1233.1C857.79 1279.57 868.98 1303.92 875.27 1306.16C877.78 1307.06 889.81 1309.32 892.07 1314.78C892.53 1315.88 892.53 1318.26 892.07 1321.92L841.81 1321.92C837.57 1301.45 834.61 1286.71 832.94 1277.72C824.07 1255.74 820.12 1243.76 821.11 1241.76C822.09 1239.76 828.96 1236.88 841.71 1233.1Z" />
				<path id="&lt;Path&gt;" class="shp5" d="M1005.45 1321.81L1012.84 1297.84C1023.19 1302.34 1030.95 1304.21 1036.13 1303.46C1041.3 1302.71 1048.94 1300.84 1059.04 1297.84C1090.02 1308.31 1115.4 1313.39 1110.79 1321.81L1005.45 1321.81Z" />
				<path id="&lt;Path&gt;" class="shp14" d="M1207.1 827.82C1212.38 832.47 1218.2 834.37 1224.96 832.95C1218.63 837.77 1209.81 834.08 1207.1 827.82Z" />
				<path id="&lt;Path&gt;" class="shp2" d="M1023.85 462.65L1016.23 510.49C1034.83 551.07 1049.69 569.65 1060.81 566.23C1070.14 563.37 1071.93 544.51 1066.19 509.65C1061.11 490.94 1059.33 476.9 1060.85 467.53C1062.38 458.16 1050.04 456.54 1023.85 462.65Z" />
				<path id="&lt;Path&gt;" class="shp8" d="M1060.85 467.53C1062.38 458.16 1050.04 456.54 1023.85 462.65L1023.22 466.77C1024.37 469.52 1025.77 471.88 1027.48 473.68C1036.25 482.98 1049.97 488.56 1061.83 488.99C1060.65 481.41 1059.92 473.29 1060.85 467.53Z" />
				<g id="&lt;Group&gt;">
					<path id="&lt;Path&gt;" class="shp2" d="M1017.41 392.45C1016.3 392.05 1008.51 448.97 1023.29 464.63C1038.07 480.28 1066.88 485.41 1077.21 473.08C1088.64 459.43 1088.06 398.27 1065.08 382.16C1049.75 371.42 1033.86 374.85 1017.41 392.45Z" />
					<path id="&lt;Path&gt;" class="shp7" d="M1022.83 370.52C1014.76 371.46 1003.8 375.85 992.47 394.3C978.55 416.99 988.83 442.13 1005.04 454.46C1015.84 462.68 1021.15 471.5 1020.95 480.92L1023.58 473.67C1025.47 468.09 1026.24 462.17 1025.61 456.32C1025.23 452.8 1024.47 449 1022.99 445.88C1019.09 437.64 1031.36 432.17 1034.8 425.32C1037.45 420.04 1037.58 407.97 1041.75 399.25L1046.74 392.59C1054.4 386.72 1061.99 384.61 1069.49 386.27C1080.74 388.75 1066.92 334.72 1022.83 370.52Z" />
					<path id="&lt;Path&gt;" class="shp2" d="M1034.05 435.45C1034.16 442.39 1030.96 448.07 1026.88 448.14C1022.81 448.21 1019.41 442.64 1019.3 435.69C1019.18 428.75 1022.39 423.07 1026.46 423C1030.53 422.93 1033.93 428.5 1034.05 435.45Z" />
				</g>
			</g>
			<g id="&lt;Group&gt;">
				<g id="&lt;Group&gt;">
					<path id="&lt;Path&gt;" class="shp8" d="M1807.26 889.5C1805.15 887.08 1803.78 885.44 1803.14 884.58C1802.4 883.58 1801.02 881.48 1799.01 878.29C1792.53 866.87 1789.74 860.95 1790.62 860.54C1791.95 859.92 1795.26 861.93 1796.23 862.78C1797.2 863.63 1798.41 864.53 1799.38 865.37C1800.35 866.22 1801.79 866.2 1802.92 865.07C1804.06 863.93 1800.93 859.71 1799.56 858.47C1795.27 854.6 1781.74 846.56 1780.35 845.64C1778.7 844.56 1767.32 811.73 1762.53 800.79C1762.54 800.79 1762.54 800.79 1762.54 800.79C1755.23 782.65 1748.63 763.63 1747.86 761.71L1740.31 678.29L1708.66 669.16C1713.38 730.96 1716.04 763.39 1716.63 766.45C1717.05 768.64 1737.24 809.37 1737.26 809.37C1748.46 828.8 1758.39 845.89 1760.2 849.23C1762.03 856.85 1763.38 863.13 1764.26 868.06C1765.57 875.44 1769.75 881.72 1770.44 883.73C1770.54 884.03 1772.53 891.11 1777.99 898.31C1781.12 902.44 1782.15 901.81 1781.07 896.42C1776.64 887.7 1774.8 883.21 1775.55 882.97C1776.41 882.69 1779.62 890.06 1784.75 896.97C1786.07 898.75 1787.38 900.5 1788.6 902.1C1791.78 906.29 1795.28 905.49 1792.64 900.56C1791.71 898.81 1790.09 895.96 1788.65 894.09C1787.09 892.08 1786.31 889.71 1785.27 887.81C1783.18 884.04 1781.62 881.31 1781.82 881.31C1782.08 881.3 1782.2 880.26 1783.66 882.1C1785.41 884.31 1788.1 889.86 1790.93 892.92C1792 894.07 1793.58 895.93 1795.67 898.48C1799.51 902.24 1801.57 904.03 1801.84 903.86C1804.01 902.51 1801.04 897.27 1798.55 895.21C1797.95 893.79 1796.51 891.76 1794.23 889.14C1790.82 882.79 1789.56 879.36 1790.45 878.85C1791.55 878.22 1808.2 898.61 1810.29 897.1C1811.42 896.27 1810.41 893.74 1807.26 889.5Z" />
				</g>
				<path id="&lt;Path&gt;" class="shp2" d="M1487.05 712.54C1486.7 712.21 1485.55 710.35 1484.4 709.01C1483.35 707.76 1482.27 706.67 1481.18 705.72C1481.2 704.87 1481.05 703.8 1480.72 702.49C1480.5 701.68 1479.82 700.63 1479.59 699.72C1479.36 698.78 1479.46 697.74 1479.22 696.86C1478.59 694.59 1477.5 692.91 1476.2 693.12C1475.49 693.24 1475.77 697.95 1477.03 707.27C1484.02 715.94 1486.99 728.56 1516.35 737.92C1530.66 745.27 1603.29 778.38 1610.17 774.62C1614.03 772.52 1633.03 742.85 1647.05 719.83C1640.27 716.43 1625.89 709.16 1618.02 704.97C1610.39 720.94 1599.58 741.25 1596.97 742.17C1596.29 742.41 1594.78 742.49 1539.65 725.03C1538.27 724.57 1536.84 724.14 1535.39 723.68C1531.52 722.45 1527.36 721.13 1522.98 719.72L1515.37 708.12C1505.38 697.46 1499.61 692.49 1498.05 693.2C1496.99 693.7 1497.69 695.46 1498.85 697.39L1498.89 697.44C1499.06 697.72 1499.23 698.01 1499.41 698.29C1499.42 698.3 1499.43 698.31 1499.44 698.32C1500.73 700.36 1502.3 702.35 1502.52 702.96C1502.77 703.66 1503.23 705.08 1503.35 706.54C1490.42 699.5 1492.63 699.06 1489.99 695.38C1489.34 694.44 1488.33 693.72 1487.72 692.83C1486.68 691.32 1486.6 689.49 1485.77 688.34C1484.54 686.66 1482.73 685.97 1482.2 685.93C1481.52 685.86 1481.54 686.99 1482.04 688.84C1485.16 699.88 1492.02 705.53 1493.26 708.12C1494.09 709.87 1491.38 707.65 1488.44 703.15C1487.7 702.03 1486.22 700.98 1485.43 699.35C1484.88 698.27 1484.8 696.96 1484.29 695.88C1483.82 694.89 1483.11 694.06 1482.68 693.25C1482.1 692.2 1481.76 690.37 1481.25 689.57C1479.35 686.62 1477.8 685.68 1477.29 685.58C1476.58 685.47 1478 690.8 1481.54 701.56C1485.34 707.88 1487.75 711.67 1488.78 712.93C1489.06 713.96 1488.48 713.83 1487.05 712.54Z" />
				<path id="&lt;Path&gt;" class="shp7" d="M1733.15 573.05C1736.41 558.26 1739.59 543.37 1731.01 527.11C1724.07 513.96 1712.07 506.39 1698.17 504.74C1658.81 500.07 1655.34 535.25 1617.95 550.64C1601.97 557.22 1585.59 555.34 1571.31 563.84C1545.54 579.2 1531.85 622.27 1548.94 662.4C1590.8 760.64 1689.49 696.34 1702.18 676.99C1711.62 662.6 1731.06 582.58 1733.15 573.05Z" />
				<g id="&lt;Group&gt;">
					<path id="&lt;Path&gt;" class="shp2" d="M1722.87 637.97C1701.75 644.57 1644.56 663.08 1641.7 662.39L1589.58 620.91L1557.53 649.05C1605.21 684.36 1630.41 702.67 1633.12 703.96C1636.13 705.4 1699.11 672.95 1728.81 658.43C1728.38 648.76 1727.61 646.43 1722.87 637.97Z" />
					<path id="&lt;Path&gt;" class="shp3" d="M1627.52 644.14L1594.86 686.42C1571.92 668.78 1556.21 655.22 1547.75 645.73C1532.35 628.46 1515.51 591.39 1517.99 590.03C1524.97 586.22 1540.02 583.17 1550.4 585.49C1574.34 590.84 1600.05 610.39 1627.52 644.14Z" />
				</g>
				<g id="&lt;Group&gt;">
					<path id="&lt;Path&gt;" class="shp13" d="M1713.77 710.29L1746.81 691.44C1736.81 649.28 1722.89 627.52 1705.05 626.17L1713.77 710.29Z" />
					<path id="&lt;Path&gt;" class="shp2" d="M1575.72 1193.65C1573.85 1212.62 1570.51 1223.85 1565.71 1227.34C1558.5 1232.56 1548.9 1251.9 1553.7 1262.35C1555.2 1265.61 1558.2 1267.5 1561.62 1268.56C1571.75 1271.67 1582.52 1266.42 1586.83 1256.75C1589.24 1251.34 1591.35 1244.13 1591.77 1235.04C1592.49 1219.63 1595.26 1208 1600.06 1200.16L1575.72 1193.65Z" />
					<path id="&lt;Path&gt;" class="shp2" d="M1686.45 1205.3C1687.97 1224.44 1688.11 1237.13 1686.88 1243.35C1685.89 1248.35 1680.4 1258.64 1682.92 1263.34C1684.6 1266.47 1686.4 1268.43 1688.32 1269.22L1753.69 1270.27C1757.25 1270.33 1754.9 1268.04 1752.03 1265.93C1747.33 1262.48 1743.53 1260.2 1728.52 1252.96C1727.54 1252.49 1723.98 1250.22 1722.7 1249.44C1719.44 1247.45 1716.16 1244.33 1713.34 1241.2C1710.21 1237.72 1708.51 1227.55 1708.24 1210.69L1686.45 1205.3Z" />
					<path id="&lt;Path&gt;" class="shp6" d="M1737.54 823.56C1743.03 854.64 1743.97 880.38 1740.37 900.76C1736.77 921.13 1726.32 1025.78 1709.02 1214.68L1680.2 1216.3C1676.17 1137.39 1674.52 1092.45 1675.24 1081.48C1675.96 1070.5 1679.17 1055.83 1684.87 1037.47L1682 941.91L1718.38 816.36L1737.54 823.56Z" />
					<path id="&lt;Path&gt;" class="shp3" d="M1652.82 813.75C1637.69 836.48 1628.32 857.25 1624.72 876.06C1619.31 904.28 1628.68 991 1618.29 1027.98C1612.66 1048 1591.33 1078.91 1588.09 1104.77C1585.92 1122.02 1580.6 1153.23 1572.12 1198.4L1600.94 1204.1L1667.9 1034.88L1720.43 881.94L1733.88 803.17L1652.82 813.75Z" />
					<path id="&lt;Path&gt;" class="shp11" d="M1671.19 619.75C1660.82 621.47 1651.77 626.11 1644.04 633.67C1619.18 658 1658.65 751.84 1660.81 768.3C1662.25 779.27 1656.34 797.56 1643.09 823.16C1692.61 832.31 1724.09 832.44 1737.54 823.56C1739.12 735.51 1739.2 687.57 1737.75 679.73C1735.59 667.97 1711.4 631.68 1707.08 626.98C1704.2 623.84 1692.23 621.44 1671.19 619.75Z" />
					<path id="&lt;Path&gt;" class="shp2" d="M1681.2 579.68C1681.09 580.27 1680.95 581.06 1680.76 582.06C1679.42 589.27 1674.26 613.2 1670.78 619.77C1666.57 627.72 1685.2 653.07 1703.13 649.97C1708.47 649.05 1698.62 626.68 1699.1 624.31C1700 619.78 1701.23 613.59 1702.49 607.25C1703.2 603.67 1703.92 600.04 1704.59 596.63C1705.87 590.17 1707.03 584.29 1708.07 579.01L1681.2 579.68Z" />
					<path id="&lt;Path&gt;" class="shp8" d="M1680.76 582.06C1680.95 581.06 1681.09 580.27 1681.2 579.68L1708.07 579.01C1707.03 584.29 1705.87 590.17 1704.59 596.63C1703.92 600.02 1703.21 603.63 1702.5 607.19C1698.35 606.58 1694.02 604.56 1689.67 600.77C1684.93 596.63 1681.82 591.65 1679.95 586.34C1680.28 584.64 1680.56 583.18 1680.76 582.06Z" />
					<path id="&lt;Path&gt;" class="shp2" d="M1697.36 515.8C1690.06 516.81 1683.76 520.74 1678.46 527.57C1670.52 537.82 1661.96 569.52 1681.69 586.75C1701.42 603.98 1720.91 584.47 1723.8 563.79C1726.69 543.11 1726.1 515.05 1697.36 515.8Z" />
					<path id="&lt;Path&gt;" class="shp2" d="M1730.11 556.72C1727.75 561.29 1723.8 563.82 1721.28 562.37C1718.76 560.93 1718.63 556.05 1720.98 551.48C1723.33 546.91 1727.29 544.38 1729.81 545.83C1732.33 547.28 1732.46 552.16 1730.11 556.72Z" />
					<path id="&lt;Path&gt;" class="shp7" d="M1700.7 515.32C1689.42 535.42 1679.75 545.93 1671.67 546.86C1663.6 547.78 1659.04 553.59 1657.98 564.26C1660.86 539.66 1666.3 524.99 1674.29 520.24C1682.28 515.5 1691.09 513.86 1700.7 515.32Z" />
					<path id="&lt;Path&gt;" class="shp2" d="M1675.63 554.04C1676.62 559.39 1674.64 564.3 1671.21 565C1667.78 565.7 1664.2 561.93 1663.22 556.58C1662.24 551.23 1664.22 546.32 1667.64 545.62C1671.07 544.91 1674.65 548.68 1675.63 554.04Z" />
					<path id="&lt;Path&gt;" class="shp3" d="M1588.79 1251.66C1573.09 1254.51 1562.64 1245.35 1557.2 1238.48C1553.21 1246.26 1550.76 1255.96 1553.7 1262.35C1556.28 1267.97 1563.32 1269.51 1569.28 1269.73C1575.57 1269.97 1581.45 1266.68 1584.57 1261.21C1586.03 1258.66 1587.53 1255.48 1588.79 1251.66Z" />
					<path id="&lt;Path&gt;" class="shp3" d="M1722.69 1249.43C1705.4 1253.86 1692.62 1250.85 1685.47 1247.98C1683.63 1253.19 1681.18 1259.73 1682.48 1263.5C1684.07 1268.12 1686.33 1269.17 1688.32 1269.22C1704.11 1269.63 1746.16 1270.19 1758.2 1270.35C1759.88 1270.37 1760.81 1268.41 1759.73 1267.12C1756.74 1263.57 1723.97 1250.22 1722.69 1249.43Z" />
				</g>
				<path id="&lt;Path&gt;" class="shp13" d="M1608.79 719.73L1655.01 725.29C1666.43 694.97 1671.08 671.85 1668.96 655.92C1665.77 632.02 1656.78 629.59 1651.77 629.76C1637.86 630.23 1624.61 648.76 1615.57 677.72C1609.54 697.03 1607.28 711.04 1608.79 719.73Z" />
				<path id="&lt;Path&gt;" class="shp2" d="M1606.22 1212.9C1605.21 1230.78 1604.7 1239.73 1604.69 1239.77C1604.13 1243.17 1601.94 1251.59 1601.94 1254.68C1601.94 1266.3 1653.66 1244.81 1642.07 1239.66C1641.02 1239.19 1635.53 1235.66 1635.18 1231.71C1634.83 1227.64 1634.2 1221.5 1633.3 1213.28L1606.22 1212.9Z" />
				<path id="&lt;Path&gt;" class="shp5" d="M1641.94 1239.55C1633.85 1241.92 1627.73 1243.4 1623.58 1243.99C1617.36 1244.88 1609.16 1237.4 1604.76 1239.42C1601.53 1240.9 1600.23 1250.39 1600.86 1267.88C1646.02 1271.4 1674.7 1271.2 1686.91 1267.27C1694.17 1264.93 1666.77 1247.83 1641.94 1239.55Z" />
				<path id="&lt;Path&gt;" class="shp2" d="M1492.26 1212.9C1491.24 1230.78 1490.74 1239.73 1490.73 1239.77C1490.17 1243.17 1487.98 1251.59 1487.98 1254.68C1487.98 1266.3 1539.7 1244.81 1528.11 1239.66C1527.06 1239.19 1519.93 1233.03 1519.59 1229.08C1519.23 1225.01 1519.15 1219.74 1519.34 1213.28L1492.26 1212.9Z" />
				<path id="&lt;Path&gt;" class="shp5" d="M1527.98 1239.55C1519.89 1241.92 1513.76 1243.4 1509.62 1243.99C1503.4 1244.88 1495.2 1237.4 1490.8 1239.42C1487.57 1240.9 1485.54 1250.2 1484.71 1267.32C1532.63 1271.75 1562.03 1272.4 1572.89 1269.26C1580.21 1267.14 1552.81 1247.83 1527.98 1239.55Z" />
				<path id="&lt;Path&gt;" class="shp10" d="M1574.23 825.85L1596.1 835.28L1642.1 1054.97L1640.23 1219.66L1603.36 1220.52C1591.92 1124.48 1586.21 1072.73 1586.21 1065.29C1586.21 1057.85 1559.72 992.72 1506.76 869.92L1574.23 825.85Z" />
				<path id="&lt;Path&gt;" class="shp7" d="M1557.35 837.94C1553.27 949.04 1551.24 1014.1 1551.24 1033.12C1551.24 1052.14 1548.33 1115.12 1542.53 1222.06L1491.21 1223.73C1489.43 1191.28 1487.22 1151.19 1484.58 1103.45C1483.96 1092.24 1485.38 1069.61 1484.58 1058C1478.83 974.5 1467.46 895.89 1472.89 864.73C1473.76 859.71 1475.41 846.6 1478.61 843.29C1494.74 826.59 1520.99 824.81 1557.35 837.94Z" />
				<path id="&lt;Path&gt;" class="shp3" d="M1496.47 584.81C1479.46 587.18 1468.72 590 1464.25 593.29C1459.2 596.99 1453.89 602.98 1448.29 611.26C1469.17 709.95 1479.63 767.6 1479.67 784.21C1479.69 797.05 1477.43 819.25 1472.88 850.8C1535.98 854.78 1579.47 852.06 1603.36 842.62C1595.82 805.1 1592.04 781.42 1592.04 771.57C1592.04 756.79 1578.51 622.41 1575.43 613.03C1572.63 604.51 1567.52 589.21 1550.23 585.44C1538.7 582.92 1520.78 582.72 1496.47 584.81Z" />
				<path id="&lt;Path&gt;" class="shp4" d="M1561.51 735.39L1562.12 738.92C1562.44 740.73 1564.16 741.95 1565.98 741.64L1639.13 728.97C1640.95 728.65 1642.16 726.93 1641.85 725.11L1641.24 721.58C1640.92 719.77 1639.2 718.55 1637.38 718.86L1564.23 731.53C1562.41 731.85 1561.2 733.57 1561.51 735.39Z" />
				<path id="&lt;Path&gt;" class="shp2" d="M1457.81 603.87C1466.4 603.62 1473.99 660.23 1468.55 665.82C1464.92 669.54 1462.76 694.64 1462.07 741.12L1543.03 739.11L1543.04 739.14C1544.62 738.08 1561.58 726.69 1564.01 724.2C1566.55 721.59 1578.91 722.89 1582.18 726.48C1585.45 730.08 1574.91 727.14 1572 729.1C1570.07 730.4 1570.79 732.69 1574.19 735.95C1587.86 737.94 1596.04 737.51 1598.7 734.68C1602.7 730.44 1613.39 723.26 1614.84 727.5C1615.59 729.69 1610.08 736.33 1606.98 739.11C1610.85 736.21 1615.49 733.13 1617.08 733.67C1619.99 734.65 1618.78 738.35 1617.2 739.43C1615.63 740.52 1599.34 752.96 1596.79 753.83C1594.31 754.68 1556.42 755.62 1549.88 757.07C1478.7 773.27 1441.09 780.87 1437.04 779.86C1431.72 778.53 1426.39 744.36 1426.39 718.18C1426.39 692 1431 604.65 1457.81 603.87Z" />
				<path id="&lt;Path&gt;" class="shp3" d="M1468.95 590.96C1458.99 593.25 1448.87 600.18 1438.58 611.73C1429.23 622.24 1421.61 656.93 1415.71 715.79L1464.16 723.62L1468.03 680.91L1480.97 661.38L1468.95 590.96Z" />
				<path id="&lt;Path&gt;" class="shp2" d="M1702.54 624.7C1704.8 622.25 1708.03 621.17 1712.23 621.47C1718.54 621.91 1726.8 629.9 1727.96 632.76C1728.55 634.23 1724.59 645.86 1722.86 648.42C1721.85 649.93 1719.51 650.68 1718.69 649.89C1718.15 649.36 1718.71 646.72 1718.86 646.15C1719.06 645.41 1719.85 642.64 1721.25 637.85C1718.53 642.68 1716.54 645.24 1715.28 645.54C1713.38 645.97 1712.33 644.44 1712.44 643.83C1712.82 641.79 1714.07 638.8 1716.19 634.87C1713 639.54 1710.63 641.63 1709.07 641.14C1706.72 640.41 1707.7 637.91 1708.05 637.07C1708.28 636.5 1709.48 634.61 1711.66 631.39C1708.21 636.16 1706.15 637.7 1705.47 635.99C1705.06 634.94 1705.98 632.16 1708.24 627.63L1702.54 624.7Z" />
				<path id="&lt;Path&gt;" class="shp2" d="M1491.32 549.09L1495.29 589.12C1508.2 606.19 1518.7 612.84 1526.77 609.06C1533.55 605.89 1535.34 599.01 1532.14 588.43C1530.97 583.7 1529.57 578.63 1527.94 573.19C1526.24 567.5 1524.82 561.34 1524.92 556.81C1525.09 549.48 1513.89 546.9 1491.32 549.09Z" />
				<path id="&lt;Path&gt;" class="shp8" d="M1527.88 572.98C1526.2 567.35 1524.82 561.28 1524.92 556.81C1525.09 549.48 1513.89 546.9 1491.32 549.09L1491.81 554.04C1492.01 554.59 1492.24 555.11 1492.5 555.61C1499.63 569.44 1516.61 576.73 1527.88 572.98Z" />
				<g id="&lt;Group&gt;">
					<path id="&lt;Path&gt;" class="shp4" d="M1550.22 488.04C1552.86 503.13 1552.31 515.72 1548.58 525.82C1544.85 535.91 1540.47 543.86 1535.44 549.66L1517.66 488.68L1550.22 488.04Z" />
					<path id="&lt;Path&gt;" class="shp8" d="M1553.77 524.49C1552.03 529.89 1548.07 533.45 1544.94 532.44C1541.8 531.43 1540.66 526.23 1542.4 520.83C1544.14 515.43 1548.09 511.88 1551.23 512.89C1554.37 513.9 1555.5 519.09 1553.77 524.49Z" />
					<path id="&lt;Path&gt;" class="shp2" d="M1502.45 490.54C1501.67 489.98 1482.94 532.98 1490.96 548.54C1498.98 564.11 1519.49 571.38 1530.28 563.97C1542.21 555.77 1556.16 510.69 1541.85 492.97C1532.31 481.15 1519.18 480.34 1502.45 490.54Z" />
					<path id="&lt;Path&gt;" class="shp4" d="M1510.96 462.51C1497.8 466.68 1490.53 470.76 1477.61 482.76C1461.72 497.51 1469.14 523.26 1479.01 536.53C1485.59 545.37 1490.12 553.78 1492.59 561.73C1491.71 551.69 1491.25 545.58 1491.2 543.42C1491.13 540.53 1491.12 530.75 1490.67 527.97C1489.46 520.64 1489.28 519.09 1493.48 514.46C1496.72 510.9 1499.12 500.98 1504.32 495.04L1523.7 498.98C1531.87 500.44 1538.76 499.84 1544.37 497.17C1568.57 485.67 1545.85 451.08 1510.96 462.51Z" />
					<path id="&lt;Path&gt;" class="shp2" d="M1495.63 521.24C1495.75 526.91 1493.17 531.56 1489.88 531.63C1486.58 531.7 1483.82 527.16 1483.7 521.48C1483.58 515.81 1486.16 511.16 1489.46 511.1C1492.75 511.03 1495.52 515.57 1495.63 521.24Z" />
				</g>
			</g>
			<g id="&lt;Group&gt;">
				<path id="&lt;Path&gt;" class="shp8" d="M1451.67 650.13L1455.79 631.39C1464.78 637.09 1471.89 644.02 1477.14 652.17C1485 664.39 1488.75 696.99 1491 698.21C1493.25 699.43 1518.13 661.09 1522.49 655.04C1527.87 647.57 1529.88 638.99 1533.25 632.47C1536.62 625.95 1548.49 623.73 1552.99 624.54C1555.98 625.09 1553.92 631.71 1546.81 644.43C1528.83 675.66 1516.84 699.84 1510.85 716.95C1501.86 742.63 1473.77 754.85 1469.27 751.18C1466.27 748.74 1460.41 715.05 1451.67 650.13Z" />
				<path id="&lt;Path&gt;" class="shp2" d="M1533.55 636.05C1534.3 632.77 1535.68 630.78 1537.7 630.11C1540.73 629.1 1546 630 1546.33 630.11C1546.56 630.19 1548.61 629.18 1552.5 627.08L1547.68 636.05C1541.4 643.46 1537.21 645.77 1535.12 643.01C1533.03 640.24 1532.5 637.92 1533.55 636.05Z" />
				<path id="&lt;Path&gt;" class="shp8" d="M1554.18 627.49C1556.45 639.03 1557.3 646.01 1556.72 648.43C1555.86 652.06 1553.69 650.11 1553.28 649.32C1552.17 647.15 1551.22 642.37 1550.44 634.97L1554.18 627.49Z" />
				<path id="&lt;Path&gt;" class="shp8" d="M1546.86 641.89C1547.94 649.04 1549.03 653.04 1550.15 653.88C1551.23 654.71 1552.61 654.22 1553.06 652.05C1553.36 650.61 1552.64 645.47 1550.89 636.65L1546.86 641.89Z" />
				<path id="&lt;Path&gt;" class="shp4" d="M1536.94 672.34L1531.3 669.59L1555.28 620.4C1558.39 621.92 1559.69 625.68 1558.17 628.8L1536.94 672.34Z" />
				<path id="&lt;Path&gt;" class="shp4" d="M1476.69 573.05C1480.08 557.67 1483.39 542.19 1474.47 525.29C1467.25 511.62 1454.77 503.75 1440.33 502.03C1399.4 497.18 1408.15 535.38 1350.95 543.66C1333.17 546.23 1316.66 548.7 1301.82 557.54C1275.02 573.5 1264.91 599.1 1282.68 640.82C1326.19 742.96 1433 656.25 1446.2 636.13C1456.01 621.17 1474.52 582.96 1476.69 573.05Z" />
				<path id="&lt;Path&gt;" class="shp2" d="M1313.02 1218.25C1311.08 1237.98 1307.61 1249.65 1302.61 1253.28C1295.12 1258.71 1285.13 1278.81 1290.13 1289.68C1291.69 1293.07 1294.81 1295.03 1298.36 1296.13C1308.89 1299.37 1320.09 1293.91 1324.57 1283.85C1327.07 1278.23 1329.27 1270.74 1329.71 1261.29C1330.46 1245.26 1333.33 1233.17 1338.33 1225.02L1313.02 1218.25Z" />
				<path id="&lt;Path&gt;" class="shp2" d="M1428.14 1230.36C1429.72 1250.27 1429.87 1263.45 1428.59 1269.92C1427.56 1275.12 1421.85 1285.82 1424.47 1290.7C1426.22 1293.96 1428.09 1296 1430.09 1296.82L1498.04 1297.91C1501.75 1297.97 1499.3 1295.59 1496.31 1293.4C1491.43 1289.82 1487.49 1287.45 1471.88 1279.91C1470.86 1279.42 1467.16 1277.07 1465.82 1276.26C1462.43 1274.19 1459.03 1270.94 1456.1 1267.68C1452.85 1264.07 1451.08 1253.5 1450.79 1235.97L1428.14 1230.36Z" />
				<path id="&lt;Path&gt;" class="shp4" d="M1481.26 833.49C1486.96 865.81 1487.94 892.56 1484.2 913.75C1480.45 934.94 1469.59 1043.72 1451.61 1240.11L1421.64 1241.8C1417.45 1159.76 1415.73 1113.04 1416.48 1101.63C1417.23 1090.23 1420.57 1074.97 1426.5 1055.88L1423.52 956.53L1461.34 826.01L1481.26 833.49Z" />
				<path id="&lt;Path&gt;" class="shp5" d="M1393.18 823.3C1377.44 846.93 1367.71 868.52 1363.96 888.08C1358.34 917.42 1368.08 1007.57 1357.28 1046.02C1351.42 1066.83 1329.25 1098.96 1325.88 1125.85C1323.63 1143.78 1318.1 1176.23 1309.28 1223.19L1339.24 1229.11L1408.86 1053.19L1463.47 894.19L1477.45 812.29L1393.18 823.3Z" />
				<path id="&lt;Path&gt;" class="shp7" d="M1412.28 621.61C1398.5 623.17 1387.49 628.44 1379.25 637.4C1366.89 650.85 1399.23 758.93 1401.48 776.04C1402.98 787.45 1396.84 806.46 1383.06 833.07C1434.54 842.59 1467.27 842.73 1481.26 833.49C1482.76 751.45 1482.76 706.36 1481.26 698.21C1479.01 685.99 1460.28 636.28 1455.79 631.39C1452.79 628.13 1438.29 624.87 1412.28 621.61Z" />
				<path id="&lt;Path&gt;" class="shp2" d="M1383.06 647.55C1385.05 641.52 1391.88 638.62 1397.7 641.14C1405.68 644.59 1416.69 651.14 1422.07 662.35C1431.06 681.1 1462.53 745.48 1472.27 747.92C1478.76 749.55 1495.24 727.28 1521.71 681.1C1520.97 672.95 1521.72 666.56 1523.96 661.95C1527.33 655.02 1537.45 647.69 1538.94 650.13C1540.44 652.58 1533.33 658.69 1533.33 659.91C1533.33 661.13 1536.32 661.95 1540.44 659.5C1543.19 657.87 1545.31 655.41 1546.8 652.11C1551.3 660.3 1551.18 668.06 1546.44 675.39C1541.69 682.73 1538.32 687.89 1536.32 690.88C1505.61 759.06 1484.63 793.56 1473.39 794.37C1457.69 795.51 1367.28 695.23 1383.06 647.55Z" />
				<path id="&lt;Path&gt;" class="shp2" d="M1422.68 579.94C1422.57 580.56 1422.42 581.38 1422.23 582.42C1420.84 589.92 1415.47 614.79 1411.85 621.63C1407.47 629.89 1426.84 656.24 1445.49 653.02C1451.04 652.07 1440.8 628.81 1441.29 626.35C1442.23 621.63 1443.51 615.2 1444.82 608.6C1445.55 604.88 1446.3 601.11 1447 597.57C1448.33 590.85 1449.54 584.74 1450.62 579.25L1422.68 579.94Z" />
				<path id="&lt;Path&gt;" class="shp8" d="M1422.23 582.42C1422.42 581.38 1422.57 580.56 1422.68 579.94L1450.62 579.25C1449.54 584.74 1448.33 590.85 1447 597.57C1446.3 601.09 1445.56 604.84 1444.83 608.54C1440.51 607.91 1436.01 605.82 1431.49 601.87C1426.56 597.56 1423.33 592.39 1421.38 586.87C1421.73 585.11 1422.01 583.59 1422.23 582.42Z" />
				<path id="&lt;Path&gt;" class="shp2" d="M1439.49 513.53C1431.89 514.59 1425.34 518.67 1419.84 525.77C1411.58 536.43 1402.69 569.38 1423.19 587.29C1443.7 605.21 1463.96 584.93 1466.97 563.43C1469.97 541.93 1469.36 512.76 1439.49 513.53Z" />
				<path id="&lt;Path&gt;" class="shp2" d="M1473.53 556.08C1471.08 560.83 1466.97 563.46 1464.35 561.95C1461.73 560.45 1461.59 555.38 1464.04 550.63C1466.49 545.88 1470.6 543.25 1473.22 544.76C1475.84 546.26 1475.98 551.33 1473.53 556.08Z" />
				<path id="&lt;Path&gt;" class="shp4" d="M1442.96 513.04C1431.23 533.93 1421.17 544.85 1412.78 545.82C1404.39 546.78 1399.64 552.82 1398.54 563.92C1401.54 538.34 1407.19 523.08 1415.5 518.15C1423.81 513.22 1432.96 511.51 1442.96 513.04Z" />
				<path id="&lt;Path&gt;" class="shp2" d="M1416.89 553.29C1417.92 558.85 1415.86 563.95 1412.3 564.68C1408.73 565.41 1405.01 561.5 1403.99 555.93C1402.97 550.37 1405.03 545.26 1408.59 544.53C1412.15 543.8 1415.87 547.72 1416.89 553.29Z" />
				<path id="&lt;Path&gt;" class="shp5" d="M1326.61 1278.56C1310.28 1281.53 1299.42 1272 1293.77 1264.86C1289.62 1272.95 1287.08 1283.04 1290.13 1289.68C1292.82 1295.52 1300.14 1297.12 1306.32 1297.35C1312.86 1297.6 1318.98 1294.18 1322.22 1288.49C1323.74 1285.84 1325.3 1282.53 1326.61 1278.56Z" />
				<path id="&lt;Path&gt;" class="shp5" d="M1465.81 1276.25C1447.84 1280.85 1434.56 1277.72 1427.12 1274.73C1425.21 1280.15 1422.67 1286.95 1424.01 1290.88C1425.66 1295.68 1428.01 1296.76 1430.09 1296.82C1446.5 1297.25 1490.22 1297.83 1502.74 1298C1504.49 1298.02 1505.45 1295.98 1504.33 1294.64C1501.22 1290.94 1467.15 1277.07 1465.81 1276.25Z" />
			</g>
			<g id="&lt;Group&gt;">
				<g id="&lt;Group&gt;">
					<path id="&lt;Path&gt;" class="shp2" d="M1231 1287.91C1230 1280.74 1232.25 1268.41 1237.86 1249.12C1226.75 1249.15 1217.4 1244.23 1206.05 1244.4C1203.98 1256.49 1201.34 1272.47 1198.14 1292.32L1197.63 1315.87L1276.7 1316.46C1276.27 1316.69 1268.28 1311.89 1252.73 1302.07C1251.01 1300.98 1231.97 1294.83 1231 1287.91Z" />
					<path id="&lt;Path&gt;" class="shp5" d="M1197.25 1321.92L1278.88 1321.92C1281.9 1321.65 1282.64 1319.18 1281.59 1317.67C1279.43 1314.54 1263.51 1307.03 1252.81 1302.05C1234.03 1304.03 1201.03 1296.3 1198.07 1291.95C1192.92 1306.36 1195.57 1321.55 1197.25 1321.92Z" />
				</g>
				<g id="&lt;Group&gt;">
					<path id="&lt;Path&gt;" class="shp2" d="M1132.49 1287.91C1131.49 1280.74 1129.79 1271.76 1132.29 1247.86C1121.17 1247.89 1110.6 1245.8 1099.24 1245.98C1099.24 1258.41 1099.37 1273.86 1099.63 1292.32L1099.12 1315.87L1178.2 1316.46C1177.76 1316.69 1169.77 1311.89 1154.22 1302.07C1152.5 1300.98 1133.46 1294.83 1132.49 1287.91Z" />
					<path id="&lt;Path&gt;" class="shp5" d="M1098.74 1321.92L1180.37 1321.92C1183.39 1321.65 1184.13 1319.18 1183.08 1317.67C1180.93 1314.54 1165 1307.03 1154.3 1302.05C1135.52 1304.03 1102.52 1296.3 1099.56 1291.95C1094.41 1306.36 1097.06 1321.55 1098.74 1321.92Z" />
				</g>
				<path id="&lt;Path&gt;" class="shp2" d="M1189.96 605.04L1219.71 573.66C1240.93 585.33 1263.92 596.75 1288.66 607.9C1298.86 590.14 1315.52 531.72 1316.41 528.94C1317.31 526.14 1296.91 491.05 1301.47 490.17C1306.04 489.29 1311.96 508.91 1316.79 506.92C1321.61 504.93 1334.02 459.42 1336.92 461.9C1342.35 466.55 1330.39 490.21 1333.26 491.94C1336.12 493.66 1343.38 465.71 1348.91 466.9C1354.45 468.09 1339.58 492.35 1341.21 494.68C1342.84 497.01 1358.38 474.25 1361.59 479.52C1363.33 482.39 1347.25 499.34 1350.56 501.24C1353.87 503.13 1368.36 492.45 1370.09 495.91C1371.82 499.37 1356.57 502.98 1352.33 511.73C1348.1 520.48 1340.4 523.89 1337.85 540.44C1335.3 556.98 1328.31 645.45 1310.28 652.55C1299.78 656.68 1259.67 640.85 1189.96 605.04Z" />
				<path id="&lt;Path&gt;" class="shp6" d="M1209.18 774.31L1185.06 787.76L1136.03 862.73L1223.71 1069.12C1217.13 1089.81 1212.77 1105.32 1210.62 1115.66C1208.38 1126.47 1204.5 1178.3 1199 1271.13L1236.41 1271.76C1260.09 1172.93 1273.94 1107.48 1277.95 1075.4C1282.83 1036.45 1270.43 970.59 1240.77 877.82C1235.24 858.89 1226.51 829.96 1214.58 791.03C1211.67 781.54 1209.87 775.96 1209.18 774.31Z" />
				<path id="&lt;Path&gt;" class="shp3" d="M1125.22 746.15C1126.88 757.9 1124.39 770.49 1117.74 783.9C1111.66 796.16 1101.15 805.77 1093.63 820.8C1079.4 849.22 1071.67 889.61 1077.01 915.56C1096.63 990.49 1106.05 1041.64 1105.27 1069.03C1104.84 1084.18 1099.64 1111.47 1096.32 1129.91C1094.36 1140.79 1093.05 1187.23 1092.38 1269.25L1134.16 1267.99L1166.15 1069.53L1179.67 893.13L1209.18 774.31L1125.22 746.15Z" />
				<path id="&lt;Path&gt;" class="shp4" d="M1213.69 487.17C1209.99 469.73 1206.18 452.22 1188.85 439.66C1174.82 429.49 1159.75 426.58 1143.77 432.38C1098.5 448.8 1122.85 484.73 1066.66 523.03C1049.2 534.93 1042.58 539.07 1030.05 554.93C1012.51 577.13 1002.93 606.91 1011.74 631.43C1029.97 682.13 1086.46 696.78 1116.01 686.03C1171.02 666.02 1216.84 596.26 1219.88 577.22C1223.14 556.85 1216.07 498.4 1213.69 487.17Z" />
				<path id="&lt;Path&gt;" class="shp7" d="M1222.47 624.76C1231.35 628.86 1243.82 633.99 1259.89 640.15L1273.61 596.77C1196.08 552.67 1202.16 559.79 1143.98 560.65C1097.5 561.31 1078.02 552.44 1037.99 660.5C1058.3 669.62 1072.1 675.65 1079.37 678.58C1084.06 665.22 1092.54 638.58 1097.49 653.77C1104.96 676.71 1110.43 699.88 1114.1 723.72C1116.43 737.86 1121.5 755.95 1118.83 770.36C1139.94 774.7 1158.55 777.23 1174.67 777.93C1174.74 777.94 1174.81 777.94 1174.88 777.93C1186.56 777.63 1198.53 776.6 1209.18 774.31C1212.34 707.48 1214.77 672.67 1216.45 669.88C1219.26 665.25 1231.11 650.29 1221.03 627.91C1219.25 623.95 1219.73 623.49 1222.47 624.76Z" />
				<path id="&lt;Path&gt;" class="shp2" d="M1164.28 798.74C1164.82 798.82 1167.29 798.49 1169.31 798.54C1171.18 798.58 1172.92 798.74 1174.55 799.02C1175.28 798.39 1176.35 797.75 1177.74 797.1C1178.61 796.7 1180.04 796.55 1181.01 796.1C1182.01 795.63 1182.86 794.78 1183.8 794.35C1186.27 793.28 1188.54 793.03 1189.29 794.33C1189.71 795.04 1185.33 798.2 1176.17 803.81C1163.45 803.88 1150.14 810.37 1120.66 791.14C1103.82 783.78 1022.07 743.4 1020.43 734.6C1019.51 729.66 1032.05 691.43 1042.3 662.4C1050.21 665.95 1067.01 673.43 1076.42 677.37C1067.79 695.65 1057.61 719.89 1058.68 722.85C1058.96 723.63 1059.98 725.02 1115.25 761.21C1116.64 762.11 1118.06 763.06 1119.51 764C1123.4 766.55 1127.57 769.27 1131.98 772.13L1147.74 770.49C1164.38 771.64 1172.95 773.16 1173.45 775.05C1173.78 776.35 1171.71 777 1169.16 777.37L1169.09 777.37C1168.71 777.42 1168.34 777.47 1167.97 777.52C1167.95 777.52 1167.93 777.52 1167.92 777.52C1165.17 777.85 1162.28 777.9 1161.58 778.14C1160.78 778.42 1159.19 779.04 1157.82 779.99C1173.38 786.35 1172.18 784.08 1177.34 783.76C1178.64 783.66 1180.01 784.03 1181.23 783.93C1183.33 783.76 1185 782.51 1186.62 782.41C1188.99 782.28 1190.91 783.38 1191.33 783.83C1191.88 784.38 1190.86 785.18 1188.86 786.08C1176.85 791.29 1166.89 789.29 1163.7 790.07C1161.56 790.59 1165.47 791.39 1171.58 790.74C1173.1 790.59 1175.1 791.14 1177.12 790.66C1178.47 790.36 1179.69 789.49 1181.01 789.17C1182.23 788.87 1183.48 788.89 1184.5 788.69C1185.85 788.44 1187.72 787.42 1188.79 787.3C1192.78 786.85 1194.73 787.55 1195.18 787.92C1195.79 788.47 1190.05 791.06 1177.97 795.7C1169.64 796.9 1164.54 797.5 1162.68 797.5C1161.57 798 1162.1 798.41 1164.28 798.74Z" />
				<path id="&lt;Path&gt;" class="shp2" d="M1149.7 517.88C1147.34 536.96 1145.46 549.81 1144.07 556.44C1141.88 566.83 1138.59 599.58 1160.16 604.9C1181.72 610.21 1175.05 569.27 1175.41 558.69C1175.65 551.65 1177.8 535.83 1181.88 511.26L1149.7 517.88Z" />
				<path id="&lt;Path&gt;" class="shp8" d="M1148.53 527.01C1148.75 527.14 1148.95 527.28 1149.18 527.41C1161.1 534.24 1171.47 533.16 1179.25 527.85C1180.18 521.75 1181.05 516.22 1181.88 511.26L1149.7 517.88C1149.39 520.42 1149 523.46 1148.53 527.01Z" />
				<path id="&lt;Path&gt;" class="shp2" d="M1156.19 443.34C1147.76 445.71 1141.12 451.07 1136.27 459.44C1128.98 471.99 1125.35 508.02 1152.16 523.4C1178.98 538.77 1198.02 514.14 1197.21 491.09C1196.4 468.04 1189.98 437.56 1156.19 443.34Z" />
				<path id="&lt;Path&gt;" class="shp2" d="M1203.13 481.2C1203.43 487.19 1200.87 492.19 1197.41 492.36C1193.95 492.54 1190.9 487.82 1190.61 481.83C1190.31 475.84 1192.87 470.84 1196.33 470.67C1199.79 470.49 1202.84 475.21 1203.13 481.2Z" />
				<path id="&lt;Path&gt;" class="shp4" d="M1159.98 442.39C1150.34 467.52 1140.81 481.42 1131.38 484.1C1121.94 486.77 1117.6 494.29 1118.36 506.65C1117.15 478.08 1120.85 460.3 1129.47 453.3C1138.09 446.29 1148.26 442.66 1159.98 442.39Z" />
				<path id="&lt;Path&gt;" class="shp2" d="M1137.45 491.47C1139.63 497.36 1138.2 503.34 1134.25 504.83C1130.3 506.32 1125.33 502.75 1123.15 496.86C1120.97 490.97 1122.4 484.99 1126.35 483.5C1130.29 482.01 1135.26 485.58 1137.45 491.47Z" />
			</g>
			<g id="&lt;Group&gt;">
				<g id="&lt;Group&gt;">
					<g id="&lt;Group&gt;">
						<path id="&lt;Path&gt;" class="shp2" d="M798.95 556.69C769.75 504.57 751.6 472.98 744.49 461.9C733.84 445.28 706.08 379.25 705.09 376.65C704.1 374.05 724.2 342.8 719.72 341.73C715.23 340.66 710.26 358.2 705.47 356.11C700.68 354.01 686.69 311.77 683.97 313.87C678.86 317.79 691.51 340.07 688.78 341.47C686.06 342.88 677.82 316.96 672.47 317.72C667.12 318.48 682.64 341.48 681.14 343.51C679.65 345.54 663.54 323.87 660.63 328.49C659.05 331 675.44 347.4 672.29 348.94C669.14 350.47 654.56 339.89 653.02 342.94C651.47 345.99 666.5 350.17 670.99 358.41C675.49 366.64 683.14 370.2 686.32 385.44C689.5 400.68 694.24 455.84 710.52 483.36C721.38 501.71 738.73 531.18 762.6 571.79L798.95 556.69Z" />
						<g id="&lt;Group&gt;">
							<path id="&lt;Path&gt;" class="shp2" d="M993.07 933.93C990.7 930.96 989.15 928.96 988.44 927.91C987.6 926.68 986.07 924.13 983.85 920.26C976.74 906.42 973.71 899.28 974.78 898.83C976.38 898.17 980.2 900.71 981.31 901.76C982.41 902.81 983.81 903.93 984.92 904.98C986.03 906.03 987.72 906.08 989.13 904.79C990.53 903.51 987.02 898.36 985.46 896.82C980.57 892.03 964.95 881.85 963.34 880.7C961.44 879.35 949.57 839.92 944.43 826.74C944.43 826.73 944.43 826.73 944.44 826.73C936.66 804.9 929.77 782.07 928.96 779.75L924.07 680.63L887.04 668.29C889.63 741.68 891.2 780.2 891.75 783.85C892.14 786.46 914.07 835.67 914.09 835.66C926.41 859.21 937.33 879.93 939.32 883.97C941.11 893.09 942.4 900.58 943.2 906.46C944.4 915.27 949.04 922.89 949.76 925.32C949.86 925.67 951.88 934.15 957.99 942.93C961.5 947.98 962.75 947.29 961.73 940.85C956.91 930.31 954.95 924.91 955.84 924.66C956.88 924.37 960.32 933.25 966.06 941.69C967.54 943.86 969 945.99 970.36 947.94C973.94 953.06 978.11 952.28 975.22 946.31C974.21 944.2 972.43 940.75 970.81 938.46C969.07 936 968.26 933.16 967.11 930.86C964.83 926.29 963.11 922.99 963.35 923C963.66 923.01 963.85 921.77 965.49 924.02C967.46 926.73 970.37 933.43 973.57 937.18C974.78 938.6 976.57 940.87 978.92 944C983.28 948.63 985.63 950.86 985.95 950.67C988.6 949.17 985.33 942.83 982.48 940.27C981.84 938.55 980.23 936.09 977.66 932.87C973.94 925.19 972.61 921.06 973.69 920.5C975.02 919.81 993.75 944.77 996.29 943.07C997.67 942.15 996.6 939.1 993.07 933.93Z" />
						</g>
						<path id="&lt;Path&gt;" class="shp4" d="M926.84 547.77C927.74 526.15 924.56 504.79 914.88 484.66C906.56 467.35 885.96 457.52 867.18 457.49C807.55 457.42 799.97 536.21 762.01 566.6C750.41 575.89 737.44 583.45 726.46 593.47C685.94 630.45 704.19 698.9 741.41 731.32C767.23 753.82 807.82 766.61 839.65 749.02C856.26 739.84 868.88 724.58 877.86 707.86C890.61 684.12 898.83 656.74 907.91 631.45C917.56 604.53 925.65 576.51 926.84 547.77Z" />
						<path id="&lt;Path&gt;" class="shp2" d="M740.43 1243.86C737.63 1263.25 733.82 1276.07 729 1282.33C726.57 1285.48 722.14 1289.46 719.23 1295.16C714.7 1304.02 717.21 1317.21 720.55 1324.48C722.26 1328.21 720.43 1328.2 724.33 1329.4C735.89 1332.96 748.19 1326.96 753.11 1315.91C755.86 1309.74 758.28 1301.51 758.76 1291.13C759.58 1273.53 762.74 1260.25 768.22 1251.3L740.43 1243.86Z" />
						<path id="&lt;Path&gt;" class="shp2" d="M866.88 1257.16C868.61 1279.02 868.77 1293.51 867.37 1300.61C866.24 1306.32 859.96 1318.07 862.84 1323.44C864.76 1327.02 866.82 1329.26 869.02 1330.15L943.66 1331.35C947.73 1331.42 945.04 1328.81 941.76 1326.4C936.4 1322.47 932.07 1319.86 914.92 1311.59C913.81 1311.05 909.74 1308.46 908.27 1307.57C904.55 1305.3 900.81 1301.73 897.59 1298.16C894.02 1294.19 892.07 1282.57 891.76 1263.32L866.88 1257.16Z" />
						<path id="&lt;Path&gt;" class="shp6" d="M925.22 821.23C931.49 856.73 932.57 886.12 928.45 909.39C924.34 932.66 912.41 1052.16 892.66 1267.87L859.74 1269.72C855.14 1179.62 853.25 1128.3 854.07 1115.77C854.89 1103.23 858.56 1086.48 865.08 1065.51L861.8 956.38L903.34 813.02L925.22 821.23Z" />
						<path id="&lt;Path&gt;" class="shp3" d="M828.47 810.04C811.19 835.99 800.5 859.71 796.38 881.19C790.21 913.42 800.91 1012.45 789.04 1054.67C782.61 1077.53 758.25 1112.83 754.55 1142.37C752.08 1162.06 746.01 1197.7 736.32 1249.28L769.23 1255.79L845.7 1062.56L905.68 887.9L921.05 797.95L828.47 810.04Z" />
						<path id="&lt;Path&gt;" class="shp0" d="M849.46 588.5C826.58 587.05 810.61 591.24 801.56 601.09C787.98 615.86 831.68 732.69 834.15 751.49C835.79 764.02 831.6 786.94 821.56 820.26C875.31 831.05 909.86 831.38 925.22 821.23C926.87 731.12 926.87 681.59 925.22 672.64C922.75 659.22 902.18 604.61 897.24 599.24C893.95 595.66 878.02 592.08 849.46 588.5Z" />
						<path id="&lt;Path&gt;" class="shp2" d="M860.88 542.73C860.76 543.41 860.6 544.32 860.38 545.46C858.85 553.69 852.96 581.01 848.98 588.52C844.17 597.6 865.45 626.54 885.93 623.01C892.03 621.96 880.78 596.41 881.32 593.71C882.35 588.53 883.76 581.46 885.19 574.22C886 570.13 886.82 565.99 887.59 562.09C889.06 554.71 890.38 548.01 891.57 541.97L860.88 542.73Z" />
						<path id="&lt;Path&gt;" class="shp8" d="M860.38 545.46C860.6 544.32 860.76 543.41 860.88 542.73L891.57 541.97C890.38 548.01 889.06 554.71 887.59 562.09C886.83 565.96 886.01 570.08 885.21 574.15C880.47 573.45 875.52 571.15 870.55 566.82C865.14 562.09 861.59 556.41 859.45 550.34C859.83 548.41 860.15 546.74 860.38 545.46Z" />
						<path id="&lt;Path&gt;" class="shp2" d="M881.54 473.11C871.89 472 864.05 475.35 858 483.15C848.94 494.85 839.16 531.05 861.69 550.73C884.21 570.41 906.47 548.13 909.77 524.51C913.07 500.9 914.35 472.26 881.54 473.11Z" />
						<path id="&lt;Path&gt;" class="shp2" d="M916.43 524.16C913.75 529.38 909.23 532.27 906.35 530.62C903.48 528.96 903.32 523.39 906.01 518.18C908.7 512.96 913.21 510.07 916.09 511.73C918.97 513.38 919.12 518.95 916.43 524.16Z" />
						<path id="&lt;Path&gt;" class="shp4" d="M883.16 469.24C870.27 492.19 859.22 504.19 850 505.25C840.79 506.31 835.57 512.94 834.36 525.13C837.66 497.04 843.87 480.28 852.99 474.86C862.12 469.45 872.17 467.57 883.16 469.24Z" />
						<path id="&lt;Path&gt;" class="shp5" d="M755.36 1310.1C737.42 1313.36 725.49 1302.9 719.28 1295.06C714.73 1303.94 712.5 1317.18 715.85 1324.48C718.81 1330.9 727.44 1330.72 734.23 1330.97C741.41 1331.24 746.97 1327.25 750.54 1321.01C752.2 1318.1 753.92 1314.46 755.36 1310.1Z" />
						<path id="&lt;Path&gt;" class="shp5" d="M908.26 1307.56C888.52 1312.62 873.92 1309.18 865.76 1305.9C863.66 1311.85 860.86 1319.32 862.34 1323.63C864.16 1328.9 866.74 1330.1 869.02 1330.15C887.05 1330.63 935.07 1331.27 948.82 1331.45C950.74 1331.47 951.8 1329.23 950.56 1327.76C947.15 1323.7 909.73 1308.46 908.26 1307.56Z" />
						<path id="&lt;Path&gt;" class="shp2" d="M853.63 513.9C854.75 520.02 852.49 525.62 848.58 526.42C844.66 527.22 840.58 522.92 839.46 516.81C838.33 510.7 840.59 505.09 844.51 504.29C848.42 503.49 852.51 507.79 853.63 513.9Z" />
						<path id="&lt;Path&gt;" class="shp0" d="M786.83 531.36C819.13 566.02 837.68 590.33 842.48 604.3C849.68 625.26 835.46 655.23 815.81 656.54C802.72 657.41 781.6 626.65 752.45 564.26L786.83 531.36Z" />
					</g>
				</g>
			</g>
			<g id="&lt;Group&gt;">
				<path id="&lt;Path&gt;" class="shp2" d="M1808.1 1266.45C1809.31 1276.91 1809.92 1283.02 1809.92 1284.8C1809.92 1286.57 1809.92 1287.46 1809.92 1287.46L1808.61 1290.16L1808.1 1291.24L1817.48 1304.4C1842.6 1304.78 1855.43 1304.96 1855.99 1304.96C1856.55 1304.96 1854.87 1301.93 1850.95 1295.86C1842.64 1289.6 1837.74 1284.28 1836.25 1279.89C1834.75 1275.5 1835.39 1268.74 1838.15 1259.59L1808.1 1266.45Z" />
				<path id="&lt;Path&gt;" class="shp2" d="M1626.5 1172.59C1617.55 1178.14 1612.39 1181.47 1611 1182.57C1609.61 1183.67 1608.91 1184.22 1608.91 1184.22L1607.6 1186.93L1607.08 1188L1590.94 1188.84C1575.03 1169.4 1566.9 1159.46 1566.55 1159.02C1566.2 1158.58 1568.49 1158.91 1573.42 1160.01C1583.46 1161.37 1590.66 1161.27 1595.03 1159.71C1599.39 1158.15 1605.99 1153.02 1614.82 1144.32L1626.5 1172.59Z" />
				<path id="&lt;Path&gt;" class="shp4" d="M1748.43 1025.42L1603.9 1148.52L1626.17 1180.04C1725.19 1118.55 1777.28 1087.46 1782.47 1086.76C1790.24 1085.71 1796.54 1089.28 1798.01 1094.95C1798.99 1098.74 1800.73 1157.36 1803.22 1270.82L1841.81 1270.82L1861.94 1056.55L1748.43 1025.42Z" />
				<g id="&lt;Group&gt;">
					<path id="&lt;Path&gt;" class="shp2" d="M1956.66 849.84C1967.36 842.83 1992.48 815.87 2000.99 806.7C2001.08 805.62 2001.89 799.38 2008.73 791.46C2013.57 785.86 2017.23 773.09 2020.4 776.71C2023.56 780.33 2015.7 790.48 2019.3 790.54C2022.9 790.61 2040.77 770.52 2043.65 773.8C2046.52 777.08 2028.37 794.94 2031.59 795C2034.81 795.06 2049.55 776.97 2053.61 781.61C2057.67 786.25 2034.3 801.28 2036.47 803.77C2038.65 806.26 2053.14 796.4 2056.4 800.13C2059.67 803.86 2035.98 812.66 2037.87 812.69C2039.77 812.73 2053.44 812.36 2053.54 814.99C2053.66 817.96 2018.95 822.6 2014.7 827.75C2005.63 842.19 1989.49 868.56 1973.15 880.13C1959.81 889.57 1937.74 904.3 1906.93 924.32L1883.97 894.66C1923.98 870.32 1948.21 855.38 1956.66 849.84Z" />
					<path id="&lt;Path&gt;" class="shp8" d="M2019.3 796.92C2020.19 798.68 2020.57 800.58 2020.7 802.5C2020.63 802.81 2021.47 809.01 2016.18 813.73C2018.24 809.89 2020.52 805.63 2019.3 796.92Z" />
				</g>
				<g id="&lt;Group&gt;">
					<path id="&lt;Path&gt;" class="shp2" d="M1744.78 817.39C1736.29 807.83 1719.09 775.24 1713.28 764.16C1713.47 763.09 1714.32 756.86 1709.79 747.42C1706.58 740.76 1706.39 727.48 1702.39 730.14C1698.38 732.81 1703.32 744.65 1699.83 743.78C1696.33 742.9 1684.33 718.83 1680.71 721.25C1677.07 723.66 1689.92 745.65 1686.8 744.86C1683.67 744.08 1674.18 722.77 1669.05 726.18C1663.92 729.59 1682.55 750.22 1679.79 752.05C1677.04 753.88 1665.64 740.58 1661.5 743.33C1657.37 746.07 1677.95 760.76 1676.11 760.3C1674.27 759.84 1661.17 755.9 1660.38 758.42C1659.49 761.26 1691.78 774.8 1694.54 780.89L1694.54 780.89C1699.51 797.2 1708.2 826.87 1720.95 842.31C1731.35 854.91 1748.8 874.9 1773.31 902.28L1803.22 879.66C1770.97 845.7 1751.49 824.95 1744.78 817.39Z" />
					<path id="&lt;Path&gt;" class="shp8" d="M1698.16 749.94C1696.84 751.4 1695.97 753.13 1695.35 754.95C1695.33 755.27 1692.9 761.04 1696.77 766.97C1695.79 762.73 1694.71 758.02 1698.16 749.94Z" />
				</g>
				<path id="&lt;Path&gt;" class="shp5" d="M1808.66 884.95C1813.01 878.44 1820.5 874.76 1828.31 875.29C1851.26 876.85 1897.8 880.53 1902.21 884.95C1908.09 890.83 1925.74 929.2 1908.93 982.98C1892.13 1036.76 1882.88 1031.16 1869.16 1031.16C1860.01 1031.16 1833.87 1020.98 1790.73 1000.63L1808.66 884.95Z" />
				<path id="&lt;Path&gt;" class="shp7" d="M1769.02 839.29L1742.04 874.49L1775.53 924.32C1773.43 949 1770.77 965.2 1767.55 972.9C1764.33 980.6 1753.41 1000.28 1734.78 1031.93C1780.02 1059.66 1824.76 1071.5 1869.02 1067.43C1881.48 1003.29 1889.47 968.14 1892.97 961.97C1896.47 955.81 1915.1 937.47 1948.85 906.93L1924.27 867.22L1881.83 890.76C1830.12 882.4 1803.02 876.98 1800.53 874.49C1798.04 872 1787.54 860.26 1769.02 839.29Z" />
				<path id="&lt;Path&gt;" class="shp4" d="M1856.55 767.3C1839.09 758.06 1827.38 761.09 1821.4 776.41C1805.71 774.82 1799.23 782.15 1801.93 798.39C1786.16 806.33 1783.26 820.52 1793.25 840.97C1788.86 860.2 1797.92 870.43 1820.42 871.64C1823.78 878.46 1830.6 881.07 1840.87 879.48C1851.14 877.9 1857.58 875.75 1860.2 873.04C1878.4 878.36 1890.26 872.81 1895.77 856.38C1908.28 853.39 1910.33 843.86 1901.93 827.8C1912.86 806.98 1908.7 793.45 1889.47 787.19C1887.23 765.9 1876.26 759.27 1856.55 767.3Z" />
				<path id="&lt;Path&gt;" class="shp2" d="M1867.13 834.96C1865 840.9 1866.53 846.88 1870.55 848.32C1874.56 849.76 1879.54 846.11 1881.67 840.17C1883.8 834.23 1882.27 828.25 1878.25 826.81C1874.24 825.37 1869.26 829.02 1867.13 834.96Z" />
				<path id="&lt;Path&gt;" class="shp2" d="M1796.49 820.38C1796.19 826.68 1799.41 831.95 1803.66 832.16C1807.92 832.36 1811.62 827.41 1811.92 821.11C1812.21 814.81 1809 809.54 1804.74 809.34C1800.49 809.14 1796.79 814.08 1796.49 820.38Z" />
				<path id="&lt;Path&gt;" class="shp2" d="M1826.44 862.12C1826.44 862.53 1823.04 877.15 1821.24 884.88C1820.56 887.77 1822.02 890.72 1824.72 891.95C1831.92 895.23 1846.08 899.82 1855.86 890.95C1856.75 890.15 1857.24 888.98 1857.19 887.77L1855.99 852.87L1826.44 862.12Z" />
				<path id="&lt;Path&gt;" class="shp8" d="M1824.62 870.31C1832.24 874.15 1841.83 874.22 1852.57 867.92C1853.94 867.12 1855.22 866.27 1856.42 865.38L1855.99 852.87L1826.44 862.12C1826.44 862.32 1825.65 865.84 1824.62 870.31Z" />
				<path id="&lt;Path&gt;" class="shp2" d="M1847.4 781.54C1856 783.81 1862.82 789.13 1867.87 797.49C1875.45 810.04 1879.64 846.31 1852.57 862.18C1825.51 878.05 1805.82 853.47 1806.33 830.23C1806.85 806.99 1817.18 777.28 1847.4 781.54Z" />
				<path id="&lt;Path&gt;" class="shp3" d="M1803.24 875.7C1790.78 885.12 1777.74 933.4 1772.8 946.01L1768.83 969.16L1819.53 879.61C1810.46 875.65 1805.03 874.35 1803.24 875.7Z" />
				<path id="&lt;Path&gt;" class="shp3" d="M1864.8 887.92C1863.78 927.58 1864.77 954.23 1867.76 967.86C1870.75 981.49 1876.15 990.69 1883.97 995.45L1889.73 971.66C1885.89 936.63 1883.26 909.66 1881.83 890.76C1881.62 887.89 1875.94 886.94 1864.8 887.92Z" />
				<path id="&lt;Path&gt;" class="shp5" d="M1801.23 1314.04C1795.48 1313.31 1805.42 1293.36 1808.61 1290.16L1850.95 1295.86C1864.54 1302.16 1872.94 1306.92 1876.16 1310.14C1877.31 1311.29 1877.46 1313.3 1872.49 1314.04C1856.51 1316.42 1814 1315.65 1801.23 1314.04Z" />
				<path id="&lt;Path&gt;" class="shp5" d="M1593.07 1207.86C1598.04 1210.85 1607.08 1191.42 1607.6 1186.93L1573.42 1160.01C1555.83 1154.97 1545.26 1154.22 1541.72 1157.77C1536.89 1162.6 1581.79 1201.09 1593.07 1207.86Z" />
			</g>
			<g id="&lt;Group&gt;">
				<path id="&lt;Path&gt;" class="shp4" d="M1321.43 763.18C1332.63 759.12 1341.86 762.77 1349.1 774.12C1359.97 791.15 1354.09 789.54 1359.38 798.05C1364.67 806.57 1367.21 830.77 1369.03 843.86C1387.67 977.32 1164.78 988.13 1251.82 818.02C1259.98 802.06 1266.89 792.47 1274.23 775.44C1281.57 758.41 1312.62 759.07 1321.43 763.18Z" />
				<path id="&lt;Path&gt;" class="shp13" d="M1273.74 887.86L1251.27 880.01C1245.32 887.61 1241.45 900.91 1239.67 919.93C1237.89 938.95 1237.89 954.05 1239.67 965.23L1265.09 965.23L1273.74 887.86Z" />
				<path id="&lt;Path&gt;" class="shp13" d="M1318.78 872.55C1311.15 873.33 1254.43 867.94 1251.27 880.01C1234.28 944.85 1257.64 1034.37 1263.61 1040.34C1267.59 1044.32 1302.08 1039.83 1367.07 1026.86C1377.27 919.61 1361.17 868.18 1318.78 872.55Z" />
				<g id="&lt;Group&gt;">
					<path id="&lt;Path&gt;" class="shp2" d="M1396.2 806.08C1392.02 804.09 1388.04 799.58 1384.24 792.54C1380.59 785.78 1369.72 777.1 1374.24 775.7C1378.77 774.29 1385.7 785.74 1386.99 782.46C1388.29 779.18 1375.35 754.41 1379.45 753.14C1383.55 751.86 1394.28 775.96 1395.44 773.03C1396.6 770.1 1384.48 749.04 1390.28 747.24C1396.07 745.45 1402.32 773.16 1405.43 772.2C1408.54 771.23 1404.01 750.09 1408.68 748.64C1413.34 747.19 1412.68 774.79 1414.36 774C1415.26 773.57 1419.4 760.2 1421.93 761.2C1424.79 762.34 1417.07 789.77 1420.5 795.82C1423.93 801.87 1451.39 877.06 1442 886.45C1431.77 896.68 1366.66 920.15 1353.03 916.11C1339.4 912.08 1331.6 898.61 1334.87 890.33C1338.15 882.05 1402.53 863.45 1403.55 860.85C1404.24 859.12 1401.79 840.86 1396.2 806.08Z" />
					<path id="&lt;Path&gt;" class="shp8" d="M1401.42 782.33C1403.39 782.25 1405.33 782.69 1407.19 783.37C1407.46 783.56 1413.64 785.37 1416.29 792.19C1413.36 788.7 1410.1 784.84 1401.42 782.33Z" />
				</g>
				<path id="&lt;Path&gt;" class="shp2" d="M1451.66 1236.4C1460.05 1270.64 1467.38 1290.45 1473.64 1295.83C1483.03 1303.89 1513.63 1319.32 1505.62 1320.98C1497.61 1322.63 1438.34 1324.01 1439.96 1314.13C1441.05 1307.54 1442.16 1302.14 1443.29 1297.93L1427.61 1261.25L1451.66 1236.4Z" />
				<path id="&lt;Path&gt;" class="shp5" d="M1509.61 1323.08C1495.15 1324.52 1452.94 1326.04 1440.64 1324.47C1439.11 1324.16 1438.88 1320.72 1439.96 1314.13C1440.36 1311.71 1440.76 1309.51 1441.14 1307.56C1452.3 1310.49 1476.59 1304.25 1486.21 1302.97C1496.67 1307.98 1508.45 1315.45 1512.25 1316.08C1517.75 1316.98 1517.75 1322.27 1509.61 1323.08Z" />
				<path id="&lt;Path&gt;" class="shp2" d="M1313.43 1279.46C1312.55 1288.12 1312.11 1294.36 1312.11 1298.18C1312.11 1303.9 1317.44 1320.05 1314.97 1322.53C1312.5 1325 1241.89 1324.69 1241.89 1322.37C1241.89 1320.04 1254.37 1312.99 1271.33 1308.15C1288.28 1303.3 1294.05 1284.52 1289.64 1273.73L1313.43 1279.46Z" />
				<path id="&lt;Path&gt;" class="shp5" d="M1240.75 1322.53C1240.75 1320.36 1252.33 1313.7 1267.33 1309.12C1283.31 1314.52 1305.5 1310.07 1313.82 1308.48C1316.36 1315.14 1317.18 1321.45 1315.87 1322.76C1313.4 1325.23 1240.75 1324.85 1240.75 1322.53Z" />
				<path id="&lt;Path&gt;" class="shp7" d="M1390.06 1062.32L1402.73 1073.55C1412.23 1099.28 1417.26 1113 1417.81 1114.7C1418.58 1117.06 1434.36 1167.84 1465.14 1267.04L1432.97 1278.62C1411.71 1237.19 1399.31 1209.28 1395.79 1194.89C1392.27 1180.51 1372.89 1143.21 1337.65 1083.02L1390.06 1062.32Z" />
				<path id="&lt;Path&gt;" class="shp7" d="M1334.13 1085.22L1318.71 1282.44L1283.04 1282.44C1274.52 1184.04 1271.73 1117.57 1274.67 1083.02L1334.13 1085.22Z" />
				<path id="&lt;Path&gt;" class="shp3" d="M1271.58 886.58C1286.71 882.62 1302.86 880.16 1320.04 879.2C1328.93 878.71 1339.35 879.41 1351.31 881.3C1362.17 905.67 1369.22 927.84 1372.45 947.8C1375.68 967.77 1386.1 1009.76 1403.72 1073.77C1367.9 1101.37 1323.85 1106.07 1271.58 1087.87L1271.58 886.58Z" />
				<path id="&lt;Path&gt;" class="shp2" d="M1332.66 853.84C1332.19 869.43 1332.69 877.96 1334.15 879.42C1336.35 881.62 1339.41 885.26 1336.18 890.84C1332.95 896.42 1318.93 892.86 1312.4 889.67C1308.22 887.62 1304.78 884.7 1302.08 880.9L1305.35 843.86L1332.66 853.84Z" />
				<path id="&lt;Path&gt;" class="shp8" d="M1323.34 863.53C1318.83 861.96 1310.97 858.91 1304.89 849.05L1305.35 843.86L1332.66 853.84C1332.55 857.65 1332.52 861.56 1332.58 865.59C1328.75 865.43 1325.48 864.28 1323.34 863.53Z" />
				<path id="&lt;Path&gt;" class="shp2" d="M1300.54 817.41C1300.1 808.25 1297.06 804.56 1291.44 806.34C1282.99 809.01 1289.43 829.76 1296.43 829.07C1301.09 828.62 1302.46 824.73 1300.54 817.41Z" />
				<path id="&lt;Path&gt;" class="shp2" d="M1327.08 772.51C1335.89 772.31 1342.55 775.64 1347.05 782.49C1353.8 792.77 1361.14 822.13 1349.98 842.39C1338.83 862.65 1324.59 857.66 1318.71 855.6C1312.84 853.55 1301.24 849 1295.37 830.06C1289.5 811.12 1293.75 768.54 1327.08 772.51Z" />
				<path id="&lt;Path&gt;" class="shp11" d="M1274.11 885.96C1280.13 899.56 1294.96 928.85 1294.28 961.15C1293.8 983.7 1285.08 1002.3 1268.11 1016.94L1268.11 1033.66C1286.84 1030.71 1299.78 1014.67 1306.93 985.52C1314.09 956.38 1309.06 922.01 1291.84 882.42C1289.38 880.67 1285.72 880.47 1280.84 881.83C1277.6 882.74 1275.35 884.12 1274.11 885.96Z" />
				<path id="&lt;Path&gt;" class="shp11" d="M1335.8 879.08C1349.86 954.8 1366.02 995.11 1384.27 1000.02L1379.51 980.65C1360.71 919.4 1351.31 886.28 1351.31 881.3C1351.31 876.32 1346.14 875.58 1335.8 879.08Z" />
				<g id="&lt;Group&gt;">
					<path id="&lt;Path&gt;" class="shp7" d="M1392.89 1073.42L1311.01 1073.42L1311.01 980.12L1392.89 983.76L1392.89 1073.42Z" />
					<g id="&lt;Group&gt;">
						<path id="&lt;Path&gt;" class="shp7" d="M1392.89 976.48L1314.65 976.48C1312.64 976.48 1311.01 978.11 1311.01 980.12C1311.01 982.13 1312.64 983.76 1314.65 983.76L1392.89 983.76L1392.82 983.73C1387.42 981.71 1387.45 978.5 1392.89 976.48Z" />
						<path id="&lt;Path&gt;" class="shp11" d="M1390.65 977.56L1317.35 977.56C1315.93 977.56 1314.78 978.71 1314.78 980.12C1314.78 981.53 1315.93 982.68 1317.35 982.68L1390.65 982.68C1388.17 981.1 1388.17 979.14 1390.65 977.56Z" />
					</g>
					<g id="&lt;Group&gt;">
						<path id="&lt;Path&gt;" class="shp5" d="M1357 978.08L1351.85 978.08C1350.74 978.08 1349.84 978.98 1349.84 980.09L1349.84 980.27L1357 980.27L1357 978.08Z" />
						<path id="&lt;Path&gt;" class="shp5" d="M1352.06 978.09C1353.29 978.09 1355.13 979.13 1356.17 980.42L1368.4 995.59L1375.58 995.58L1363.95 981.16C1362.58 979.46 1360.16 978.09 1358.53 978.09L1352.06 978.09Z" />
					</g>
				</g>
				<path id="&lt;Path&gt;" class="shp2" d="M1271.58 886.58C1275.7 890.71 1279.96 900.59 1284.37 916.23C1290.97 939.7 1294.34 994.64 1300.07 1000.36C1305.79 1006.09 1343.23 1035.89 1349.98 1034.87C1356.74 1033.84 1371.86 1016.22 1376.56 1016.22C1381.26 1016.22 1380.67 1020.48 1378.32 1022.83C1375.97 1025.18 1373.11 1027.89 1374.5 1029.29C1375.43 1030.22 1375.9 1030.68 1375.9 1030.68C1389.84 1027.01 1397.99 1025.86 1400.34 1027.23C1403.86 1029.29 1396.96 1034.13 1396.96 1037.65C1396.96 1041.18 1397.83 1041.11 1397.41 1045C1396.98 1048.88 1396.01 1051.97 1394.18 1053.81C1392.34 1055.64 1369.22 1062.32 1346.61 1059.24C1324 1056.15 1296.4 1045.29 1275.99 1020.04C1255.58 994.78 1259.67 915.42 1260.13 907.5C1260.92 894.14 1264.73 887.17 1271.58 886.58Z" />
			</g>
			<path id="&lt;Path&gt;" class="shp11" d="M1012.91 219.79L993.79 221.73L987.27 191.31L958.96 190.69L950.36 168.73L939.24 173.08L950.74 202.46L977.57 203.04L984.35 234.69L1013.13 231.77L1012.91 219.79Z" />
			<path id="&lt;Path&gt;" class="shp11" d="M1304.63 256.95L1315.35 238.83L1306.51 219.72C1305.5 217.55 1307.43 215.16 1309.77 215.69L1330.31 220.29L1345.75 205.97C1347.51 204.34 1350.37 205.44 1350.6 207.82L1352.57 228.78L1370.95 239.04C1373.04 240.21 1372.89 243.27 1370.69 244.22L1351.36 252.58L1347.29 273.23C1346.82 275.58 1343.86 276.38 1342.28 274.58L1328.36 258.79L1307.46 261.29C1305.08 261.58 1303.41 259.01 1304.63 256.95Z" />
			<path id="&lt;Path&gt;" class="shp7" d="M1629.31 239.74C1630.17 234.17 1633.3 230.25 1638.69 227.96C1645.91 224.91 1653.76 229.6 1657.11 237.51C1660.99 246.67 1658.8 260.37 1645.2 277.24C1623.61 275.28 1612.24 267.31 1608.37 258.15C1605.01 250.24 1607.11 241.34 1614.32 238.29C1619.72 236 1624.71 236.49 1629.31 239.74Z" />
			<g id="&lt;Group&gt;">
				<path id="&lt;Path&gt;" class="shp3" d="M788.51 171.22C790.15 166.61 793.71 163.48 799.19 161.83C806.51 159.62 813.32 163.93 815.36 170.71C817.72 178.56 813.63 189.92 798.19 203.37C777.88 200.68 768.21 193.46 765.84 185.61C763.8 178.82 767.1 171.48 774.43 169.27C779.91 167.63 784.6 168.28 788.51 171.22Z" />
				<g id="&lt;Group&gt;">
					<path id="&lt;Path&gt;" class="shp3" d="M728.86 192.55C736.33 191.56 742.28 190.39 748.08 188.96C749.99 188.49 753.44 188.24 754.36 186.27C754.84 185.25 754.69 184.19 753.71 183.51C751.91 182.27 749.19 183.6 747.26 184.08C741.39 185.52 734.68 186.87 727.82 187.85C726.53 188.03 725.73 189.52 725.99 190.72C726.3 192.08 727.57 192.72 728.86 192.55Z" />
				</g>
				<g id="&lt;Group&gt;">
					<path id="&lt;Path&gt;" class="shp3" d="M830.56 183.56C833.38 182.92 836.19 182.23 839 181.54C841.68 180.88 844.98 180.58 847.3 179.04C849.01 177.9 848.57 175.36 846.42 175.14C843.64 174.85 840.62 176.08 837.93 176.75C835.12 177.44 832.31 178.13 829.52 178.87C826.53 179.66 827.53 184.26 830.56 183.56Z" />
				</g>
				<g id="&lt;Group&gt;">
					<path id="&lt;Path&gt;" class="shp3" d="M763.75 223.01C765.83 216.24 769.69 213.37 772.41 210.31C773.87 208.67 772.27 206.31 770.21 207.17C764.54 209.53 760.83 216.02 759.16 221.63C758.28 224.58 762.84 225.97 763.75 223.01Z" />
				</g>
				<g id="&lt;Group&gt;">
					<path id="&lt;Path&gt;" class="shp3" d="M799.74 229.99C798.93 227.11 798.68 224.17 799.09 221.2C799.35 219.38 801.57 213.95 798.06 213.88C794.76 213.82 794.32 219.34 794.1 221.67C793.81 224.81 794.14 228.02 795.03 231.04C795.9 234.01 800.59 232.99 799.74 229.99Z" />
				</g>
				<g id="&lt;Group&gt;">
					<path id="&lt;Path&gt;" class="shp3" d="M819.29 206.52C821.13 207.28 822.97 208.04 824.8 208.79C826.63 209.55 828.53 210.83 830.48 209.91C831.58 209.4 831.76 208.13 831.37 207.11C830.67 205.27 827.91 204.75 826.23 204.08C824.39 203.33 822.55 202.59 820.71 201.84C819.48 201.35 818.02 202.29 817.66 203.47C817.25 204.84 818.07 206.02 819.29 206.52Z" />
				</g>
				<g id="&lt;Group&gt;">
					<path id="&lt;Path&gt;" class="shp3" d="M765.02 158.67C755.57 145.76 755.67 145.66 754.18 144.77C752.65 143.85 750.59 145.22 751.02 147.01C751.44 148.79 751.4 148.49 761.39 162.04C762.18 163.12 763.98 163.01 764.88 162.17C765.96 161.17 765.81 159.76 765.02 158.67Z" />
				</g>
				<g id="&lt;Group&gt;">
					<path id="&lt;Path&gt;" class="shp3" d="M790.62 152.31C790.98 149.7 791.05 147.08 790.85 144.45C790.66 142.01 790.7 138.24 788.11 137.13C787.56 136.89 786.69 137.11 786.29 137.55C784.62 139.39 785.81 142.49 785.97 144.75C786.15 147.2 786.07 149.68 785.83 152.14C785.71 153.42 786.9 154.57 788.14 154.62C789.54 154.67 790.44 153.6 790.62 152.31Z" />
				</g>
				<g id="&lt;Group&gt;">
					<path id="&lt;Path&gt;" class="shp3" d="M827.38 145.92C827.54 144.72 826.4 143.9 825.37 143.75C823.25 143.46 821.16 145.95 819.77 147.3C818.14 148.88 816.69 150.6 815.34 152.42C814.56 153.47 815.08 155.1 816.12 155.74C817.34 156.5 818.63 155.98 819.45 154.96C824.79 148.28 827 148.87 827.38 145.92Z" />
				</g>
			</g>
			<path id="&lt;Compound Path&gt;" fill-rule="evenodd" class="shp7" d="M580.68 170.61L584.73 146.49L573.62 146.49C571.19 146.49 569.22 144.52 569.22 142.09C569.22 139.66 571.19 137.69 573.62 137.69L586.44 137.69L590.03 116.05L578.16 116.05C575.73 116.05 573.76 114.07 573.76 111.64C573.76 109.21 575.73 107.24 578.16 107.24L591.73 107.24L596.02 82.39C596.39 80.28 598.22 78.73 600.36 78.73L602.43 78.73C605.15 78.73 607.22 81.17 606.78 83.86L602.9 107.24L622.57 107.24L626.86 82.39C627.23 80.28 629.06 78.73 631.2 78.73L633.46 78.73C636.18 78.73 638.25 81.17 637.81 83.86L633.93 107.24L645.04 107.24C647.47 107.24 649.44 109.21 649.44 111.64C649.44 114.07 647.47 116.05 645.04 116.05L632.22 116.05L628.82 137.69L640.69 137.69C643.12 137.69 645.09 139.66 645.09 142.09C645.09 144.52 643.12 146.49 640.69 146.49L627.12 146.49L622.81 172.07C622.46 174.19 620.62 175.75 618.47 175.75L616.05 175.75C613.33 175.75 611.26 173.3 611.71 170.61L615.76 146.49L596.09 146.49L591.78 172.07C591.43 174.19 589.59 175.75 587.44 175.75L585.02 175.75C582.3 175.75 580.23 173.3 580.68 170.61ZM617.47 137.69L621.06 116.05L601.38 116.05L597.79 137.69L617.47 137.69Z" />
			<path id="&lt;Path&gt;" class="shp3" d="M1269.66 164.79L1257.82 148.47L1237.67 148.97C1235.38 149.03 1234.01 146.43 1235.36 144.57L1247.22 128.27L1240.52 109.26C1239.75 107.1 1241.8 104.99 1243.99 105.71L1263.16 111.95L1279.16 99.7C1280.99 98.3 1283.62 99.6 1283.62 101.9L1283.6 122.06L1300.2 133.5C1302.09 134.8 1301.67 137.7 1299.49 138.41L1280.31 144.63L1274.56 163.95C1273.91 166.15 1271.01 166.65 1269.66 164.79Z" />
			<g id="&lt;Group&gt;">
				<path id="&lt;Path&gt;" class="shp0" d="M489.66 442.6L400.95 446.18C390.48 446.61 381.65 438.46 381.23 428L379.21 378.04C378.79 367.58 386.93 358.75 397.4 358.33L486.11 354.75C496.58 354.32 505.41 362.46 505.83 372.93L507.85 422.89C508.27 433.35 500.13 442.18 489.66 442.6Z" />
				<path id="&lt;Path&gt;" class="shp0" d="M502.6 386.11L538.5 426.39L492.35 415.46L502.6 386.11Z" />
				<g id="&lt;Group&gt;">
					<path id="&lt;Path&gt;" class="shp15" d="M417.88 395.38L429.22 394.63C438.43 387.05 443.11 381.99 443.28 379.46C443.54 375.66 440.81 367.78 442.98 366.67C445.16 365.56 449.82 364.54 453.03 369.4C455.36 372.93 454.2 386.27 455.58 387.09C456.44 387.61 462.97 387.36 467.74 387.11C470.88 386.94 473.85 388.52 475.45 391.23L475.46 391.23C476.54 393.06 476.2 395.4 474.64 396.83L472.21 399.07L474.33 401.63C475.91 403.53 475.65 406.35 473.76 407.94L471.83 409.56L473.28 411.05C475.14 412.98 474.92 416.09 472.8 417.73L471.08 419.06L471.37 419.54C472.58 421.53 472.06 424.12 470.19 425.5L468.46 426.77L438.23 428.75C435.4 428.94 432.56 428.54 429.88 427.59L419.14 426.53C417.98 426.42 417.08 425.48 417.03 424.32L415.69 397.84C415.62 396.56 416.6 395.47 417.88 395.38Z" />
				</g>
			</g>
			<path id="&lt;Path&gt;" class="shp7" d="M1985.51 638.06C1988.97 644.83 1996.33 648.05 2002.12 645.25C2007.99 642.4 2010.01 634.42 2006.62 627.44C2003.24 620.45 1995.73 617.09 1989.85 619.94C1988.32 620.69 1987.06 621.78 1986.08 623.12L1977.2 603.06L2011.23 597.75L2026.4 632.04L2026.4 632.04C2026.42 632.08 2026.44 632.12 2026.46 632.16C2029.84 639.15 2037.35 642.51 2043.23 639.66C2049.1 636.81 2051.12 628.84 2047.74 621.85C2044.35 614.86 2036.84 611.51 2030.96 614.35C2029.43 615.1 2028.17 616.19 2027.19 617.52L2010.94 580.79C2010.42 579.61 2009.25 578.89 2008.17 579.09L1965.77 586.86C1964.35 587.12 1963.67 588.8 1964.36 590.34L1985.48 638.07L1985.51 638.06Z" />
			<g id="&lt;Group&gt;">
				<path id="&lt;Path&gt;" class="shp11" d="M1853.12 400.46L1822 398.28L1822.52 419.05L1812.57 419.3L1811.77 387.59L1842.71 389.75L1841.68 365.34L1869.97 366.81L1872.36 341.57L1882.27 342.51L1878.97 377.24L1852.09 375.84L1853.12 400.46Z" />
			</g>
			<path id="&lt;Path&gt;" class="shp0" d="M1482.54 311.26C1480.52 327.15 1497.08 339.76 1511.8 338.77C1528.07 337.67 1541.88 324.32 1544.26 308.33C1546.83 291.02 1536.43 277.18 1520.34 275.91C1504.68 274.67 1494.66 288.62 1499.18 302.68C1502.42 312.77 1511.63 316.53 1516.27 313.75C1519.89 311.58 1519.67 306.11 1515.29 305.14C1513.54 304.76 1511.73 305.73 1510.8 307.08C1506.97 305.56 1503.32 298.59 1505.79 291.05C1508.95 281.43 1521.12 280.88 1528.67 285.37C1538.28 291.08 1539.79 303.38 1536.27 313.18C1532.57 323.47 1522.46 331.57 1511.46 332.35C1499 333.24 1488.03 323.68 1487.04 311.27C1486.8 308.34 1482.9 308.41 1482.54 311.26Z" />
			<g id="&lt;Group&gt;">
				<path id="&lt;Path&gt;" class="shp11" d="M254.79 513.52C306.84 523.21 344.21 556.99 338.26 588.97C335.28 604.95 322.03 617.46 303.03 624.76L315.37 675.84L277.74 630.91C264.01 632.63 248.84 632.22 233.23 629.31C181.18 619.62 143.81 585.84 149.76 553.86C155.72 521.89 202.74 503.83 254.79 513.52Z" />
				<g id="&lt;Group&gt;">
					<path id="&lt;Path&gt;" class="shp7" d="M278.62 583.78C270.64 600.42 250.68 607.43 234.05 599.44C217.42 591.45 210.41 571.48 218.4 554.85C226.39 538.21 246.34 531.21 262.98 539.2C279.61 547.19 286.61 567.15 278.62 583.78Z" />
					<path id="&lt;Path&gt;" class="shp16" d="M230.12 566.35C225.85 575.25 229.59 585.92 238.49 590.19C247.38 594.46 258.05 590.72 262.32 581.82L230.12 566.35Z" />
				</g>
			</g>
			<path id="&lt;Path&gt;" class="shp3" d="M1913.33 472.38C1927.16 472.52 1939.86 468.46 1951.46 460.17C1963.06 451.89 1973.14 440.27 1981.73 425.31L1952.62 411.34C1957.63 431.69 1944.53 452.04 1913.33 472.38Z" />
			<path id="&lt;Path&gt;" class="shp3" d="M1910.16 456.78L1909.5 474.37L1923.62 484.88C1925.22 486.07 1924.76 488.6 1922.83 489.14L1905.91 493.95L1900.27 510.63C1899.63 512.53 1897.09 512.86 1895.97 511.2L1886.17 496.59L1868.57 496.38C1866.56 496.36 1865.46 494.05 1866.69 492.47L1877.56 478.63L1872.32 461.83C1871.72 459.92 1873.58 458.15 1875.46 458.84L1891.98 464.9L1906.34 454.72C1907.98 453.56 1910.23 454.78 1910.16 456.78Z" />
			<g id="&lt;Group&gt;">
				<path id="&lt;Path&gt;" class="shp7" d="M1052.59 110.97C1051.87 100.58 1059.71 91.57 1070.1 90.85C1080.5 90.13 1089.51 97.97 1090.23 108.36C1090.95 118.76 1083.11 127.77 1072.72 128.49C1062.32 129.21 1053.31 121.37 1052.59 110.97Z" />
				<g id="&lt;Group&gt;">
					<path id="&lt;Path&gt;" class="shp7" d="M1084.58 164.25C1083.46 158.77 1082.77 152.91 1080.91 147.64C1079.3 143.1 1072.22 144.49 1072.58 149.36C1073.02 155.33 1074.88 161.37 1076.13 167.22C1076.64 169.58 1079.77 170.68 1081.84 169.96C1084.38 169.07 1085.07 166.62 1084.58 164.25Z" />
				</g>
				<g id="&lt;Group&gt;">
					<path id="&lt;Path&gt;" class="shp7" d="M1116.91 140.88C1110.66 137.19 1105.21 132.62 1099.44 128.26C1094.93 124.86 1090.07 130.72 1093.78 134.76C1099.1 140.58 1106.09 145.12 1112.84 149.1C1114.98 150.36 1117.95 149.13 1118.99 147.02C1120.16 144.66 1119.05 142.14 1116.91 140.88Z" />
				</g>
				<g id="&lt;Group&gt;">
					<path id="&lt;Path&gt;" class="shp7" d="M1105.07 107.1C1103.65 108.24 1103.37 109.87 1104.25 111.46C1106.36 115.29 1111.73 115.1 1115.54 114.97C1119.52 114.84 1123.49 114.03 1127.26 112.75C1132.82 110.85 1129.8 102.22 1124.22 104.12C1113.31 107.85 1109.18 103.81 1105.07 107.1Z" />
				</g>
				<g id="&lt;Group&gt;">
					<path id="&lt;Path&gt;" class="shp7" d="M1099.06 70.42C1093.57 78.46 1089.09 81.17 1089.78 85.59C1090.19 88.18 1092.24 89.41 1094.73 88.84C1097.68 88.17 1099.29 85.05 1101.06 82.85C1102.75 80.75 1104.41 78.64 1105.93 76.4C1107.3 74.36 1107.49 71.73 1105.48 69.98C1103.8 68.51 1100.46 68.38 1099.06 70.42Z" />
				</g>
				<g id="&lt;Group&gt;">
					<path id="&lt;Path&gt;" class="shp7" d="M1077.67 69.03C1075.92 64.16 1075.53 62.39 1073.25 60.13C1071.28 58.16 1067.1 59.42 1066.82 62.31C1066.5 65.69 1067.21 66.95 1069.05 72.06C1069.89 74.39 1072.54 75.68 1074.88 74.86C1077.2 74.04 1078.51 71.36 1077.67 69.03Z" />
				</g>
				<g id="&lt;Group&gt;">
					<path id="&lt;Path&gt;" class="shp7" d="M1054.57 80.81C1046.65 74.8 1045.04 73.11 1041.93 73.43C1040.11 73.63 1038.06 75.38 1038.46 77.42C1039.2 81.22 1041.41 82.26 1048.69 87.57C1050.64 88.99 1053.32 89.06 1055.01 87.13C1056.51 85.4 1056.5 82.28 1054.57 80.81Z" />
				</g>
				<g id="&lt;Group&gt;">
					<path id="&lt;Path&gt;" class="shp7" d="M1022.77 108.38C1019.65 110.03 1020.91 115.42 1024.29 115.87C1027.52 116.29 1028.77 115.77 1044.49 112.9C1046.91 112.46 1048.91 110.68 1048.73 108.03C1048.57 105.77 1046.3 103.34 1043.85 103.78C1027.54 106.73 1025.9 106.72 1022.77 108.38Z" />
				</g>
				<g id="&lt;Group&gt;">
					<path id="&lt;Path&gt;" class="shp7" d="M1047.39 134.08C1038.78 142.42 1037.52 140.94 1034.12 146.04C1032.56 148.37 1035.13 152.09 1037.83 151.59C1041.31 150.95 1042.24 150.37 1046.77 146.78C1049.4 144.69 1051.92 142.46 1054.34 140.13C1056.13 138.4 1055.65 135.16 1053.89 133.63C1051.88 131.88 1049.18 132.35 1047.39 134.08Z" />
				</g>
			</g>
		</g>
	</g>
</svg>