<svg version="1.2" baseProfile="tiny-ps" xmlns="http://www.w3.org/2000/svg" viewBox="0 0 1500 1000" width="1500" height="1000">
	<title>3710739-ai</title>
	<defs>
		<clipPath clipPathUnits="userSpaceOnUse" id="cp1">
			<path d="M879.63 568.96C800.52 543 765.91 507.15 775.8 461.42C785.69 415.68 819.06 415.06 875.92 459.56C899.41 400.23 928.46 391.58 963.07 433.61C997.68 475.63 969.86 520.75 879.63 568.96Z" />
		</clipPath>
	</defs>
	<style>
		tspan { white-space:pre }
		.shp0 { fill: #fdfdfd } 
		.shp1 { fill: #d6e0e8 } 
		.shp2 { fill: #ff5656 } 
		.shp3 { fill: #ffad40 } 
		.shp4 { fill: #ecd47c } 
		.shp5 { fill: #00d3d8 } 
		.shp6 { fill: #269ef4 } 
		.shp7 { fill: #7d54e0 } 
		.shp8 { fill: #874b43 } 
		.shp9 { fill: #3a2a83 } 
		.shp10 { fill: #662e28 } 
		.shp11 { fill: #4890cd } 
		.shp12 { fill: #312c44 } 
		.shp13 { fill: #ffe1bc } 
		.shp14 { fill: #3180b5 } 
		.shp15 { fill: #fab189 } 
		.shp16 { fill: #2e53a1 } 
		.shp17 { fill: #e89369 } 
		.shp18 { fill: #feefc6 } 
		.shp19 { fill: #fffbff } 
		.shp20 { fill: #ff806f } 
		.shp21 { fill: #ffaf96 } 
		.shp22 { fill: #ed896e } 
		.shp23 { fill: #01bdc6 } 
		.shp24 { fill: #f04f73 } 
		.shp25 { fill: #ffc35e } 
		.shp26 { fill: #307fb5 } 
		.shp27 { fill: #84260d } 
		.shp28 { fill: #afc1d3 } 
		.shp29 { fill: #f26555 } 
		.shp30 { fill: #3f2882 } 
		.shp31 { fill: #6f7ad3 } 
		.shp32 { fill: #859fb5 } 
	</style>
	<g id="BACKGROUND">
		<g id="&lt;Group&gt;">
			<path id="&lt;Path&gt;" class="shp0" d="M1500 1000L0 1000L0 0L1500 0L1500 1000Z" />
			<g id="&lt;Group&gt;">
				<path id="&lt;Path&gt;" class="shp1" d="M290.27 900.48C290.27 906.97 253.92 912.24 209.08 912.24C164.24 912.24 127.89 906.97 127.89 900.48C127.89 893.98 164.24 888.71 209.08 888.71C253.92 888.71 290.27 893.98 290.27 900.48Z" />
				<path id="&lt;Path&gt;" class="shp1" d="M548.6 872.99C548.6 879 514.98 883.87 473.51 883.87C432.03 883.87 398.41 879 398.41 872.99C398.41 866.98 432.03 862.11 473.51 862.11C514.98 862.11 548.6 866.98 548.6 872.99Z" />
				<path id="&lt;Path&gt;" class="shp1" d="M465.6 907.54C465.6 914.04 429.24 919.3 384.4 919.3C339.56 919.3 303.21 914.04 303.21 907.54C303.21 901.04 339.56 895.77 384.4 895.77C429.24 895.77 465.6 901.04 465.6 907.54Z" />
				<path id="&lt;Path&gt;" class="shp1" d="M679.2 875.17C679.2 881.18 645.58 886.05 604.1 886.05C562.63 886.05 529.01 881.18 529.01 875.17C529.01 869.16 562.63 864.28 604.1 864.28C645.58 864.28 679.2 869.16 679.2 875.17Z" />
				<path id="&lt;Path&gt;" class="shp1" d="M858.04 886.05C858.04 891.19 826.48 895.36 787.55 895.36C748.61 895.36 717.05 891.19 717.05 886.05C717.05 880.91 748.61 876.74 787.55 876.74C826.48 876.74 858.04 880.91 858.04 886.05Z" />
				<path id="&lt;Path&gt;" class="shp1" d="M1022.99 882.06C1022.99 887.2 991.42 891.37 952.49 891.37C913.55 891.37 881.99 887.2 881.99 882.06C881.99 876.92 913.55 872.75 952.49 872.75C991.42 872.75 1022.99 876.92 1022.99 882.06Z" />
				<path id="&lt;Path&gt;" class="shp1" d="M1202.56 886.05C1202.56 891.19 1170.99 895.36 1132.06 895.36C1093.12 895.36 1061.56 891.19 1061.56 886.05C1061.56 880.91 1093.12 876.74 1132.06 876.74C1170.99 876.74 1202.56 880.91 1202.56 886.05Z" />
				<path id="&lt;Path&gt;" class="shp1" d="M1384.79 900.68C1384.79 905.82 1353.23 909.99 1314.29 909.99C1275.36 909.99 1243.79 905.82 1243.79 900.68C1243.79 895.54 1275.36 891.37 1314.29 891.37C1353.23 891.37 1384.79 895.54 1384.79 900.68Z" />
			</g>
		</g>
	</g>
	<g id="OBJECTS">
		<g id="&lt;Group&gt;">
			<g id="&lt;Group&gt;">
				<path id="&lt;Path&gt;" class="shp2" d="M1306.98 182.05C1283.47 200.23 1252.41 209.64 1222.36 208.13L1222.99 194.98C1249.95 196.36 1278.09 187.79 1298.95 171.61L1306.98 182.05Z" />
				<path id="&lt;Path&gt;" class="shp3" d="M1315.02 192.48C1288.84 212.67 1254.88 222.92 1221.72 221.29L1222.36 208.13C1252.41 209.64 1283.47 200.23 1306.98 182.05L1315.02 192.48Z" />
				<path id="&lt;Path&gt;" class="shp4" d="M1322.69 202.44C1293.98 224.55 1257.23 235.59 1221.11 233.84L1221.75 220.69C1254.76 222.31 1288.6 212.1 1314.65 192L1322.69 202.44Z" />
				<path id="&lt;Path&gt;" class="shp5" d="M1330.36 212.39C1299.11 236.42 1259.58 248.26 1220.5 246.4L1221.14 233.24C1257.11 234.99 1293.73 223.98 1322.33 201.96L1330.36 212.39Z" />
				<path id="&lt;Path&gt;" class="shp6" d="M1338.03 222.35C1304.24 248.29 1261.93 260.94 1219.89 258.95L1220.53 245.8C1259.47 247.66 1298.87 235.85 1330 211.92L1338.03 222.35Z" />
				<path id="&lt;Path&gt;" class="shp7" d="M1345.7 232.31C1327.6 246.26 1307.16 256.56 1285.73 263.14C1264.3 269.71 1241.81 272.59 1219.28 271.51L1219.92 258.35C1261.82 260.33 1304 247.73 1337.67 221.88L1345.7 232.31Z" />
			</g>
			<path id="&lt;Path&gt;" class="shp8" d="M1193.14 322.55L1194.95 364.29C1181.79 367.11 1171.45 371.1 1163.93 376.27C1156.41 381.44 1139.72 402.6 1113.87 439.73L1077.91 347.37C1079.32 338.9 1078.38 332.09 1075.09 326.92C1070.15 319.16 1058.17 321.98 1058.87 327.62C1059.34 331.38 1060.99 334.2 1063.81 336.08C1060.52 341.72 1059.81 346.19 1061.69 349.48C1063.57 352.77 1065.92 355.12 1068.74 356.53C1080.96 437.38 1089.9 480.39 1095.54 485.56C1101.18 490.73 1124.68 471.22 1166.04 427.04L1184.38 533.51C1179.68 552.31 1178.27 570.41 1180.15 587.8C1182.03 605.19 1187.2 646.79 1195.66 712.6L1116.69 852.2L1104 865.6L1135.73 892.39L1127.27 862.78C1194.01 780.05 1229.5 735.39 1233.73 728.81C1237.96 722.23 1239.14 675.93 1237.26 589.91L1248.54 587.8C1272.51 672.41 1286.14 719.41 1289.43 728.81C1292.72 738.22 1304.95 795.09 1326.1 899.44C1356.18 898.97 1371.93 898.5 1373.34 898.03C1373.34 897.09 1362.53 891.45 1340.9 881.11C1335.26 783.81 1331.5 729.28 1329.62 717.53C1327.74 705.78 1314.58 643.73 1290.14 531.39L1268.99 422.1C1327.74 430.09 1363 430.56 1374.75 423.51C1386.5 416.46 1382.97 367.11 1364.17 275.45C1371.69 270.28 1374.04 264.87 1371.22 259.23C1368.4 253.59 1363.23 259 1355.71 275.45L1345.84 388.97C1291.31 376.74 1260.29 369.46 1252.77 367.11C1245.25 364.76 1234.44 362.88 1220.34 361.47L1216.44 340.3L1193.14 322.55Z" />
			<path id="&lt;Path&gt;" class="shp9" d="M1295.96 174.06L1383.94 291.27L1387.62 288.4L1299.98 170.93L1295.96 174.06Z" />
			<g id="&lt;Group&gt;">
				<path id="&lt;Path&gt;" class="shp2" d="M1094.92 260.96C1067.07 250.58 1042.69 229.17 1028.11 202.84L1039.62 196.44C1052.67 220.07 1074.8 239.45 1099.55 248.63L1094.92 260.96Z" />
				<path id="&lt;Path&gt;" class="shp3" d="M1090.3 273.3C1059.34 261.71 1032.71 238.26 1016.6 209.24L1028.11 202.84C1042.69 229.17 1067.07 250.58 1094.92 260.96L1090.3 273.3Z" />
				<path id="&lt;Path&gt;" class="shp4" d="M1085.89 285.07C1051.96 272.34 1023.19 246.95 1005.62 215.34L1017.13 208.95C1033.17 237.85 1059.69 261.21 1090.51 272.74L1085.89 285.07Z" />
				<path id="&lt;Path&gt;" class="shp5" d="M1081.48 296.84C1044.58 282.97 1013.66 255.63 994.63 221.45L1006.14 215.05C1023.64 246.53 1052.31 271.83 1086.1 284.51L1081.48 296.84Z" />
				<path id="&lt;Path&gt;" class="shp6" d="M1077.07 308.61C1037.2 293.59 1004.14 264.31 983.64 227.56L995.15 221.16C1014.12 255.22 1044.93 282.46 1081.69 296.28L1077.07 308.61Z" />
				<path id="&lt;Path&gt;" class="shp7" d="M1072.66 320.38C1051.25 312.35 1031.71 300.43 1014.83 285.7C997.94 270.96 983.62 253.37 972.66 233.67L984.17 227.27C1004.59 263.9 1037.55 293.09 1077.28 308.05L1072.66 320.38Z" />
			</g>
			<path id="&lt;Path&gt;" class="shp9" d="M1095.89 247.39L1042.75 383.97L1047.12 385.58L1100.67 249.15L1095.89 247.39Z" />
			<path id="&lt;Path&gt;" class="shp10" d="M1216.44 340.3L1193.14 322.55L1194.1 344.66C1200.53 349.14 1209.42 353.98 1219.23 355.48L1216.44 340.3Z" />
			<g id="&lt;Group&gt;">
				<path id="&lt;Path&gt;" class="shp10" d="M1308.36 615.71C1293.62 619.28 1275.96 621.32 1258.39 622.42C1260.65 630.35 1263.15 639.11 1265.73 648.11C1283.98 643.97 1299.92 637.43 1311.2 628.94C1310.26 624.53 1309.31 620.11 1308.36 615.71Z" />
				<path id="&lt;Path&gt;" class="shp10" d="M1237.75 623.33C1215.47 623.92 1195.42 623.31 1184.32 622.82C1185.43 631.83 1186.64 641.56 1187.85 651.17C1204.45 653.47 1221.55 653.81 1237.88 652.39C1237.89 642.2 1237.83 632.22 1237.75 623.33Z" />
			</g>
			<path id="&lt;Path&gt;" class="shp10" d="M1172.39 411.53L1166.04 427.04L1169.35 446.24C1173.47 436.09 1174.48 424.52 1172.39 411.53Z" />
			<path id="&lt;Path&gt;" class="shp11" d="M1290.14 531.39C1272.75 536.09 1257.23 538.91 1243.6 539.85C1229.97 540.79 1209.29 538.91 1181.56 534.21C1178.74 548.78 1176.86 561.71 1175.92 572.99C1174.98 584.27 1176.15 603.31 1179.44 630.1L1240.78 630.81L1237.26 589.91L1245.72 593.44L1255.59 628.69C1286.14 626.81 1305.89 622.11 1314.82 614.59C1315.29 612.71 1307.06 584.98 1290.14 531.39Z" />
			<path id="&lt;Path&gt;" class="shp8" d="M1185.31 305.94C1177.64 300.65 1173.1 301.53 1171.68 308.59C1170.27 315.64 1175.68 319.87 1187.9 321.28C1198.24 343.37 1211.64 352.07 1228.09 347.37C1252.77 340.31 1235.85 305.06 1233.03 290.96C1230.21 276.86 1232.32 266.28 1209.76 256.41C1191.76 248.54 1162.98 266.62 1185.31 305.94Z" />
			<path id="&lt;Path&gt;" class="shp12" d="M1186.49 307.18C1176.15 306.24 1168.86 300.36 1164.63 289.55C1158.29 273.33 1166.75 255 1186.49 250.77C1202.88 247.26 1225.98 250.77 1231.62 264.17C1235.38 273.1 1235.14 280.38 1230.91 286.02C1228.09 277.09 1223.63 271.92 1217.52 270.51C1209.83 268.74 1208.35 278.97 1202 279.68C1195.66 280.38 1176.15 286.19 1186.49 307.18Z" />
			<path id="&lt;Path&gt;" class="shp13" d="M1178.03 369.22C1192.6 400.25 1198.24 421.63 1194.95 433.39C1191.66 445.14 1183.44 451.25 1170.27 451.72L1174.51 538.44C1234.67 543.14 1275.57 539.85 1297.19 528.57C1297.19 528.1 1289.67 499.19 1274.63 441.85C1264.29 434.8 1257.23 424.69 1253.47 411.53C1249.71 398.37 1248.07 382.38 1248.54 363.58L1230.21 359.35C1233.97 388.49 1231.85 403.77 1223.86 405.18C1215.87 406.59 1206.23 392.96 1194.95 364.29L1178.03 369.22Z" />
			<path id="&lt;Compound Path&gt;" fill-rule="evenodd" class="shp2" d="M1249.49 425.3C1248.65 431.79 1247.59 438.25 1246.19 444.65C1244.8 451.02 1243.3 457.5 1240.78 463.53C1240.51 464.17 1240.08 464.62 1239.59 464.9C1239.13 465.75 1238 466.28 1237.08 465.68C1234.07 463.71 1231.63 460.9 1229.33 458.15C1227.06 455.43 1224.91 452.58 1223.01 449.58C1219.14 443.46 1216.07 436.85 1213.8 429.97C1213.05 427.71 1215.71 426.11 1217.58 427.07C1223.58 430.1 1228.81 434.27 1233.17 439.29C1235.15 432.62 1239.4 426.86 1245.39 422.94C1246.98 421.9 1249.76 423.24 1249.49 425.3ZM1243.03 432.33C1239.92 436.08 1237.86 440.74 1237.37 445.57C1237.11 448.2 1233.9 449.25 1232.36 446.92C1229.4 442.46 1225.65 438.63 1221.36 435.48C1223.05 439.48 1225.02 443.36 1227.32 447.06C1229.09 449.91 1230.98 452.7 1233.06 455.34C1234.17 456.75 1235.38 458.1 1236.55 459.47C1237.94 454.29 1239.54 449.16 1240.75 443.92C1241.64 440.08 1242.4 436.22 1243.03 432.33Z" />
			<path id="&lt;Path&gt;" class="shp14" d="M1261.1 584.97C1258.51 585.82 1255.99 586.8 1253.38 587.58C1253.41 585.88 1253.31 584.16 1253.18 582.5C1252.93 579.39 1252.39 576.28 1251.66 573.25C1250.26 567.44 1247.65 561.86 1244.86 556.6C1243.64 554.3 1240.21 556.33 1241.38 558.63C1243.91 563.63 1245.2 568.96 1246.12 574.47C1246.56 577.13 1246.75 579.81 1246.86 582.5C1246.95 584.71 1246.76 586.93 1246.77 589.13C1245.32 589.4 1243.85 589.64 1242.39 589.84C1236.02 590.68 1229.68 590.29 1223.29 590.18C1220.65 590.14 1220.36 593.79 1222.69 594.6C1229.18 596.85 1236.5 597.1 1243.3 596.59C1250.19 596.08 1257.62 594.58 1263.9 591.61C1267.62 589.86 1265 583.7 1261.1 584.97Z" />
			<path id="&lt;Path&gt;" class="shp14" d="M1202.75 554.31C1201.62 559.48 1199.75 564.16 1196.89 568.61C1195.54 570.71 1194.07 572.71 1192.42 574.59C1190.67 576.59 1188.66 578.3 1186.81 580.19C1185.6 581.43 1185.58 583.48 1186.81 584.71C1188.11 586.01 1190 585.83 1191.32 584.71C1193.45 582.91 1195.21 580.52 1196.83 578.28C1198.48 576.02 1199.95 573.63 1201.2 571.13C1203.67 566.2 1205.63 560.81 1206.78 555.42C1207.34 552.8 1203.33 551.68 1202.75 554.31Z" />
			<path id="&lt;Path&gt;" class="shp14" d="M1297.35 570.2C1296.46 567.54 1293.24 566.37 1291.01 565C1289.98 564.35 1288.97 563.66 1287.99 562.93C1287.88 562.84 1287.64 562.66 1287.59 562.62C1287.39 562.46 1287.19 562.29 1286.99 562.12C1286.51 561.72 1286.04 561.31 1285.57 560.89C1281.97 557.58 1279.17 554.13 1276.79 549.9C1275.54 547.69 1271.67 549.17 1272.59 551.67C1274.46 556.75 1277.24 561.32 1281.02 565.22C1282.88 567.15 1284.94 568.87 1287.11 570.44C1288.13 571.17 1289.18 571.85 1290.28 572.45C1291.73 573.22 1293.88 574.13 1295.5 573.46C1296.77 572.94 1297.85 571.69 1297.35 570.2Z" />
		</g>
		<g id="&lt;Group&gt;">
			<path id="&lt;Path&gt;" class="shp15" d="M917.97 548.4C921.24 575.8 949.81 686.32 955.43 706.69C959.18 720.27 962.61 772.02 965.73 861.94L986.81 879.5L946.77 873.88L915.86 716.53L868.79 595C858.02 688.66 852.4 737.83 851.94 742.52C851.47 747.2 831.33 788.41 791.52 866.15L802.06 888.63L773.26 866.85C794.18 797.54 809.32 752.59 818.69 731.98C825.71 715.12 812.6 607.65 811.9 590.79C811.43 579.55 814.94 562.61 822.43 539.98L917.97 548.4Z" />
			<path id="&lt;Path&gt;" class="shp16" d="M955.43 706.69C949.81 686.32 920.31 568.31 917.03 540.91L822.43 539.98C814.94 562.61 811.43 579.55 811.9 590.79C812.6 607.65 825.71 715.12 818.69 731.98C809.42 752.37 792.62 804.53 782.25 837.69C788.17 840.92 795.17 844.8 800.8 847.94C817.61 814.85 851.41 747.79 851.94 742.52C852.4 737.83 858.02 688.66 868.79 595L915.86 716.53L940.16 840.27L964.8 837.69C963.16 797.89 959.55 721.61 955.43 706.69Z" />
			<path id="&lt;Path&gt;" class="shp15" d="M862.47 328.07C861.17 348.72 859.55 361.84 857.63 367.44C854.75 375.83 839.29 373.73 830.16 372.32C821.03 370.92 809.55 382.86 806.04 391.99C803.7 398.08 793.01 430.16 773.96 488.23L795.04 493.85L823.37 423.37L823.84 512.11L895.49 512.11L907.43 421.49L925.69 488.93L950.98 485.42C933.19 421.73 921.95 386.84 917.26 380.75C910.24 371.62 882.14 375.83 880.74 369.51C879.8 365.3 879.8 353.82 880.74 335.09L862.47 328.07Z" />
			<path id="&lt;Path&gt;" class="shp17" d="M880.13 360.78C880.03 353.74 880.23 345.18 880.74 335.09L862.47 328.07C861.94 336.42 861.24 344.36 860.36 351.88C865.29 355.54 872.11 359.41 880.13 360.78Z" />
			<path id="&lt;Path&gt;" class="shp18" d="M898.3 297.16C904.39 286.39 904.85 275.62 899.7 264.85C891.98 248.69 860.01 239.36 842.27 256.67C839.29 254.31 820.38 247.09 806.65 256.67C792.93 266.25 805.57 299.27 802.06 320.34C798.55 341.41 786.61 341.41 783.8 339.31C792.93 356.17 817.51 354.76 822.43 342.12C827.35 329.47 818.22 276.79 822.43 270.47C825.24 266.25 830.65 263.02 838.65 260.77C828.31 269.11 825.01 281.47 828.75 297.86C832.5 314.25 840.13 321.47 851.64 319.51L898.3 297.16Z" />
			<path id="&lt;Path&gt;" class="shp15" d="M848.86 300.03C844.46 288.5 840.59 286.54 837.26 294.16C833.93 301.78 837.33 308.77 847.47 315.15C856.07 333.59 869.03 342.58 886.36 342.12C908.83 320.34 905.74 290.24 899.21 276.14C899 278.89 882.41 272.56 874.2 263.09C870.9 262.74 857.72 297.99 848.86 300.03Z" />
			<path id="&lt;Compound Path&gt;" class="shp19" d="M908.69 415.33C908.38 411.12 907.98 406.9 907.47 402.71C906.49 394.69 904.67 386.81 901.71 379.21C901.01 377.42 900.24 375.66 899.44 373.91C898.99 372.94 897.42 373.5 897.4 374.42C897.24 382.89 896.96 391.51 894.41 399.7C893.15 403.74 891.31 407.62 888.67 411.06C886.08 414.45 882.64 417.12 879.27 419.82C876.36 422.15 873.48 424.59 871.3 427.52C868.98 421.38 860.4 419.24 855.97 414.49C853.07 411.39 851.98 407.22 851.11 403.3C850.09 398.74 849.24 394.14 848.53 389.53C847.7 384.11 847.06 378.65 846.67 373.19C846.63 372.59 846.16 372.1 845.48 372.09C843.12 372.07 840.76 372.05 838.4 372.03C837.43 372.02 837.06 372.87 837.28 373.54C836.76 373.2 835.92 373.5 836.11 374.24C837.91 381.29 838.58 388.48 837.22 395.65C836.56 399.12 835.49 402.54 833.96 405.77C832.42 409.02 830.41 412 828.43 415.04C824.89 420.48 820.61 426.92 822.38 433.53C823.99 439.52 829.78 443.29 835.58 445.63C839.22 447.1 843.07 448.39 847.01 448.93C850.85 449.46 854.56 449.02 858.17 447.72C864.41 445.48 870.66 440.62 877.72 441.41C884.86 442.21 891.48 447.2 898.83 444.24C905.94 441.39 908.6 434.03 909.03 427.41C909.3 423.39 908.99 419.34 908.69 415.33Z" />
			<g id="&lt;Clip Group&gt;" clip-path="url(#cp1)">
				<g id="&lt;Group&gt;">
					<path id="&lt;Path&gt;" class="shp2" d="M957.34 409.22C905.79 443.67 839.23 458.62 775.88 450.88L778.57 423.47C835.39 430.47 895.71 416.83 941.44 386.18L957.34 409.22Z" />
					<path id="&lt;Path&gt;" class="shp3" d="M973.25 432.27C915.88 470.51 843.07 486.76 773.18 478.3L775.88 450.88C839.23 458.62 905.79 443.67 957.34 409.22L973.25 432.27Z" />
					<path id="&lt;Path&gt;" class="shp4" d="M988.44 454.27C925.51 496.14 846.73 513.63 770.6 504.47L773.3 477.05C842.89 485.48 915.42 469.29 972.53 431.22L988.44 454.27Z" />
					<path id="&lt;Path&gt;" class="shp5" d="M1003.62 476.27C935.13 521.76 850.4 540.5 768.03 530.64L770.73 503.22C846.56 512.35 925.05 494.92 987.71 453.22L1003.62 476.27Z" />
					<path id="&lt;Path&gt;" class="shp6" d="M1018.81 498.27C944.76 547.38 854.06 567.37 765.46 556.81L768.15 529.39C850.22 539.22 934.67 520.54 1002.9 475.22L1018.81 498.27Z" />
					<path id="&lt;Path&gt;" class="shp7" d="M1033.99 520.27C994.31 546.68 950.07 565.12 904.13 575.6C858.17 586.08 810.36 588.68 762.88 582.98L765.58 555.56C853.89 566.09 944.3 546.16 1018.08 497.22L1033.99 520.27Z" />
				</g>
			</g>
			<path id="&lt;Path&gt;" class="shp15" d="M980.72 490.4C981.26 490.3 981.8 490.2 982.35 490.09C984.37 489.72 985.52 487.33 985.23 485.48C985.06 484.45 984.57 483.66 983.88 483.08C984.29 482.52 984.56 481.86 984.64 481.09C984.87 478.98 983.53 477.12 981.49 476.55C981.08 476.43 980.66 476.32 980.24 476.2C981.54 476.06 982.83 475.91 984.12 475.77C986.19 475.54 988.16 473.94 988 471.67C987.84 469.44 986.14 467.81 983.9 467.79C980.13 467.75 976.37 467.95 972.63 468.42C970.7 468.66 968.7 468.87 966.83 469.41C964.96 469.95 963.13 470.56 961.31 471.27C960.98 471.4 960.69 471.6 960.44 471.83C959.04 472.54 958 474.12 958.11 475.69C958.22 477.13 958.96 478.36 960.11 479.1C959 479.72 958.21 480.78 958.06 482.21C957.87 483.99 958.78 485.51 960.26 486.32C959.26 487.14 958.59 488.51 958.68 489.7C958.81 491.53 960 493.12 961.81 493.59C966.91 494.89 972 496.19 977.09 497.5C979.18 498.03 981.63 496.65 982.06 494.49C982.38 492.92 981.84 491.38 980.72 490.4Z" />
			<path id="&lt;Path&gt;" class="shp15" d="M785.26 485.64C772.15 482.08 764.89 481.48 763.48 483.86C762.08 486.24 763.48 488.62 767.7 491C763.02 491.79 760.91 493.57 761.38 496.35C761.85 499.12 764.89 500.11 770.51 499.32C762.55 503.28 759.97 506.45 762.78 508.83C767 512.4 788.07 510.62 788.77 507.05C789.24 504.67 787.6 503.09 783.86 502.29C789.01 500.71 791.58 498.92 791.58 496.94C791.58 494.96 789.01 493.77 783.86 493.37C789.01 493.37 791.82 491.99 792.29 489.21C792.75 486.44 790.41 485.25 785.26 485.64Z" />
			<path id="&lt;Path&gt;" class="shp3" d="M799.04 886.3C799.55 885.74 800.07 885.18 800.58 884.62C801.08 884.07 801.61 883.55 802.09 882.99C802.41 882.6 802.75 882.14 802.97 881.68C803.24 881.13 803.24 880.58 803.26 879.98C803.28 879.01 802.34 878.45 801.47 878.62C801.05 878.7 800.63 878.76 800.25 878.97C799.87 879.18 799.48 879.57 799.17 879.88C798.83 880.22 798.56 880.65 798.27 881.03C798.07 881.29 797.87 881.54 797.68 881.8C797.27 882.33 796.86 882.87 796.45 883.4C796.01 883.97 795.5 884.52 795.3 885.2C795.14 885.08 794.97 884.97 794.82 884.85C793.89 884.17 792.95 883.51 792.01 882.84C792.56 882.38 793.05 881.85 793.55 881.33C794.08 880.78 794.61 880.23 795.13 879.68C795.5 879.3 795.85 878.9 796.13 878.44C796.28 878.19 796.42 877.96 796.53 877.68C796.7 877.28 796.73 876.86 796.77 876.43C796.86 875.7 796.31 874.92 795.71 874.57C794.98 874.15 794.27 874.26 793.53 874.57C792.55 874.99 791.88 875.96 791.37 876.86C790.99 877.53 790.62 878.2 790.24 878.86C789.88 879.51 789.52 880.15 789.22 880.84C788.51 880.33 787.79 879.82 787.09 879.31C784.61 877.5 782.19 875.59 779.65 873.86C777.02 872.08 774.48 870.05 771.44 869.03C770.26 868.64 769.17 870.11 769.82 871.14C771.48 873.77 774.01 875.67 776.35 877.66C778.79 879.73 781.4 881.6 783.97 883.51C786.43 885.35 788.91 887.17 791.42 888.96C792.74 889.91 794.12 890.78 795.49 891.67C796.82 892.53 798.23 893.52 799.78 893.92C801.37 894.32 803.14 892.45 802.07 890.93C801.06 889.49 799.6 888.28 798.07 887.16C798.43 886.92 798.74 886.62 799.04 886.3Z" />
			<path id="&lt;Path&gt;" class="shp3" d="M985.86 881.29C983.64 880.5 981.19 880.12 978.79 879.78C978.81 879.66 978.84 879.55 978.86 879.43C979.07 878.46 979.27 877.51 979.4 876.53C979.55 875.46 979.74 874.39 979.84 873.32C979.94 872.26 980.19 871.03 979.91 870C979.69 869.17 978.96 868.57 978.13 868.46C977.34 868.35 976.35 868.72 975.99 869.48C975.48 870.55 975.49 871.82 975.37 872.99C975.27 873.98 975.26 874.97 975.21 875.96C975.17 876.92 975.19 877.87 975.22 878.83C975.23 878.97 975.23 879.12 975.23 879.28C973.58 879.03 971.94 878.79 970.29 878.57C970.38 878.37 970.46 878.17 970.54 877.97C970.95 876.97 971.16 875.9 971.43 874.85C971.69 873.84 971.99 872.83 972.17 871.81C972.26 871.29 972.36 870.78 972.43 870.26C972.54 869.47 972.4 868.82 972.17 868.08C971.84 867.04 970.27 866.37 969.48 867.37C969.04 867.92 968.56 868.45 968.35 869.13C968.18 869.66 968.11 870.24 968 870.78C967.78 871.91 967.68 873.06 967.53 874.2C967.41 875.22 967.19 876.26 967.2 877.29C967.21 877.57 967.22 877.86 967.22 878.14C966.69 878.07 966.16 878 965.63 877.92C962.35 877.46 959.07 877.08 955.77 876.73C952.66 876.4 948.88 875.42 945.86 876.57C944.95 876.91 944.82 877.99 945.6 878.56C948.12 880.4 951.82 880.48 954.81 880.97C958.2 881.53 961.59 882.06 965.01 882.51C968.34 882.94 971.67 883.4 975.01 883.81C978.38 884.23 982.02 884.9 985.4 884.65C987.34 884.5 987.7 881.96 985.86 881.29Z" />
			<path id="&lt;Path&gt;" class="shp0" d="M828.71 658.19C827.11 636.46 824.25 614.57 824.43 592.76C824.48 587.04 824.75 581.31 825.47 575.64C826.23 569.67 827.31 563.2 829.37 557.53C829.85 556.21 827.74 555.64 827.27 556.95C825.46 561.94 823.7 566.68 822.69 571.92C821.72 576.89 821.09 581.96 820.8 587.01C820.19 597.58 820.74 608.17 821.42 618.72C822.89 641.67 824.52 664.61 826.2 687.54C827.14 700.48 828.26 713.4 829.2 726.33C829.4 729.08 833.71 729.1 833.51 726.33C831.85 703.62 830.39 680.9 828.71 658.19Z" />
			<path id="&lt;Path&gt;" class="shp0" d="M826.94 736.39C824.41 740.35 822.68 744.82 820.87 749.14C818.97 753.69 817.06 758.23 815.23 762.81C811.65 771.79 808.06 780.77 804.47 789.74C800.96 798.53 797.33 807.28 794.06 816.17C792.46 820.51 790.99 824.91 789.88 829.41C788.9 833.34 787.57 838.09 788.41 842.13C788.78 843.95 791.14 843.54 791.7 842.13C792.53 840.05 792.7 837.62 793.13 835.41C793.57 833.15 794.08 830.91 794.69 828.68C795.83 824.53 797.25 820.46 798.76 816.43C802.04 807.72 805.59 799.11 809 790.45C812.49 781.62 815.97 772.8 819.46 763.97C821.13 759.73 822.74 755.46 824.35 751.18C826.06 746.62 827.96 742.01 828.88 737.21C829.1 736.04 827.61 735.34 826.94 736.39Z" />
			<path id="&lt;Path&gt;" class="shp19" d="M902.37 391.4C902.45 385.88 899.85 380.73 900.08 375.23C900.06 370.36 892.75 370.4 892.53 375.23C892.58 382.79 892.2 390.34 891.34 397.85C890.76 402.84 889.82 407.73 888.82 412.62C885.16 417.51 880.37 421.52 876.13 426.14C874.98 427.4 876.42 429.27 877.94 428.48C881.41 426.69 884.57 424.54 887.37 422.05C888.3 425.15 893.19 425.95 894.34 422.09C895.63 417.74 896.64 413.26 897.45 408.71C897.78 408.04 898.12 407.39 898.42 406.69C900.49 401.9 902.29 396.68 902.37 391.4Z" />
		</g>
		<g id="&lt;Group&gt;">
			<g id="&lt;Group&gt;">
				<path id="&lt;Path&gt;" class="shp2" d="M644.45 185.48C639.01 191.22 632.25 197.28 624.48 202.98C622.62 204.44 620.43 205.74 618.43 207.14C616.34 208.49 614.44 209.99 612.19 211.24C607.78 213.8 603.59 216.57 598.9 218.9C580.66 228.74 560.74 236.93 540.23 243.56C499.11 256.79 455.65 264.05 412.49 265.68C369.3 267.35 326.14 262.92 285.61 251.44C245.14 239.98 207.29 221.09 176.77 193.81L193.52 167.58C220.19 191.43 254.46 208.82 292.09 219.46C329.74 230.14 370.59 234.41 411.64 232.81C452.65 231.27 494.18 224.31 532.91 211.83C552.22 205.6 570.83 197.91 587.34 189C591.63 186.88 595.3 184.41 599.24 182.14C601.28 181.03 602.86 179.74 604.69 178.56C606.4 177.35 608.36 176.21 609.9 174.98C612.97 172.54 616.38 170.18 618.75 167.86C621.7 165.53 623.3 163.42 625.46 161.48L644.45 185.48Z" />
				<path id="&lt;Path&gt;" class="shp3" d="M663.44 209.48C656.26 217.14 648.03 224.39 639.07 230.97C636.88 232.67 634.46 234.13 632.17 235.73C629.82 237.25 627.61 238.95 625.14 240.34C620.26 243.19 615.54 246.26 610.46 248.81C590.5 259.58 569.25 268.27 547.54 275.29C504.04 289.27 458.64 296.84 413.33 298.56C368.01 300.28 322.54 295.71 279.14 283.42C235.82 271.14 194.4 250.74 160.02 220.05L176.77 193.81C207.29 221.09 245.14 239.98 285.61 251.44C326.14 262.92 369.3 267.35 412.49 265.68C455.65 264.05 499.11 256.79 540.23 243.56C560.74 236.93 580.66 228.74 598.9 218.9C603.59 216.57 607.78 213.8 612.19 211.24C614.44 209.99 616.34 208.49 618.43 207.14C620.43 205.74 622.62 204.44 624.48 202.98C632.25 197.28 639.01 191.22 644.45 185.48L663.44 209.48Z" />
				<path id="&lt;Path&gt;" class="shp4" d="M681.57 232.4C672.72 241.89 663.09 250.26 652.99 257.69C650.5 259.61 647.85 261.22 645.29 263.01C642.69 264.71 640.18 266.6 637.49 268.11C632.18 271.24 626.95 274.61 621.49 277.36C599.88 289.01 577.39 298.18 554.52 305.58C508.75 320.28 461.5 328.13 414.14 329.94C366.78 331.73 319.11 327 272.95 313.95C249.89 307.4 227.24 298.69 205.51 287.36C183.8 276.03 163.01 262.04 144.03 245.09L160.78 218.85C194.98 249.39 236.24 269.72 279.43 281.97C322.71 294.22 368.07 298.79 413.29 297.06C458.5 295.35 503.82 287.8 547.21 273.85C568.87 266.84 590.05 258.18 609.93 247.45C615 244.91 619.7 241.85 624.55 239.01C627.01 237.64 629.21 235.95 631.55 234.43C633.82 232.84 636.24 231.38 638.4 229.7C647.32 223.16 655.47 215.97 662.58 208.39L681.57 232.4Z" />
				<path id="&lt;Path&gt;" class="shp5" d="M699.69 255.31C678.62 277.95 655.74 293.37 632.52 305.91C609.27 318.44 585.52 328.09 561.5 335.87C513.46 351.29 464.36 359.42 414.94 361.32C365.55 363.17 315.67 358.3 266.77 344.48C242.34 337.54 218.17 328.27 194.79 316.07C171.43 303.88 148.84 288.71 128.04 270.13L144.79 243.89C163.69 260.77 184.39 274.7 206.02 285.99C227.67 297.28 250.25 305.97 273.25 312.5C319.27 325.51 366.84 330.23 414.1 328.44C461.36 326.64 508.53 318.8 554.19 304.14C577 296.75 599.44 287.61 620.97 276C626.41 273.26 631.61 269.91 636.91 266.79C639.58 265.28 642.08 263.4 644.67 261.71C647.21 259.93 649.85 258.33 652.33 256.42C662.38 249.03 671.93 240.71 680.7 231.31L699.69 255.31Z" />
				<path id="&lt;Path&gt;" class="shp6" d="M717.82 278.22C693.37 304.48 668.4 320.96 643.56 334.46C618.66 347.87 593.65 358 568.49 366.15C518.17 382.29 467.21 390.72 415.75 392.7C364.32 394.61 312.24 389.6 260.58 375.01C234.78 367.68 209.11 357.85 184.07 344.79C159.06 331.73 134.67 315.38 112.05 295.17L128.8 268.94C149.52 287.44 172.02 302.55 195.3 314.71C218.6 326.86 242.7 336.1 267.06 343.03C315.84 356.81 365.61 361.67 414.9 359.82C464.22 357.93 513.24 349.81 561.17 334.42C585.13 326.66 608.82 317.04 632 304.55C655.14 292.05 677.91 276.69 698.83 254.22L717.82 278.22Z" />
				<path id="&lt;Path&gt;" class="shp7" d="M735.95 301.13C729.11 308.28 722.01 315.7 715.23 321.37C708.29 327.7 701.58 332.64 694.75 337.85C691.33 340.44 688.03 342.52 684.65 344.86C681.3 347.06 677.88 349.54 674.57 351.44C667.92 355.41 661.19 359.64 654.59 363C628.05 377.31 601.78 387.9 575.47 396.44C522.88 413.3 470.07 422.01 416.55 424.08C363.09 426.05 308.8 420.89 254.4 405.54C227.23 397.82 200.04 387.43 173.35 373.5C146.69 359.58 120.5 342.05 96.06 320.21L112.81 293.98C135.35 314.11 159.65 330.41 184.58 343.42C209.54 356.44 235.14 366.24 260.88 373.56C312.4 388.11 364.38 393.11 415.71 391.21C467.08 389.23 517.95 380.82 568.15 364.71C593.26 356.57 618.21 346.47 643.03 333.1C667.8 319.64 692.67 303.21 716.96 277.13L735.95 301.13Z" />
			</g>
			<g id="&lt;Group&gt;">
				<path id="&lt;Path&gt;" class="shp20" d="M397.51 870.79L401.74 894.76L418.66 890.53L410.2 869.38L397.51 870.79Z" />
				<path id="&lt;Path&gt;" class="shp12" d="M418.66 890.53L401.74 894.76L401.03 908.16C417.01 908.16 433 903.46 448.98 894.06C447.1 893.12 436.99 891.94 418.66 890.53Z" />
			</g>
			<g id="&lt;Group&gt;">
				<path id="&lt;Path&gt;" class="shp20" d="M202.96 856.84L188.69 876.56L203.5 885.76L212.81 864.97L202.96 856.84Z" />
				<path id="&lt;Path&gt;" class="shp12" d="M203.5 885.76L188.69 876.56L178.58 885.37C189.7 896.85 204.19 905.06 222.07 909.99C221.43 907.99 215.25 899.91 203.5 885.76Z" />
			</g>
			<path id="&lt;Path&gt;" class="shp20" d="M297.38 319.42C289.76 354.81 284.69 374.35 282.15 378.04C278.35 383.58 260.72 371.59 245.21 373.71C234.87 375.12 214.5 375.67 184.1 375.35L152.84 243.27C158.01 233.87 159.66 227.05 157.78 222.82C155.9 218.59 150.96 223.53 142.97 237.63C140.62 243.11 139.92 248.91 140.86 255.02C142.27 264.19 145.32 382.17 153.08 399.8C158.25 411.55 184.57 416.87 232.05 415.78L240.27 559.85C288.22 565.49 322.77 563.14 343.92 552.8L346.74 442.1C367.42 489.11 379.64 517.31 383.4 526.71C389.05 540.81 441.93 631.77 449.68 627.54C454.85 624.72 452.97 615.32 444.04 599.33C448.74 600.74 451.8 600.04 453.21 597.22C454.62 594.4 450.62 591.34 441.22 588.05L403.15 514.49C384.81 447.43 373.77 409.43 370.01 400.5C366.25 391.57 348.15 384.05 315.72 377.94L322.77 335.63L297.38 319.42Z" />
			<path id="&lt;Path&gt;" class="shp21" d="M540.4 305.79C535.39 337.12 531.94 354.67 530.06 358.43C527.24 364.07 502.33 359.37 485.88 364.07C474.91 367.21 465.66 404.81 458.14 476.88C451.56 499.76 446.24 519.82 442.16 537.05C438.09 554.29 434.33 569.8 430.88 583.59C425.24 612.1 424.77 627.46 429.47 629.65C434.17 631.85 439.18 623.54 444.51 604.74C445.77 610.69 447.8 612.26 450.62 609.44C453.44 606.62 452.5 600.35 447.8 590.64L480.71 478.77L492.93 416.72L498.1 521.54C492.46 535.33 489.32 549.27 488.7 563.38C488.07 577.48 488.54 616.33 490.11 679.95L446.86 846.82C441.22 854.65 439.18 859.82 440.75 862.33C442.32 864.84 453.91 871.26 475.54 881.6L458.61 850.11C503.74 756.1 528.02 706.58 531.47 701.57C534.92 696.56 538.52 653.94 542.28 573.72L552.62 572.78C593.96 652.38 615.59 697.66 617.49 708.62C620 723.04 616.71 777.09 607.62 870.79C620.78 880.19 634.73 884.27 649.46 883.01C653.22 882.7 645.69 876.43 626.89 864.21C649.77 765.81 661.68 711.6 662.62 701.57C663.56 691.54 638.17 632.32 586.47 523.89L592.11 410.14C629.71 400.11 653.53 392.28 663.56 386.63C673.58 380.99 674.99 324.9 667.79 218.36C667.47 208.01 665.75 202.37 662.62 201.43C659.48 200.49 658.54 206.13 659.8 218.36L648.88 357.2C609.73 363.3 586.73 366.21 579.89 365.95C569.62 365.56 557.79 357.96 558.26 348.09C558.58 341.51 560.46 330.07 563.91 313.78L540.4 305.79Z" />
			<path id="&lt;Path&gt;" class="shp22" d="M540.4 305.79C537.91 321.37 535.6 334.41 533.47 344.92C540.31 349.53 551.05 355.63 561.11 356.66C559.22 354.14 558.12 351.23 558.26 348.09C558.58 341.51 560.46 330.07 563.91 313.78L540.4 305.79Z" />
			<path id="&lt;Path&gt;" class="shp21" d="M517.97 290.62C511.84 287.36 507.57 289.2 505.16 296.12C502.75 303.04 507.57 306.32 519.62 305.96C530.21 332.98 545 343.57 563.99 337.73C592.47 328.96 574.4 301.03 573.3 288.43C572.21 275.83 573.99 262.14 552.62 251.73C531.26 241.32 508.91 258.78 517.97 290.62Z" />
			<path id="&lt;Path&gt;" class="shp23" d="M630.98 846.53C640.12 806.89 661.51 713.38 662.62 701.57C663.56 691.54 638.17 632.32 586.47 523.89L586.62 520.92C567.39 525.82 523.99 534.92 496.57 525.65C494.09 532.71 489.38 547.91 488.7 563.37C488.07 577.48 488.54 616.33 490.11 679.95L449.66 836.03L463.84 843.97C476.82 811.14 527.03 708.03 531.47 701.57C534.92 696.56 538.52 653.94 542.28 573.72L552.62 572.78C593.96 652.38 615.59 697.66 617.49 708.62C620.22 724.33 613.78 802.74 610.05 844.51L630.98 846.53Z" />
			<path id="&lt;Path&gt;" class="shp24" d="M508.44 360.31C512.83 446.17 515.02 497.25 515.02 513.55C514.39 514.18 508.75 513.86 498.1 512.61L496.57 525.65C529.55 537.64 559.52 537.05 586.47 523.89C585.84 524.52 585.84 519.82 586.47 509.79L575.19 514.49L581.77 363.13L564.85 357.49L564.85 513.55C552.12 516.45 540.82 517.82 527.24 514.49L524.42 358.43L508.44 360.31Z" />
			<path id="&lt;Path&gt;" class="shp25" d="M530.29 516.24C529.94 514.96 529.29 513.85 528.35 512.91C527.84 512.51 527.33 512.12 526.82 511.73C525.64 511.04 524.37 510.7 523.01 510.7C521.97 510.66 521 510.87 520.1 511.35C519.16 511.65 518.35 512.17 517.67 512.91C516.93 513.59 516.41 514.4 516.11 515.34C515.63 516.24 515.42 517.21 515.46 518.25L515.73 520.26C516.09 521.54 516.73 522.65 517.67 523.59C518.18 523.98 518.69 524.38 519.2 524.77C520.38 525.46 521.65 525.8 523.01 525.8C524.05 525.84 525.02 525.63 525.92 525.15C526.86 524.85 527.67 524.33 528.35 523.59C529.09 522.91 529.61 522.1 529.91 521.16C530.39 520.26 530.6 519.29 530.56 518.25C530.47 517.58 530.38 516.91 530.29 516.24Z" />
			<path id="&lt;Path&gt;" class="shp25" d="M570.96 509.83C561.94 509.83 561.92 523.85 570.96 523.85C579.97 523.85 579.99 509.83 570.96 509.83Z" />
			<g id="&lt;Group&gt;">
				<path id="&lt;Path&gt;" class="shp22" d="M557.8 379.18C555.68 377.97 552.57 378.02 550.44 379.35C548.22 377.7 545.21 378.28 543.54 380.47C541.77 382.8 542.26 386.99 545.07 388.38C545.7 388.69 546.21 387.97 545.79 387.44C544.85 386.25 544.02 385.04 544.16 383.45C544.28 382.09 545.2 380.85 546.48 380.36C547.36 380.02 548.29 380.16 549.05 380.62C548.34 381.53 547.87 382.65 547.88 383.81C547.89 384.42 548.01 385.2 548.36 385.72C548.77 386.33 549.65 386.31 550.28 386.1C551.55 385.66 552.33 384.27 552.35 382.98C552.36 382.22 552.13 381.49 551.75 380.83C553.55 379.88 555.48 380.5 557.38 380.74C558.23 380.84 558.47 379.56 557.8 379.18Z" />
				<g id="&lt;Group&gt;">
					<path id="&lt;Compound Path&gt;" class="shp22" d="M555.92 399.89C555.07 399.88 554.43 399.92 553.72 399.4C553.49 399.23 553.32 399.02 553.18 398.78C554.84 398 556.19 396.43 556.23 394.55C556.24 393.76 555.81 393.01 555.04 392.76C554.39 392.55 553.67 392.72 553.09 393.04C551.89 393.7 551.04 395.21 550.79 396.52C550.73 396.82 550.72 397.12 550.72 397.42C549.56 397.39 548.46 396.7 548.02 395.5C547.75 394.76 547.7 393.93 547.89 393.16C547.98 392.77 548.13 392.4 548.34 392.06C548.57 391.68 548.89 391.37 549.1 390.98C549.23 390.74 549.08 390.36 548.76 390.39C547.68 390.49 546.95 391.63 546.59 392.56C546.2 393.58 546.16 394.72 546.4 395.77C546.92 398 548.85 399.37 551.05 399.3C551.29 399.9 551.62 400.46 552.13 400.91C553.33 401.96 555.21 402.53 556.56 401.43C557.19 400.92 556.64 399.9 555.92 399.89Z" />
					<path id="&lt;Path&gt;" class="shp22" d="M554.4 394.71C554.41 394.71 554.42 394.7 554.43 394.7C554.43 394.7 554.44 394.7 554.44 394.7C554.43 394.7 554.41 394.71 554.4 394.71C554.4 394.71 554.4 394.71 554.4 394.71Z" />
				</g>
				<path id="&lt;Compound Path&gt;" fill-rule="evenodd" class="shp22" d="M540.43 395.69C540.28 396.42 539.24 396.09 539.35 395.4C539.63 393.58 538.83 390.85 536.68 390.61C535.98 390.54 535.19 390.76 534.65 391.19C534.24 391.52 534.03 391.92 534.01 392.38C535.1 392.2 536.24 392.36 537.21 392.88C538.58 393.62 539.32 395.29 538.45 396.71C538.06 397.36 537.37 397.85 536.6 397.86C535.74 397.88 535.09 397.31 534.49 396.78C533.89 396.26 533.31 395.67 532.86 395.01C532.73 395.09 532.6 395.16 532.48 395.26C531.83 395.76 531.29 396.45 530.97 397.21C530.59 398.09 530.52 398.91 530.54 399.86C530.55 400.63 529.4 400.99 529.04 400.26C527.69 397.54 529.63 394.47 532.07 393.08C532.06 393.03 532.04 392.99 532.03 392.94C531.72 390.15 534.82 388.29 537.31 389.04C540.05 389.87 540.99 393.16 540.43 395.69ZM534.9 394.38C535.24 394.75 535.62 395.08 535.98 395.39C536.15 395.54 536.33 395.74 536.55 395.82C536.55 395.82 536.55 395.82 536.55 395.82C536.6 395.78 536.69 395.69 536.74 395.58C536.79 395.46 536.78 395.3 536.78 395.29C536.57 394.58 535.55 394.39 534.9 394.38Z" />
				<path id="&lt;Path&gt;" class="shp22" d="M548.73 408.92C549.48 407.67 549.62 406.12 548.74 404.81C547.5 402.97 544.77 402.1 542.83 403.36C542.28 403.72 542.77 404.56 543.34 404.24C545.44 403.05 548.54 405.47 547.37 407.65C546.62 407.19 545.74 406.93 544.86 406.96C543.66 406.99 542.2 407.57 541.86 408.84C541.45 410.35 543.11 411.07 544.31 411.19C545.31 411.3 546.39 411 547.24 410.46C547.4 410.81 547.48 411.2 547.49 411.6C547.51 412.51 547.11 413.4 546.88 414.27C546.73 414.87 547.4 415.42 547.94 415.09C548.51 414.74 548.87 414.34 549.14 413.74C549.42 413.09 549.56 412.38 549.56 411.67C549.56 410.71 549.28 409.72 548.73 408.92Z" />
				<path id="&lt;Compound Path&gt;" fill-rule="evenodd" class="shp22" d="M537.58 379.42C538.16 380.75 539.27 381.9 540.49 382.59C541.16 382.97 540.57 383.94 539.9 383.61C538.23 382.79 536.84 381.39 536.07 379.7C535.47 378.37 535.31 376.82 535.95 375.48C536.63 374.03 538.32 373.42 539.75 374.16C541.23 374.92 541.89 376.87 540.87 378.26C540.4 378.88 539.71 379.35 538.94 379.49C538.53 379.57 538.02 379.56 537.58 379.42ZM538.16 377.52C538.16 377.52 538.2 377.53 538.22 377.53C538.24 377.53 538.41 377.53 538.45 377.53C538.48 377.53 538.54 377.52 538.55 377.52C538.62 377.51 538.68 377.49 538.74 377.48C539.06 377.4 539.38 377.13 539.48 376.89C539.54 376.72 539.55 376.62 539.5 376.43C539.46 376.27 539.37 376.12 539.25 375.98C538.99 375.69 538.59 375.51 538.27 375.56C537.92 375.61 537.66 375.84 537.5 376.11C537.3 376.42 537.19 376.84 537.16 377.22C537.15 377.32 537.17 377.41 537.17 377.51C537.19 377.5 537.21 377.49 537.23 377.48C537.46 377.41 537.69 377.41 537.92 377.46C538 377.48 538.08 377.5 538.16 377.52ZM538.44 377.54C538.46 377.54 538.46 377.54 538.45 377.53C538.41 377.54 538.39 377.54 538.44 377.54Z" />
			</g>
			<path id="&lt;Path&gt;" class="shp10" d="M626.89 864.21C628.33 858.04 630.13 850.24 632.29 840.83L610.72 836.91C609.56 850.15 608.53 861.44 607.62 870.79C620.78 880.19 634.73 884.27 649.46 883.01C653.22 882.7 645.69 876.43 626.89 864.21Z" />
			<path id="&lt;Path&gt;" class="shp10" d="M452.1 826.59L446.86 846.82C441.22 854.65 439.18 859.82 440.75 862.33C442.32 864.84 453.91 871.26 475.54 881.6L460.49 852.46C462.87 847.28 465.91 840.68 469.6 832.67L452.1 826.59Z" />
			<path id="&lt;Path&gt;" class="shp26" d="M569.63 568.56C566.42 568.92 563.23 569.35 560.03 569.75C559.93 569.36 559.84 568.98 559.76 568.61C559.52 567.42 559.29 566.23 559.1 565.04C558.65 562.32 558.33 559.57 558.13 556.82C557.74 551.48 557.84 546.11 558.36 540.79C558.49 539.44 556.23 539.12 555.99 540.47C555.01 545.97 554.52 551.53 554.58 557.12C554.62 559.95 554.79 562.77 555.11 565.58C555.28 567.04 555.4 568.68 555.66 570.27C554.26 570.43 552.85 570.57 551.44 570.7C551.22 568.24 550.5 565.79 550.04 563.37C549.55 560.82 549.13 558.25 548.78 555.68C548.08 550.43 547.86 545.13 547.24 539.88C547.11 538.74 545.57 538.72 545.46 539.88C544.96 545.13 545.36 550.53 545.86 555.77C546.1 558.3 546.41 560.83 546.77 563.34C547.12 565.83 547.37 568.55 548.17 570.94C545.43 571.11 542.69 571.21 539.95 571.3C538.21 571.35 536.47 571.34 534.73 571.41C533.35 571.47 531.87 571.32 530.67 572.07C530.33 572.29 530.18 572.85 530.53 573.14C532.59 574.83 536.65 574.53 539.21 574.67C542.68 574.87 546.17 574.83 549.64 574.71C552.12 574.62 554.6 574.46 557.07 574.25C557.89 575.05 559.22 574.81 559.95 573.99C563.38 573.59 566.78 573.01 570.11 572.14C572.04 571.64 571.71 568.33 569.63 568.56Z" />
			<path id="&lt;Path&gt;" class="shp26" d="M516.99 700.77C516.37 700.81 515.75 700.85 515.14 701.01C514.52 701.19 513.93 701.45 513.33 701.71C512.35 702.13 511.38 702.57 510.4 703.02C508.52 703.9 506.5 704.66 504.76 705.8C502.98 706.96 504.12 709.62 506.19 709.19C508.23 708.77 510.2 707.88 512.15 707.16C513.12 706.81 514.09 706.44 515.05 706.06C515.65 705.82 516.25 705.59 516.82 705.28C517.4 704.97 517.88 704.54 518.37 704.11C519.62 703.02 518.65 700.66 516.99 700.77Z" />
			<path id="&lt;Path&gt;" class="shp26" d="M653.49 702.44C652.85 701.45 651.67 700.9 650.51 701.22C649.15 701.6 647.89 702.46 646.67 703.15C645.61 703.73 644.56 704.32 643.51 704.9C641.27 706.15 639.01 707.4 637.04 709.05C636.43 709.56 636.37 710.6 636.76 711.26C637.17 711.96 638.03 712.29 638.81 712.1C641.31 711.47 643.7 710.28 646.02 709.2C647.12 708.69 648.21 708.18 649.31 707.67C649.86 707.42 650.4 707.16 650.95 706.91C651.75 706.54 652.38 706.18 653.07 705.63C653.95 704.94 654.06 703.33 653.49 702.44Z" />
			<path id="&lt;Compound Path&gt;" fill-rule="evenodd" class="shp27" d="M569.57 337.94C559.23 342.84 546.83 340.4 537.74 333.88C532.92 330.43 528.95 326.04 525.62 321.16C523.94 318.7 522.57 316.09 521.41 313.35C520.7 311.68 520.21 310.04 519.79 308.36C519.78 308.34 519.77 307.91 519.77 307.29C519.75 304.44 522.86 302.42 525.3 303.89C525.6 304.08 525.85 304.29 526.02 304.53C529.21 309.11 532.76 315.47 539.25 315.04C545.75 314.6 550.92 309.28 556.16 305.99C560.89 303.02 566.3 301.15 571.93 302.11C577.37 303.04 581.5 307.01 582.92 312.3C585.71 322.7 578.86 333.54 569.57 337.94ZM550.6 318.64C550.12 321.83 550.13 325.84 551.96 328.43C554.12 331.47 558.8 331.72 562.17 331.19C569.43 330.04 574.98 324.22 576 317.22C576.11 313.01 574.02 309.45 569.45 309.2C564.72 308.95 560.64 311.76 556.95 314.36C554.87 315.82 552.78 317.33 550.6 318.64Z" />
			<path id="&lt;Path&gt;" class="shp28" d="M340.16 547.39C371.81 635.14 389.05 686.06 391.87 700.16C394.69 714.26 403.38 772.78 417.95 875.73L391.16 879.96L352.38 715.67L313.84 614.14L295.97 615.55L283.28 741.06L207.84 876.43L193.03 863.74L245.21 712.85L244.5 550.68L340.16 547.39Z" />
			<path id="&lt;Path&gt;" class="shp29" d="M318.21 362.99L322.77 335.63L297.38 319.42C294.59 332.38 291.81 344.38 289.05 355.44C297.74 359.71 307.64 362.39 318.21 362.99Z" />
			<path id="&lt;Path&gt;" class="shp20" d="M281.17 298.97C272.71 293.8 268.01 295.91 267.07 305.32C266.13 314.72 271.89 317.94 284.35 314.99C297.74 339.56 312.19 349.97 327.7 346.21C350.97 340.57 341.8 306.02 341.1 297.56C340.39 289.1 337.81 267.24 327.94 258.78C318.07 250.32 268.48 255.25 281.17 298.97Z" />
			<path id="&lt;Path&gt;" class="shp30" d="M209.48 368.77C209.48 371.28 206.66 388.51 201.02 420.48L230.17 434.58L240.27 559.85C281.17 573.79 315.72 571.44 343.92 552.8C348.31 551.08 350.19 520.76 349.56 461.84L358.02 486.29L396.57 473.12C384.03 423.61 374.94 396.66 369.3 392.28C363.66 387.89 353.95 384.13 340.16 380.99C335.15 396.04 323.24 403.56 304.44 403.56C285.63 403.56 267.77 391.34 250.85 366.89L209.48 368.77Z" />
			<path id="&lt;Path&gt;" class="shp31" d="M348.66 423.9C339.87 424.51 331.17 425.59 322.34 425.53C313.26 425.47 304.2 424.5 295.3 422.73C277.74 419.23 260.71 412.47 245.64 402.79C244.41 402 243.36 403.9 244.51 404.72C259.55 415.49 276.52 423 294.61 426.9C303.42 428.8 312.44 429.81 321.46 429.96C330.64 430.11 340.24 429.59 349.07 426.87C350.63 426.39 350.44 423.77 348.66 423.9Z" />
			<path id="&lt;Path&gt;" class="shp31" d="M346.51 452.42C330.6 457.04 313.96 459.12 297.4 458.1C289.08 457.59 280.78 456.34 272.68 454.34C264.69 452.37 256.2 449.99 248.75 446.45C247.48 445.85 246.37 447.74 247.64 448.34C255.56 452.1 263.17 455.61 271.69 457.91C279.81 460.1 288.11 461.51 296.49 462.13C313.71 463.42 331.1 461.46 347.45 455.82C349.57 455.09 348.71 451.78 346.51 452.42Z" />
			<path id="&lt;Path&gt;" class="shp31" d="M329.35 488.35C323.09 489.66 316.89 491.24 310.56 492.19C304.27 493.14 297.9 493.5 291.54 493.48C278.62 493.42 266.22 490.88 253.78 487.65C252.7 487.37 251.9 489.02 252.99 489.51C264.84 494.81 278.14 497.02 291.06 497.47C304 497.93 318.21 496.62 330.23 491.56C332.16 490.75 331.5 487.9 329.35 488.35Z" />
			<path id="&lt;Path&gt;" class="shp31" d="M331 519.86C325.61 522.29 320.37 525.09 314.82 527.16C309.51 529.14 303.99 530.57 298.39 531.46C286.65 533.31 275.03 532.53 263.45 530.06C261.93 529.74 261.38 531.84 262.81 532.36C274.27 536.53 287.09 537.32 299.1 535.63C310.85 533.98 323.76 530.19 332.86 522.28C334.28 521.04 332.47 519.19 331 519.86Z" />
			<path id="&lt;Path&gt;" class="shp5" d="M283.46 384.91C283.02 384.48 282.55 384.1 282.08 383.71C284.33 379.9 284.51 374.47 280.96 371.45C278.09 369.01 273.95 369.45 271.14 371.67C270.12 370.66 268.89 369.84 267.61 369.15C265.43 367.97 262.48 367.58 260.25 368.87C256.93 370.8 257.77 374.91 260.02 377.27C260.1 377.35 260.18 377.42 260.26 377.49C259.62 377.71 258.99 377.95 258.36 378.23C254.65 379.91 249.52 383.62 250.85 388.31C252.04 392.49 257.11 394.63 261.04 395.03C261.59 395.09 262.15 395.1 262.7 395.09C263.25 397.55 264.69 399.8 266.92 400.96C270.35 402.74 274.56 401.63 277.06 398.79C277.19 398.64 277.3 398.47 277.42 398.32C277.77 398.46 278.12 398.58 278.5 398.68C281.95 399.54 285.95 397.87 287.02 394.3C288.1 390.7 285.95 387.33 283.46 384.91Z" />
			<path id="&lt;Path&gt;" class="shp3" d="M287.38 422.06C287.86 420.93 288.13 419.74 288.07 418.51C287.94 416.03 286.46 413.9 284.03 413.19C284 413.18 283.96 413.19 283.93 413.18C283.88 411.94 283.52 410.74 282.66 409.64C281.29 407.88 279.13 407.25 276.97 407.65C275.24 407.98 273.77 409.11 272.45 410.21C272.4 410.24 272.37 410.28 272.33 410.32C272.2 410.27 272.07 410.21 271.94 410.17C271.55 410.07 271.16 410 270.78 409.96C268.34 409.03 265.77 408.53 263.14 408.83C260.17 409.17 256.55 409.98 255.11 412.9C253.66 415.85 255.2 419.04 257.7 420.8C255.82 422.82 254.54 425.25 254.51 427.99C254.46 431.86 257.85 435.11 261.81 433.98C262.03 433.92 262.23 433.81 262.44 433.72C262.8 435.82 263.55 437.87 264.72 439.75C266 441.79 268.8 442.2 270.56 440.5C271.01 440.06 271.42 439.6 271.8 439.11C274.12 440.6 277.1 441.01 279.66 439.9C282.33 438.73 283.77 436.02 283.71 433.25C286.61 432.01 288.96 429.16 288.78 425.89C288.7 424.48 288.18 423.17 287.38 422.06Z" />
			<path id="&lt;Compound Path&gt;" class="shp2" d="M320.19 451.47C319.79 449.88 318.93 448.46 317.79 447.34C317.7 445.98 317.32 444.64 316.63 443.45C315.46 441.44 313.53 440.02 311.36 439.54C309.8 436.68 306.29 435.69 303.29 436.63C302.51 436.87 301.78 437.22 301.11 437.64C299.24 436.31 296.5 436 294.46 437.32C291.86 438.99 291.38 441.83 292.2 444.4C291.38 444.71 290.58 445.11 289.84 445.64C287.25 447.51 285.66 450.62 286.09 453.85C286.42 456.32 287.98 458.23 290.09 459.22C290.14 462.1 291.74 464.83 294.29 466.34C297.41 468.19 301.18 467.97 304.03 465.81C306.24 468.48 309.25 470.03 312.66 467.92C315.16 466.37 316.36 463.42 316.04 460.57C319.4 458.91 321.13 455.21 320.19 451.47Z" />
			<path id="&lt;Path&gt;" class="shp6" d="M349.29 428.24C349.99 424.27 347.76 420.49 343.93 419.34C343.23 415.41 340.8 411.87 337.46 409.67C336.07 408.76 333.87 409.07 332.75 410.28C331.19 411.95 330.1 413.9 329.47 415.97C329.38 415.97 329.29 415.94 329.2 415.94C327.65 415.95 325.65 417.14 325.41 418.83C325.37 419.09 325.37 419.36 325.35 419.63C323.16 419.4 321.05 419.83 319.49 421.42C317.43 423.52 317.76 426.84 319.62 428.93C319.94 429.29 320.29 429.58 320.66 429.85C319.83 431.05 319.11 432.33 318.61 433.75C318.12 435.12 318.91 437.18 320.27 437.81C321.71 438.49 323.21 438.91 324.72 439.06C324.5 442.01 325.48 444.83 328.69 446.14C331.9 447.44 335.25 445.85 337.16 443.17C339.68 443.89 342.47 443.38 344.58 441.75C347.3 439.67 348.39 436.16 347.02 432.97C346.99 432.9 346.95 432.84 346.92 432.77C348.12 431.52 348.98 429.98 349.29 428.24Z" />
			<path id="&lt;Path&gt;" class="shp4" d="M362.92 399.33C363.61 398.56 364.15 397.66 364.43 396.65C364.54 396.28 364.61 395.91 364.65 395.54C367.06 392.22 367.28 387.35 363.7 384.59C362.53 383.69 361.13 383.2 359.69 383.04C358.79 381.85 357.5 380.94 355.99 380.49C354.13 379.94 352.07 380.13 350.22 380.85C349.14 380.87 348.1 381.12 347.13 381.58C343.95 380.12 340.66 378.57 337.8 381.62C335.85 383.69 336.07 386.65 337.54 388.87C337.16 389.07 336.78 389.27 336.43 389.55C334.2 391.31 333.63 394.28 334.69 396.84C335.62 399.11 337.54 400.9 339.95 401.49C340.21 401.56 340.48 401.6 340.74 401.64C341.08 403.58 342.23 405.35 343.96 406.49C346.11 407.91 348.78 408.18 351.2 407.43C353.33 410.29 356.8 411.49 360.21 412.08C361.72 412.34 363.74 411.94 364.46 410.36C365.99 406.96 365.7 403.17 363.55 400.07C363.36 399.8 363.13 399.58 362.92 399.33Z" />
			<path id="&lt;Path&gt;" class="shp32" d="M323.26 609.3C316.21 609.41 309.15 610.51 302.16 611.39C298.72 611.82 295.28 612.33 291.84 612.8C288.42 613.28 284.75 613.49 281.44 614.5C279.56 615.06 280 617.68 281.88 617.82C285.35 618.06 288.97 617.46 292.43 617.16C295.95 616.86 299.47 616.59 302.98 616.23C309.93 615.51 316.99 615.03 323.84 613.6C326.27 613.08 325.7 609.26 323.26 609.3Z" />
			<path id="&lt;Path&gt;" class="shp32" d="M327.03 601.62C313.6 602.39 300.41 604.64 287.19 607.06C286.27 607.22 286.47 608.82 287.42 608.71C300.59 607.21 313.85 606.41 327.03 605C329.15 604.77 329.24 601.49 327.03 601.62Z" />
			<path id="&lt;Path&gt;" class="shp32" d="M271.1 742.09C270.69 741.58 269.99 741.28 269.33 741.48C268.72 741.67 268.07 741.81 267.5 742.09C267.01 742.34 266.52 742.63 266.06 742.92C265.12 743.51 264.18 744.1 263.21 744.64C261.29 745.74 259.3 746.72 257.26 747.6C256.29 748.01 256.02 749.39 256.39 750.26C256.76 751.15 257.92 751.9 258.91 751.5C261.14 750.6 263.32 749.59 265.44 748.45C266.41 747.92 267.38 747.37 268.31 746.78C268.89 746.41 269.51 745.98 270.01 745.51C270.48 745.08 270.85 744.48 271.24 743.97C271.63 743.44 271.48 742.56 271.1 742.09Z" />
			<path id="&lt;Path&gt;" class="shp32" d="M387.16 732.87C386.69 732.04 385.86 731.53 384.88 731.56C383.79 731.6 382.87 732.3 382.16 733.1C380.73 734.7 379.35 736.37 377.81 737.88C376.94 738.73 376.06 739.59 375.14 740.39C374.69 740.77 374.24 741.14 373.78 741.5C373.64 741.59 373.49 741.72 373.36 741.82C373.1 742.01 372.84 742.2 372.58 742.39C371.42 743.2 370.77 744.79 371.61 746.09C372.39 747.31 374.02 747.85 375.31 747.06C377.33 745.83 379.25 744.43 381.06 742.9C382.85 741.39 384.6 739.63 385.94 737.7C386.89 736.33 388.11 734.55 387.16 732.87Z" />
			<path id="&lt;Path&gt;" class="shp32" d="M210.94 867.45C209.65 865.92 208.19 864.57 206.75 863.18C205.32 861.79 203.89 860.4 202.46 859.01C201.69 858.27 200.33 858.2 199.58 859.01C198.82 859.84 198.78 861.08 199.58 861.9L203.75 866.18C205.14 867.62 206.49 869.08 208.03 870.37C208.85 871.06 210.14 871.24 210.94 870.37C211.75 869.49 211.69 868.34 210.94 867.45Z" />
			<path id="&lt;Path&gt;" class="shp32" d="M407.46 866.34C406.29 865.98 405.04 866.11 403.84 866.26C402.71 866.41 401.59 866.56 400.47 866.7C398.23 866.99 395.99 867.29 393.75 867.58C392.57 867.73 391.4 868.52 391.46 869.87C391.51 870.99 392.48 872.3 393.75 872.15C396.03 871.89 398.32 871.62 400.6 871.35C401.72 871.22 402.84 871.09 403.97 870.96C405.33 870.8 406.74 870.65 407.93 869.93C409.4 869.04 409.08 866.84 407.46 866.34Z" />
			<path id="&lt;Compound Path&gt;" class="shp19" d="M338.57 244.42C337.14 242.86 335.11 242.64 333.12 242.5C329.92 242.27 326.72 242.07 323.52 241.86C318.44 241.53 313.08 240.7 308.28 242.85C303.84 244.83 300.47 248.54 295.94 250.38C291.93 252.01 287.62 252.72 283.46 253.86C274.71 256.26 267.47 261.33 266.02 270.86C265.19 276.27 266.33 281.58 268.62 286.5C271.2 292.06 275.23 296.09 279.54 300.28C279.73 300.46 279.94 300.55 280.15 300.61C280.16 300.62 280.17 300.64 280.18 300.65C282.28 303.27 285.95 299.56 283.87 296.96C282.14 294.8 284.92 291.65 286.46 290.34C288.82 288.32 291.51 286.79 293.46 284.32C296.84 280.03 297.21 273.56 301.4 269.93C305.61 266.29 312.39 266.75 317.58 266.89C320.22 266.96 322.88 267.15 325.47 267.7C327.47 268.12 329.16 268.97 330.91 269.83C331.27 271.77 334.28 272.84 335.79 271.26C339.24 267.66 340.67 262.28 341.16 257.43C341.54 253.57 341.37 247.48 338.57 244.42Z" />
			<path id="&lt;Compound Path&gt;" class="shp27" d="M564.59 243.34C562.79 242.59 560.89 242.42 558.96 242.25C556.29 242.02 554.6 241.41 552.62 239.61C549.75 236.99 546.78 235.33 542.78 235.93C538.84 236.52 535.63 238.84 532.62 241.3C529.15 244.14 526.27 246.06 521.74 246.65C517.93 247.15 514.53 248.03 512.07 251.2C509.48 254.53 508.3 258.83 507.89 262.97C507.43 267.7 508.14 272.58 509.48 277.12C510.6 280.93 512.12 285.27 514.49 288.64C514.54 288.81 514.57 288.99 514.62 289.16C515.58 292.37 520.61 291 519.65 287.77C518.28 283.16 518.19 277.67 520.87 273.49C524.52 267.79 531.49 269.36 537.24 269.1C539.88 268.98 542.53 268.54 544.93 267.39C547.45 266.18 548.74 264.29 550.34 262.13C552.44 259.3 555.87 260.79 558.61 261.89C562.08 263.27 565.51 264.72 568.95 266.15C570.62 266.84 572.03 265.14 572.16 263.71C572.84 256.36 572.61 246.72 564.59 243.34Z" />
		</g>
	</g>
</svg>