<svg version="1.2" baseProfile="tiny-ps" xmlns="http://www.w3.org/2000/svg" viewBox="0 0 434 127" width="434" height="127">
	<title>logo</title>
	<style>
		tspan { white-space:pre }
	</style>
	<path id="dummy. " fill="#fdfdfd" aria-label="dummy."  d="M58.21 20.03L58.21 80.54Q58.21 83.23 58.02 85.85Q57.82 88.41 56.86 90.46Q55.91 92.51 53.99 93.78Q52.07 95 48.61 95Q45.1 95 43.11 93.85Q41.13 92.63 40.17 90.97Q39.21 89.24 38.95 87.39Q38.76 85.53 38.76 84.25Q38.19 86.11 37.1 88.03Q36.08 89.95 34.41 91.48Q32.75 93.02 30.38 94.04Q28.08 95 24.95 95Q21.43 95 17.91 93.85Q14.39 92.7 11.58 90.01Q8.76 87.32 6.97 83.04Q5.25 78.69 5.25 72.36L5.25 53.81Q5.25 47.41 6.97 43.12Q8.76 38.77 11.58 36.15Q14.39 33.47 17.91 32.31Q21.43 31.16 24.95 31.16Q28.08 31.16 30.38 32.12Q32.75 33.08 34.41 34.62Q36.08 36.15 37.1 38.07Q38.19 39.99 38.76 41.91L38.76 20.03Q38.76 17.28 39.02 14.66Q39.34 11.97 40.3 9.99Q41.32 7.94 43.24 6.73Q45.22 5.45 48.61 5.45Q51.81 5.45 53.73 6.73Q55.65 7.94 56.61 9.99Q57.63 11.97 57.89 14.66Q58.21 17.28 58.21 20.03ZM24.95 55.21L24.95 70.69Q24.95 72.42 25.07 74.08Q25.2 75.75 25.78 77.09Q26.35 78.43 27.44 79.26Q28.59 80.03 30.58 80.03Q33.07 80.03 34.6 78.94Q36.2 77.79 37.1 75.49Q38 73.12 38.31 69.61Q38.7 66.02 38.76 61.1Q38.76 59.12 38.38 56.56Q38.06 53.93 37.16 51.63Q36.27 49.33 34.67 47.73Q33.07 46.13 30.58 46.13Q28.59 46.13 27.44 46.96Q26.35 47.73 25.78 49.01Q25.2 50.29 25.07 51.95Q24.95 53.55 24.95 55.21ZM72.79 72.23L72.79 45.62Q72.79 42.87 73.11 40.25Q73.43 37.62 74.46 35.58Q75.54 33.53 77.46 32.31Q79.44 31.04 82.77 31.04Q86.03 31.04 87.95 32.31Q89.87 33.53 90.89 35.58Q91.92 37.62 92.17 40.25Q92.49 42.87 92.49 45.62L92.49 70.57Q92.49 72.42 92.62 74.15Q92.81 75.81 93.39 77.15Q93.96 78.43 95.05 79.26Q96.2 80.03 98.12 80.03Q100.68 80.03 102.28 78.31Q103.94 76.58 104.84 73.57Q105.8 70.57 106.12 66.54Q106.44 62.44 106.44 57.77L106.44 45.62Q106.44 42.87 106.76 40.25Q107.08 37.62 108.1 35.58Q109.19 33.53 111.11 32.31Q113.09 31.04 116.42 31.04Q119.68 31.04 121.6 32.31Q123.52 33.53 124.54 35.58Q125.56 37.62 125.82 40.25Q126.14 42.87 126.14 45.62L126.14 80.54Q126.14 83.29 125.95 85.92Q125.75 88.48 124.8 90.52Q123.84 92.51 121.85 93.78Q119.93 95 116.42 95Q112.9 95 110.92 93.85Q108.93 92.63 107.91 90.97Q106.95 89.31 106.69 87.45Q106.44 85.6 106.44 84.25Q105.93 86.11 104.84 88.03Q103.75 89.95 102.02 91.48Q100.36 93.02 97.99 94.04Q95.63 95 92.49 95Q88.98 95 85.46 93.85Q81.94 92.7 79.12 90.01Q76.31 87.32 74.52 82.97Q72.79 78.63 72.79 72.23ZM185.75 95Q182.49 95 180.57 93.78Q178.65 92.51 177.63 90.46Q176.61 88.41 176.29 85.85Q176.03 83.23 176.03 80.54L176.03 55.21Q176.03 53.49 175.84 51.82Q175.71 50.16 175.14 48.88Q174.56 47.6 173.41 46.83Q172.32 46 170.4 46Q167.84 46 166.24 47.73Q164.65 49.46 163.69 52.46Q162.79 55.41 162.41 59.44Q162.09 63.47 162.09 68.13L162.09 80.54Q162.09 83.23 161.77 85.85Q161.51 88.41 160.49 90.46Q159.53 92.51 157.61 93.78Q155.69 95 152.36 95Q149.04 95 147.12 93.78Q145.2 92.51 144.18 90.46Q143.22 88.41 142.9 85.85Q142.64 83.23 142.64 80.54L142.64 45.49Q142.64 42.8 142.83 40.25Q143.09 37.62 144.05 35.58Q145.01 33.53 146.93 32.31Q148.91 31.04 152.36 31.04Q155.88 31.04 157.8 32.25Q159.78 33.4 160.74 35.13Q161.7 36.79 161.9 38.65Q162.09 40.5 162.09 41.78Q162.66 39.93 163.88 38.01Q165.16 36.09 167.08 34.55Q169 33.02 171.49 32.06Q173.98 31.04 177.05 31.04Q181.28 31.04 185.24 33.08Q189.21 35.13 192.02 39.73Q192.98 37.56 194.84 35.96Q196.69 34.3 199.06 33.21Q201.43 32.12 204.11 31.61Q206.8 31.04 209.42 31.04Q212.94 31.04 216.46 32.19Q219.98 33.34 222.79 36.02Q225.6 38.71 227.33 43.06Q229.12 47.35 229.12 53.68L229.12 80.54Q229.12 83.23 228.8 85.85Q228.48 88.41 227.46 90.46Q226.44 92.51 224.45 93.78Q222.53 95 219.27 95Q215.95 95 213.96 93.78Q212.04 92.51 211.02 90.46Q210 88.41 209.68 85.85Q209.42 83.23 209.42 80.54L209.42 55.21Q209.42 53.49 209.23 51.82Q209.04 50.16 208.46 48.88Q207.89 47.6 206.73 46.83Q205.58 46 203.66 46Q201.62 46 200.15 47.28Q198.74 48.56 197.78 50.8Q196.82 53.04 196.31 56.17Q195.8 59.24 195.6 62.89L195.6 80.54Q195.6 83.23 195.28 85.85Q195.03 88.41 194.01 90.46Q192.98 92.51 191 93.78Q189.08 95 185.75 95ZM288.35 95Q285.09 95 283.17 93.78Q281.25 92.51 280.23 90.46Q279.21 88.41 278.89 85.85Q278.63 83.23 278.63 80.54L278.63 55.21Q278.63 53.49 278.44 51.82Q278.31 50.16 277.74 48.88Q277.16 47.6 276.01 46.83Q274.92 46 273 46Q270.44 46 268.84 47.73Q267.25 49.46 266.29 52.46Q265.39 55.41 265.01 59.44Q264.69 63.47 264.69 68.13L264.69 80.54Q264.69 83.23 264.37 85.85Q264.11 88.41 263.09 90.46Q262.13 92.51 260.21 93.78Q258.29 95 254.96 95Q251.64 95 249.72 93.78Q247.8 92.51 246.78 90.46Q245.82 88.41 245.5 85.85Q245.24 83.23 245.24 80.54L245.24 45.49Q245.24 42.8 245.43 40.25Q245.69 37.62 246.65 35.58Q247.61 33.53 249.53 32.31Q251.51 31.04 254.96 31.04Q258.48 31.04 260.4 32.25Q262.38 33.4 263.34 35.13Q264.3 36.79 264.49 38.65Q264.69 40.5 264.69 41.78Q265.26 39.93 266.48 38.01Q267.76 36.09 269.68 34.55Q271.59 33.02 274.09 32.06Q276.58 31.04 279.65 31.04Q283.88 31.04 287.84 33.08Q291.81 35.13 294.62 39.73Q295.58 37.56 297.44 35.96Q299.29 34.3 301.66 33.21Q304.02 32.12 306.71 31.61Q309.4 31.04 312.02 31.04Q315.54 31.04 319.06 32.19Q322.57 33.34 325.39 36.02Q328.2 38.71 329.93 43.06Q331.72 47.35 331.72 53.68L331.72 80.54Q331.72 83.23 331.4 85.85Q331.08 88.41 330.06 90.46Q329.04 92.51 327.05 93.78Q325.13 95 321.87 95Q318.54 95 316.56 93.78Q314.64 92.51 313.62 90.46Q312.6 88.41 312.28 85.85Q312.02 83.23 312.02 80.54L312.02 55.21Q312.02 53.49 311.83 51.82Q311.64 50.16 311.06 48.88Q310.49 47.6 309.33 46.83Q308.18 46 306.26 46Q304.22 46 302.75 47.28Q301.34 48.56 300.38 50.8Q299.42 53.04 298.91 56.17Q298.4 59.24 298.2 62.89L298.2 80.54Q298.2 83.23 297.88 85.85Q297.63 88.41 296.6 90.46Q295.58 92.51 293.6 93.78Q291.68 95 288.35 95ZM353.98 120.59Q346.69 120.59 343.62 118.54Q340.55 116.43 340.55 112.4Q340.55 110.42 341.06 109.07Q341.64 107.73 342.6 106.9Q343.56 106.07 344.77 105.75Q346.05 105.36 347.46 105.36Q348.42 105.36 349.25 105.43Q350.08 105.49 350.66 105.49Q351.87 105.49 352.96 104.08Q354.11 102.61 355.13 100.44Q356.22 98.26 357.31 95.77Q358.4 93.27 359.48 91.16L358.46 88.6Q356.6 83.93 354.56 78.82Q352.51 73.64 350.46 68.39Q348.48 63.08 346.5 57.84Q344.58 52.59 342.98 47.67Q342.28 45.62 341.76 43.64Q341.32 41.65 341.32 39.73Q341.32 37.88 342.08 36.28Q342.85 34.68 344.19 33.53Q345.54 32.38 347.27 31.74Q349.06 31.04 351.04 31.04Q352.83 31.04 354.3 31.8Q355.84 32.57 356.99 33.91Q358.2 35.26 359.1 36.98Q359.99 38.71 360.63 40.63L369.21 67.62L377.39 40.63Q377.97 38.84 378.86 37.05Q379.76 35.26 380.97 33.91Q382.19 32.51 383.73 31.67Q385.26 30.78 387.12 30.78Q388.97 30.78 390.63 31.48Q392.36 32.19 393.58 33.47Q394.85 34.68 395.56 36.41Q396.33 38.14 396.33 40.12Q396.33 42.04 395.81 43.96Q395.37 45.81 394.66 47.67L379.31 88.35Q377.97 91.8 376.37 95.58Q374.83 99.29 372.98 102.87Q371.12 106.45 369.01 109.65Q366.9 112.85 364.54 115.28Q362.17 117.71 359.48 119.18Q356.86 120.59 353.98 120.59ZM427.54 84.38Q427.54 89.82 424.79 92.44Q422.04 95 417.05 95Q411.93 95 409.18 92.44Q406.43 89.82 406.43 84.38Q406.43 78.88 409.18 76.39Q411.93 73.89 417.05 73.89Q422.36 73.89 424.92 76.39Q427.54 78.88 427.54 84.38Z" />
</svg>